<?xml version="1.0" encoding="UTF-8"?>
<svg xmlns="http://www.w3.org/2000/svg" version="1.1" viewBox="0 0 1024 1029">
  <!-- Generator: Adobe Illustrator 29.6.0, SVG Export Plug-In . SVG Version: 2.1.1 Build 207)  -->
  <defs>
    <style>
      .st0 {
        fill: #487454;
      }

      .st1 {
        fill: #bdbe6f;
      }

      .st2 {
        fill: #4f7c69;
      }

      .st3 {
        fill: #cfcfa4;
      }

      .st4 {
        fill: #bca889;
      }

      .st5 {
        fill: #39396a;
      }

      .st6 {
        fill: #1d2340;
      }

      .st7 {
        fill: #eabb8f;
      }

      .st8 {
        fill: #baa787;
      }

      .st9 {
        fill: #497452;
      }

      .st10 {
        fill: #9c9a58;
      }

      .st11 {
        fill: #da8941;
      }

      .st12 {
        fill: #9b9958;
      }

      .st13 {
        fill: #71a376;
      }

      .st14 {
        fill: #3a396a;
      }

      .st15 {
        fill: #477353;
      }

      .st16 {
        fill: #64868e;
      }

      .st17 {
        fill: #1c2140;
      }

      .st18 {
        fill: #b9a686;
      }

      .st19 {
        fill: #ebbc8f;
      }

      .st20 {
        fill: #1e2340;
      }

      .st21 {
        fill: #1d213f;
      }

      .st22 {
        fill: #bdbd6e;
      }

      .st23 {
        fill: #1c213e;
      }

      .st24 {
        fill: #517f6b;
      }

      .st25 {
        fill: #bba88a;
      }

      .st26 {
        fill: #bdbd6f;
      }

      .st27 {
        fill: #d5d1ca;
      }

      .st28 {
        fill: #b85f44;
      }

      .st29 {
        fill: #1d2240;
      }

      .st30 {
        fill: #1c213f;
      }

      .st31 {
        fill: #39386a;
      }

      .st32 {
        fill: #73a478;
      }

      .st33 {
        fill: #f5ddbe;
      }

      .st34 {
        fill: #1a203f;
      }

      .st35 {
        fill: #9b9957;
      }

      .st36 {
        fill: #ebbc90;
      }

      .st37 {
        fill: #97c9cf;
      }

      .st38 {
        fill: #1d223f;
      }

      .st39 {
        fill: #96c8cf;
      }

      .st40 {
        fill: #65878f;
      }

      .st41 {
        fill: #ebbb8f;
      }

      .st42 {
        fill: #507e6a;
      }

      .st43 {
        fill: #bba889;
      }

      .st44 {
        fill: #f4ddbe;
      }

      .st45 {
        fill: #71a276;
      }
    </style>
  </defs>
  <g id="Calque_1">
    <g>
      <path class="st29" d="M776.4,507.9c-1.5-.8-7.8-2.7-8.2-3.3-.7-1.1,0-8.4-.4-11.1-1.9-11.4-16.3-19-25.7-23.2l11.9-16.1c16.4,7.4,33.7,1.1,45.1-11.9,2-2.3,6.7-10.9,7.2-11.3,2-1.4,9.4-.9,12.1-1.4,22.2-3.4,45-11.7,57.4-31.6,26.4-42.2-25.3-87.6-55.6-110.5l-14.2-69.3c.1-2.4,9.1-10.5,12.4-10.5,10.8,2.8,21.2,7.1,32.3,8.8,8.4,1.3,33.6,4.7,36.8-5.7,3.3-10.8-6.8-20.5-13-28.1-21.5-25.9-53.1-64.9-77.5-86.5-26.4-23.4-41-17.7-69.7-1.7-51.4,28.6-96.3,74.3-136.3,116.7-42-1.8-140.2,7.9-127.5,70.6,7.3,35.8,54.1,66.1,86.6,77-5.4,29.1-13.9,61.5-2.8,90.3,5.9,15.2,17.1,27.1,28.6,38.2-6.1,6.8-8.7,14.4-9.3,23.5-27.9,14-52.6,35.2-69.5,61.5l-80-17.5c17.3-17.4,24.8-43,19.5-67-3.8-17.2-35.8-70.6-47.6-85.4-19-23.9-46.8-36.4-76.7-40.8-4.6-9.8-16.3-31.1-26.5-35-17.1-6.5-33,21.6-38.7,34.2-10.4-10.2-37.9-26.8-50.9-14.4-10.3,9.8-4.9,36.4-4.1,49.4-20.6-7.1-51.3-7.8-43.3,22.8,3.4,12.8,11.6,21,15.7,31.3.4,1,.7,1.8.5,3-9.3.9-30,10.5-32.5,20-5.4,20.5,25.7,40.6,38.5,52-26.5,9.2-49.2,27.6-21,52.5,8.1,7.2,16.8,11,26,16,.7.4,2.8.3,2,2-1.4,2.7-29.6,9.6-34.7,22.3-5.4,13.4,9.9,28.3,18.7,36.8l12,9.5c-10.2.8-32.9,4.8-37.1,15.4-3.7,9.5,3.3,23.1,7.6,31.6,2.3,4.5,9.7,11.4,4.1,15-3,1.9-11.9-1.6-16.2-1.9-25.9-2.3-28.9,11.6-31.4,33.9-15.4-13.6-31.4-21-42.9,1.6-.6,1.2-1,4.1-1.2,4.3-1,.8-6.9-1.3-10.4,4.2-5.9,9.2,8.3,26.6,14.4,33.5,30.4,34,82.3,50.8,127,50.5-3,15.8-11.7,32.2,4.7,43.8,17.8,12.6,75.3,16.3,94.3,5.6,12.7-7.2,10-21.8,1.6-31.4-2.3-2.6-15.2-11.5-15.3-12.5,0-.9,3.2-6.6,4.5-7.3,3.7-2.1,11.2-1.1,15.3-3.2v19.5c0,5.3,5.8,13.7,10.1,16.9,16.1,12.1,67,12.1,85.7,5.9,9.6-3.2,15.9-7.9,15.3-18.8-.9-15.4-18.9-21.8-31-26.5,2.9-6.1,7-11.7,9.5-18,6-15.1,7.2-30.2,5.3-46.2-.4-3.2-2.5-7.2-2.6-10.2,0-5.3,3.7-14.7,4.3-20.5,4.4,5.1,12.2,6.1,18.5,6v72.6c.6,7.3,3.1,7.1,9.2,8.8,22.2,6.1,46.4,9.3,68.8,14.7,1.6,1.7-7.1,33.6-6,39.5,1.5,7.6,27.8,15,35,17,13.1,3.8,26,4.6,38.3,7.5,1,.2,1.2,2.2,2.3,2.9,2.7,1.7,33.3,4.7,38.9,5.1,68.2,5.1,156.9,1.2,222.9-17.1,8.7-2.4,36-9.6,37.5-19.5.9-5.8-3.9-23.7-5.3-30.6-4.5-22.3-10.2-44.5-14.7-66.8,32.3-5.5,57.2-28.8,61.9-61.6,10.2-71.6-57.5-185.4-120.5-219.3ZM362,610.3c-3.6-4.7-12.5-16.9-14-22-.6-2,.4-1.2,1.4-1.5,8.4-2.5,17.5-3,25.5-7l13,58c-9.1-8.3-18.5-17.7-26-27.5Z"/>
      <path class="st13" d="M262,766.8c-.9-.8-4.3-3.2-5.1-3.5-3.8-1.5-8,2.5-6.8,6.8s11.4,11.1,13.8,14.2c13.4,17.2,13.6,35.1,6,55-1.7,4.6-9.5,16.8-9.1,19.9.8,5.4,18,14,21.9,20.2s3.9,9.1-.3,12.3c-.6-5.3-9.3-22.7-16-15-5.1,5.9,7.5,11.4,5.5,19-2.8-.7-12.2,2.3-13.9.9s.2-15.4-7.7-15.9c-10.8-.7-1.6,14.1-3.4,16-11.8,0-47.2-3.1-52.8-14.7s4.9-27.8,6.5-37.1c2.4-14.8,1.8-30.3-4.2-44.2-3-6.8-9.2-15.7-13.5-4.6l8,21.1v24.5c-23,0-45.8-4.3-67.2-12.3-27.2-10.1-55.9-28.4-67.8-55.7h29.5c16.3,0,41.3-13,54-23,50.4-40.1,52.9-106.2,48.5-165.5-4-53.4-22-119.6,6.6-168.4,32.2-55,127.9-58.7,173.9-20.1,17.1,14.4,40.5,56.1,51.1,76.9s8.4,56.8-14.5,77.5c-2.5,1-24.6-6-29.6-6.4-15.4-1.4-3.1,16.4-3.4,24.9-31.5,11.4-66.3,12.7-99.2,6.7-4.9-.9-16.9-6.9-18.7,0s22.2,11.5,27.5,12.2c18.1,2.4,37.1,2,55.3.2,3.2,10.1,11,18.9,15.3,28.2s3.1,11.1,4.8,15.7l-3.3.4c-28.8-15.4-63-1.1-76.4,27.7l-3.3,2.8c-.9,3.4-11.9,11.1-15.2,11.8-4.8.9-10.1-11.5-10.9-15.4l-4.4-15.5c-5.4-2.9-5.6,2.2-5,6.5,1.8,11.8,8.4,21.5,15.2,30.9l-.5,2c-4.1,2.4-7.4,13.3-.4,10.2,10.8-15.3,25.9-25.6,44.8-28.3,27.8-3.9,32.5,8.7,6.2,12.5-16.2,5.7-4.9,11.8,5.5,15.8,17.1,14.9-2.1,14.6-14,11.4-3.6-.2-6.8,1.6-9.2,4.2-20.8,34.7-63.9,26.1-76.5-10.3-5.5-10.2-8.1-2.4-5.2,5.2,7.9,21,31.6,38,54.7,33.5l2.8,1.5,1.6,2.5c-.4,7.4-.3,14.8.4,22.1l-2,2.3Z"/>
      <path class="st19" d="M732.9,351.9c1.5,9.4,3.8,18.9,7.9,27.6s8.7,12.7,9,14c.8,3-5.9,8.2-.3,12.2,6.3,4.5,10.9-7.9,15.9-11.9s6.4-4.4,10.1-4.9c36.6-5,28.6,60.2-9.1,56.9-5.6-.5-11.2-5.2-15.7-3.8s-13.2,17.4-16.2,20.8c-45.6,52-140.3,54.3-173.7-11.3s1.3-82.9,4.2-122c14.5-3.8,27.1-12.2,37.6-22.7.9-.2,7.4,7.7,9.5,9.4,13.2,10.6,29.4,14.4,46,11.1s4.7-2.3,5.5-2.3,8.4,7.5,10,8.7c18.5,14.1,35.8,19,59.4,18.1Z"/>
      <path class="st44" d="M537,592.8l2.3,29.4c0,2.6-.5,5.2-1.3,7.6.9.3.9.7,0,1l-.9,2c-10.1,1.8-16.4,8.3-20.1,17.6-11.2,28.5-3.1,33.6,24.9,28.3l1.1,2.1c.2-.9.6-.9,1,0,2.5,3.3,3.7,12.7,1,16v1l-2.5.7c-9.4-6.8-17.1-3.5-25.9,1.7l-17.4,3.1c-19.2,2.1-22,30.8-4.2,36.9,21.7,3.1,29.2,12.9,29.3,35,2.5,10.8,11.9,29.6,25.2,19.9l2.5.7,2.1.7c1.9,19.3,3.9,38.6,5.8,57.9l-1.9,1.4-138.9-31.1-.2-70.2c9.9-4,23.5-9.1,23.1-22.1s-3.4-7.8-2.9-9.8c.8-3.1,6.3-4.3,5.8-12.1s-8.6-14.2-8.7-15.1,1.5-2.5,1.7-4.1c2-17.7-19.4-22.2-32.9-23.5l-26.1-109.4c.7-1.1,3.1-.4,4.2-.2,50.4,7.5,103.1,26.3,153.8,34.7Z"/>
      <path class="st5" d="M810,419.8v-15.5c0-1.6-3.9-9.8-3.9-12s1.8-4.9,2-8c1.7-26.2-14.1-38.6-33.1-53-37.7-28.5-85-47.7-131.1-57.9-29.7-6.6-66.2-12.4-95.1-.4-31.9,13.1-31.4,55.4,5.2,57.8,0,2.6-1.7,16.9-3.5,17-13.6-5.7-27.1-12.3-39-21-28.2-20.6-60.2-60-18.2-86.2,60.7-37.9,198.7-5.4,261.4,22,36.4,15.9,101,56.7,114.4,95.6,13.6,39.8-25.6,59.2-59,61.5Z"/>
      <path class="st5" d="M877,206.8c-13.6.6-27.2-1.6-40.2-5.3s-15-6.7-20.3-6.2-11.4,8.8-12.9,8.5c-1.1-.7-1.2-1.4-1.5-2.5-3.5-15.2-6.3-30.4-10.6-45.4-7.5-7.5-10.4-1.1-9.2,7.2,2.5,17.3,10.9,36.9,13.3,54.7l12,60c-61.4-37.6-132-56.9-203.5-63.5,17.5-20.3,36.8-39.4,57-57,20.5-17.9,77.6-64,103.5-65.5s26.7,14.3,35.6,23.5c22.9,23.7,50.6,55.2,70.9,81.1,1.3,1.6,7.7,8.9,6,10.5Z"/>
      <path class="st31" d="M553,903.8c-2.4,2.3-43.8-9.5-49.8-11.7s-12.5-3.2-12.2-8.6c.6-9,5.1-20.3,6-29.6l63.4,14,94.3-25.8c27.6,3.3,55.1,14.1,82,21.5l5.3-.2,52.2-19.8,1.6-1.4-1.9-71.4c7.5,11.3,16.6,17.2,30,19.7l19.9,91.9c0,2.3-4.3,3.6-6.3,4.6-18,8.8-41.7,13.2-61.5,16.5-70.3,11.7-142.5,11.9-213.2,5.3,1-5.4,3.1-27.1-2-29.5s-8-.1-8,4v20.5Z"/>
      <path class="st5" d="M798,751.8c10.9-1.4,7.4,1.7,10.5,9,7.1,16.5,24.1,14.1,30.3-1.7s4-23.5,4.2-32.8c.5-20.9-.6-44-13-61.5,5.6-.3,11.9,2,16.7,4.8s16.4,17.7,21.9,13.3c5.7-4.6-4.7-12.3-8.1-15.1-7.9-6.4-17.5-12.2-28-13s-9.5,1.2-11.8.8c-5.2-.8-17.9-14.2-26.7-11.8,1.9-10.3.7-21,1-31.5.4-15.3,3.1-34.9,1.1-50-1-7.9-8.6-5.3-14-3.9-14.4,3.5-29,11-43.5,14.5l-97-19.1-102.1,28c-9.2-1.3-20-3.2-28.9-5.9s-2,.5-1.4-1.5,7.4-10.2,9.5-12.5c14.3-16.3,32.7-31.3,52.2-40.8,1.8-.2,7,6.3,8.8,7.8,22,17.6,51.5,22.4,78.9,23.1,37,1,79.7-8.3,104.1-38.1,38,17.7,68.9,53.7,89.2,89.8,20.2,35.8,49.7,108.3,25.6,146.2-17.5,27.6-71.3,47.8-79.4,2.1Z"/>
      <path class="st3" d="M357,632.8c7.1,19.4,11.3,34.1,16.3,54.2s2.3,3.9,2.6,5.5-2.9,8.9-2.9,12.8c-.1,10.6,7.2,14.8,7.8,18.1s-1.6,8.2-1.7,10.9c-1.2,17.2-2,29.8-8.8,46.2-14.3,33.9-53.2,53.3-88.2,57.3,8.3-26.9,1.5-52.8-20-71,0-9.1-1.7-17.9,0-27l1.4-2.4c10.9-3.9,19.8-12.5,26-22,5.4-3.1,11.7-3.5,19-1.1,18,.7,18.5-14.1,6.6-24-6.4-5.3-7.1-6.9,2.3-8.1,16.1-4.1,14.2-20.2-2.4-22.9s-26.9,1.1-38.8,5.7l-2.2-1.2c13-33.3,51.1-49.7,83-31Z"/>
      <path class="st44" d="M651,566.8c29.4,4.4,58.3,11.8,87.5,17.1l47.5-15.1-3,88c-11.3-.5-32.4-4.4-40,6l-2.4-1.1c-1.3-2.8-1.8-16.2,1.4-17.9l1-23c-1.6-11.7-2.7-23.5-1.3-35.3-.5,1-2.1,1.7-4.7,2l-.9,82.7c1.3.5,2.3,1.4,3,2.6-1.7,1.6-4.4.9-6.7,1.8-5.4,1.9-9.1,8.2-9.3,13.8s4.9,11.3,4.9,12-3.1,2.9-3.6,5.2c-2.2,9.3,5.2,19.3,11.8,25.3l2,3v50.8l-2,1.2c-1.4,3-9.9,3.9-13.3,3.9-8.6,0-19.9-5-23.4-13.3-2.6-18.9-20.2-23.3-36.8-23.7l-1.4-1.9-2.2-2.8c-.5-3.1-1.8-22.3-.9-23s2.4-.4,3.2-.5c12.7,4.4,26.2-1,28.5-15,.7-14.9,6.5-21.9,20.7-26.5,11.4-14.8,1.8-45.1-20.2-30.8-3.6,1.8-6,1.7-7.3-.4l-1.3-2.7c6.7-21.4-1.4-46.4-26.5-48.2l-2.2-2.2c-.6-.4-1.2-.8-1.7-1.3-2.8-2.9-3.4-22.7-3.4-28-1.5-2.8.3-3.3,3-2.7Z"/>
      <path class="st44" d="M561,787.8l.9-3.1c5.8-3.3,9.1-9.7,9.7-16.2-.4-13.3,1.8-24,13.9-31.7,2.8-4.9,3.4-10.5,1.9-16.9,3.1-10.1,17-4.1,20.7,3l9.7,15.3c3.2,3.3,7.6,7,10.9,1.8l7.4-13.9c2.5-5.2,12.2-11.9,15-5.3,1.4-1,1.8-.5,1,1l2.1,2,.8,25.1c.3,1.9.1,3.1-1.9,3.8-2.1,2.6-5.2,4.8-9.3,6.5-11.4,10.4-16.2,40.3,7.5,35.6l1.8,2c2-.6,2.7-.7,4,.7s1.8,26.6,1.6,30.4l-1.6,2.9c-30.4,7.6-60.4,17.2-91,24l-2.1-.7c-1.9-20.5-3.8-40.9-5.7-61.4l1.7-2.8c-2-1.7-1.7-2.4,1-2Z"/>
      <path class="st11" d="M797,382.8c-13.1-8.3-27.5-6-39.4,3-6-7.6-11.4-18.2-13.3-27.7s-.7-14.8-2.7-16.3-25.3-1.3-30.8-2.2c-17.7-2.8-35.4-15-45.2-29.8s-5.2-11.9-7.5-12.5c-12.3-3.2-5.4,14.9-1.1,19.6-13.2,3.2-27-.5-37.5-9s-7.1-6.6-7.8-8.3c-1.1-2.6,2-12.1-5.1-11.5s-12,12.1-16.2,15.7c-10.8,9.4-38.7,24.3-50.5,10.5-16.7-19.6,15.9-34.4,31.6-36.4,60.3-7.5,162.9,30,207.9,70.9,9.4,8.6,20.9,20.2,17.5,34Z"/>
      <path class="st19" d="M749,674.8c1.4-10.4,18.5-8.7,26.5-8s24,6.4,26.6,4.5c5.9-7.4-7.6-9-8.1-11.2s-.2-7.1,1.5-7.3c5.2-.4,22.4,13.5,26,17.9,10.6,13.2,13.9,38.7,7.3,54.3-13.2,31.1-73.7,13.5-90.3-7.3-1.3-1.6-7.2-9.1-3-10s17.7,7.8,21,9c6.7,2.4,25.8,8.9,31.9,6.8,3.6-1.2,2.7-6.6-.3-8.3-11.9-1.6-46-11-52.4-20.5s.8-12.1,9.7-10.7c12.5,2,27.3,11.5,41.7,12.3s11.7-4.5,5.3-9.3c-15.2-.9-29.4-6.6-43.3-12.2Z"/>
      <path class="st44" d="M642,564.8c1.1,1.3,1.8,2.8,2.2,4.4-.1,10.5.8,20.3,2.8,29.6l-1.5,2.3c-6.7,1.3-12.1,5.8-15.9,11.3l-2.7.4-2.1.7c-2-1.8-4.6-1.9-7.1-1.2-11.6,5.8-20.2,8.7-33.4,6.9-6.2,5.8-12.7,10.6-19.6,14.3-4.4,1-15.1.6-17.8-2.7-1.3.8-1.8.3-1-1l-2-1-2.3-31c-1.3-1.7-2.2-3.3-2.6-5l103-28Z"/>
      <path class="st44" d="M743,735.8c11.2,7.6,25.5,12.8,38.9,15.1,2.1,8.3.7,16.9,1.1,25.4.8,15.9,2.5,32,3.1,47.9,0,2.6.6,9.7-1,11-13.1,5.4-26.6,9.8-40,14.5-.8,0-1.9-.3-2-.9-.2-1.9-.4-18.8,0-19.7s1.2-1.1,2-1.4l.3-2.2c14.4-6.6,11.9-30-1.5-36.4l-.7-2.4-2-.9v-48.9l2-1.2Z"/>
      <path class="st45" d="M392.9,875.8c-3.3,2.1-3.2-3.5-4.5-5.9-2.4-4.3-9.9-12.7-14.9-8.1s7.8,13,8.5,18c-4.6,1-9.2,2.5-14,2,.6-6.1-10.1-22.8-16.1-14.5-3.6,5,4.6,10.9,6.1,15.6-13.2-.7-46.3,0-53.2-13.3s-1.1-16.5-1.8-24c25.8-8.9,52-21.2,67.9-44.3l7.2-11.3c1,14.5-2.9,28.3-9.5,41-2.2,4.3-8.3,10.3-7.4,15.2,1.7,9,32.3,11.1,32.7,26.3s-.8,3.3-.9,3.4Z"/>
      <path class="st14" d="M657,542.8l24-11.5c20.4-8.4,28.4-30.4,42-44,1.2-1.2,7.9-6.6,9.1-7,3.5-1.2,11.3,2.4,14.6,4.3,29.6,17-9.1,40.6-26.2,47.2-19.3,7.5-42.8,11.8-63.5,11Z"/>
      <path class="st44" d="M738,828.8l1.5,1.9c-.4,6.6-.1,13.2.7,19.8l-2.1,1.3c-24.2-2.9-52.8-18.1-76-21,1.3-3.1,1.3-6.5,0-10.4v-21.2s2-1.4,2-1.4c3.4-1.3,6.7.3,10.1,4.9,11.5,20.4,39.8,24.7,61.5,24.4l2.4,1.7Z"/>
      <path class="st5" d="M639,540.8c-16.1,0-58.1-13.5-60.9-31.6-.8-4.8,1.7-16.5,7.9-15s10.6,5.8,13.6,7.4,7.9,2.4,9.9,4.1,4.7,7.8,6.6,10.4c7.1,9.3,14.3,16.8,22.8,24.7Z"/>
      <path class="st19" d="M702,500.8c-10.1,11.7-23.1,21.9-37.3,28.2s-12.9,5.5-16.5,5.6c-6.1.3-20.8-19.4-25.2-24.3,5.4-.9,11.1,1.3,16.5,1.5,21.5,1.1,42.8-2.7,62.5-11Z"/>
      <path class="st41" d="M384.1,699.8c9.4,1.7,19.9,4.7,29.5,5s12.5-2,16.8-.8,6.8,8.9,2.7,12.3c-12.4,10.3-56.3,8.4-48.9-16.4Z"/>
      <path class="st15" d="M172,535.8l5,46c-7.2-2.5-29.9-19.2-29.9-26.5s18.1-18.8,24.9-19.5Z"/>
      <path class="st15" d="M239,368.8c-6,1-11.3,4.3-16.7,6.8l-20.3,14.2c-.1-6.5-3.7-33.7,2-36.5,8.5-4.2,29.7,8,35,15.5Z"/>
      <path class="st15" d="M169,508.8c-7.4-4.3-27.4-23.1-26.9-31.5s21.1-14.1,26.9-15.5v47Z"/>
      <path class="st15" d="M178,651.8c-1.3,1.5-13-9.4-14.5-11-3.4-3.6-10.9-12.5-10.6-17.5s19.2-13.7,25.1-16.5v45Z"/>
      <path class="st43" d="M739,672.8c-.4.3-3.9-.2-5,0l1-88h8c0,12,0,24,0,36l-1,23c0,6.1-.9,13.3,1,19-2.4,3.2-3.6,9.6-4,10Z"/>
      <path class="st2" d="M189,405.8c-6.8,11.8-12.9,23.8-16.5,37-4.6-7.2-17.8-29.1-14-37s24.7-3.1,30.5,0Z"/>
      <path class="st7" d="M396,671.8c.1,0,.2,1.7.9,2.5,5.4,5.4,24.4,3,30.5,11.5s.4,7-3.2,8.7c-7.5,3.4-32.1-.8-38.6-5.9s9.4-17.6,10.3-16.9Z"/>
      <path class="st42" d="M300,360.8c-14.5-.8-28.7,1.4-43,3,3.4-6.6,15.1-27.1,22.7-27.8,5.8-.5,17.1,19.9,20.3,24.8Z"/>
      <path class="st0" d="M173,673.8c-1.9,13.9-9.2,26.3-14.5,39-3.9-4.6-13.6-24-12.1-29s21.1-8.6,26.6-10Z"/>
      <path class="st43" d="M560,789.8l6,65c-1.4.3-3.7,2.2-5.7,2l-2.3-1-6-60c-1.5-1.3-.9-1.9,1-1,.3-3.2,4.1-7.1,7-5Z"/>
      <path class="st36" d="M390,728.8c9,2.2,17.1,3.8,26.5,3s12.3-3,12.9-2.9c3.7.9,2.5,6.4.1,8.9-10,10.3-41.8,11.2-39.5-9Z"/>
      <path class="st18" d="M743,735.8v51c-1.5,2.5-6.2,1.8-7-1v-55c.8.7,5.7,4.1,7,5Z"/>
      <path class="st32" d="M392.7,656.1c.3.5,1.4,5.4,1.3,5.7s-3.4,1.1-4.7,1.9-8.8,6.8-9.3,6.2l-10-34c5.1,4,9.3,9.1,14,13.5s8.1,5.7,8.7,6.8Z"/>
      <path class="st24" d="M139,735.8c.5,1.9-.8,1.9-1.7,2.8-2.2,2.2-23.8,17.8-25.3,16.2.9-19.1,8.4-24.9,27-19Z"/>
      <path class="st25" d="M539,592.8c1.1.3,2.3,1.3,3.7,1.2,1.5,1,3.1,31.2,3.3,35.8-1.2,2.6-7.7,3.3-8,0-1-11.1-2.1-22.7-2.8-33.8-.1-2.2-.2-2,1.8-3.2.6.1,1.5-.2,2,0Z"/>
      <path class="st8" d="M664,797.8v22.5c0,4.1,3.7,9.1-2,10.5-1.6-.2-3.4.1-5,0-1.6-10.1,0-20.8-1.9-30.7s.9-3.9-2.1-3.3c-.2-5,10.7-3.6,11,1Z"/>
      <path class="st4" d="M651,566.8c-3.6-.3-1.1.9-1.1,2.6.3,9.7.7,20,3.1,29.4-1.2,2.8-4.5,2.6-6,0-1.2-1.2-2.8-.2-3.1-2.4-1.3-10.4-1.4-21.1-1.9-31.6,2.8.4,6.4,1.6,9,2Z"/>
      <path class="st4" d="M745,827.8v22c-1,.4-3,2.9-4.8,2.9l-2.2-.9c1.1-7.7-2.9-15.5,0-23,0-3,6-3.8,7-1Z"/>
      <path class="st9" d="M68,762.8c5.6-11.2,11.1-7.7,19.7-2.2s1.8-.1,1.3,2.2h-21Z"/>
      <path class="st17" d="M262,739.8c-18.8,4.3-36.7-3.2-49-17.5s-15.3-21.1-11-27.1c6.7-9.3,11.7,9.7,14.2,13.9,13,21,40.4,29.1,59.4,10.7s9.6-16.4,19.9-16.1c4.9.2,26.7,6.7,15.6-5.5s-22-6.2-15.9-16.8,18.7-5.1,22.9-9.1.3-4-2.6-4.4c-20.8-2.6-40.9,4.6-54.9,19.9s-7.8,13.7-12.6,7.6,4.1-12.3,4.1-13.1-6.4-7.8-7.8-10.2c-3-5.3-10.4-22.7-7.3-27.9s5.8-3.3,7.8-1.2,5,27.2,13.9,30.7c5.1-2.8,10.1-7.5,15.4-9.9,12.2-5.7,38.9-11.1,50.5-3s4.8,4.6,5.3,6.7c2.3,10.1-3.7,13.7-12,16.6s-6.6,0-5.8,2.2c12.1,5.1,20.3,24.8,3.4,29.4s-10.5-.5-17-.9-7,2.6-12,8-14.6,14.7-24.5,17Z"/>
      <path class="st6" d="M277.7,451c16.7-3.6,22.1,32.8,4,29.6-10.7-1.9-14.9-27.2-4-29.6Z"/>
      <path class="st30" d="M319.7,555.6c-2.6,2.6-15.2-1-20.2-.7s-8.6,1.3-11.7,2.3-12.6,6.9-13.8,2.1c-3.1-12.7,25.2-15.2,33.4-14.2,4.2.5,18.3,4.8,12.4,10.6Z"/>
      <path class="st29" d="M369.7,462.5c-9.7,9.6-22.4-10.3-16.1-21.6,8.2-14.7,24.7,13.1,16.1,21.6Z"/>
      <path class="st17" d="M388.3,494.1c3.5-3.9,9.3-1.9,9.8,3.2s-5.7,19.1-12.7,13.6.3-13.9,2.9-16.8Z"/>
      <path class="st30" d="M333.7,500.9c4.8-1.3,20.3,9.6,12.9,14.9s-23.5-12-12.9-14.9Z"/>
      <path class="st30" d="M628.8,435.6c-2.9,2.9-14.3.5-17.8-1.2-8.7-4.2-11.6-17.6-6.4-25.5s6.5-4.8,9.5-7.5,9.1-13.8,14.5-8.5c5.4,5.4-3.7,13.1-7.5,16.5s-11.8,5.3-7.9,12.9,11.1,2.9,14.9,6,2.7,5.3.7,7.3Z"/>
      <path class="st29" d="M675.7,376c17.2-3.6,12.5,38.7-4,30.6-11.2-5.5-6.5-28.4,4-30.6Z"/>
      <path class="st38" d="M594.7,367c18.6-5.5,15.1,27.8,4.8,29.8-18.2,3.5-13.4-27.2-4.8-29.8Z"/>
      <path class="st23" d="M636.8,453.1c6.8-.9,25.4-.6,28.8,6.8s.3,5.4-1.5,6.5c-3.6,2.1-11.3-2.7-15.8-3.2s-10,.1-15.5,1.9-8.5,6-10.5-.9,9.5-10.3,14.6-11Z"/>
      <path class="st30" d="M701.9,364.7c-5.4,3.4-14.5-8.9-21.8-10.4s-21.6,2-16.6-8.4c4.5-9.3,33.9,2.4,38.6,10.4s1.4,7.4-.2,8.4Z"/>
      <path class="st30" d="M595.8,334.1c5.2-.8,12.6-.5,17.2,2.3s6.2,6.5,1.6,9.5-6.6-1-10.5-1.6-8.4,0-12.3,1.8-8.5,8.9-13.2,3.7,11.7-14.9,17.2-15.7Z"/>
      <path class="st21" d="M773.7,404c3.9-.7,11.6-.7,12.3,4.3,1,7.2-7.9,5.7-12.1,6.9s-7.3,5.7-11.5,2.6c-7.6-5.5,6.1-12.9,11.3-13.8Z"/>
      <path class="st26" d="M547,630.8c6.5-.3,12.4,2.3,18.8.3,6.9-2.1,12.4-12.9,18.9-14.1s9.1,1.3,14.5.5c9.2-1.3,20.1-13,27.8-4.7l.5,3c-10.6,18.3-.6,37.8,11.4,52.6l11.3,13.5-.2,2.8c.7,2.4,1.3,5.1,1.8,7.9l-1.8,1.6c3.3,1,3.1,13.4,0,15,4.5-1,3.9,9.7,1,11.5-19.2-6-15.6,37.4-34,19.5s-10.4-23.1-21.5-23.6c-9-.4-5.5,4.7-5.4,9.5.2,13.6-4.3,11.2-11,19.1-10,11.7.2,24.1-11.5,37.5-2.3,2.6-4.6,3.3-6.5,5-.8,0-2-.2-2.1-.7-3.4-27.7-5.2-56-6.9-83.7l1.9-1.5,1.3-2c10.1,0,3.4-7.1-1-11l.6,10.5-1.9,1.5c-2.5,3-7.5-.2-8-4-.5-5.3-1.6-10.6-1-16,.7-1.7,2.3-1.9,4.7-.8l-3.6-47.9,1.9-1.3Z"/>
      <path class="st1" d="M545,697.8c5.7,26.6,7.5,54.6,9,81.9.3,5-.4,10.1-1,15.1-.6.5-.9.9-1,1-12.2,9.2-19.6,1.6-25.8-9.7s-3.7-13.9-5.3-23.7c-4.3-25.7-27.8-12.1-37.1-28.9s-3.2-17.6.8-23.6c7.1-10.6,21.3-8.5,31.4-11.6s7.7-4.8,11.5-5.5c6.4-1,12.4,1.1,17.4,4.9Z"/>
      <path class="st26" d="M538,630.8c3.7,5.4,4.5,14.5,5,21.3,1.8,9.9,1.8,19.5,0,28.7-9.7-.8-23.4,6.3-30.5-3-5.8-7.6,2-29.6,7.2-36.8s12.2-10.5,18.3-10.3Z"/>
      <path class="st40" d="M433.3,659.5c-6.2-6.7-5.5-23.7.1-30.7s17.2-8.3,23-16c3.3-4.5,3.6-9.4,9.5-12.5,16.1-8.3,30.1,7.3,21.8,23.8s-13.8,11-19.7,17.3-4.8,11.5-8,16c-6.1,8.5-19.5,10-26.7,2.1Z"/>
      <path class="st10" d="M553,700.8c1.5-1.1,2-.5,1,1l1,21.5,6,64.5c-.4.4-.6,1.6-1,2-1.2,1.1-5.1,3.6-7,5-2-32.4-5-64.7-8-97,0-.3,0-.7,0-1,2.2,2.5,5.8,2.9,8,4Z"/>
      <path class="st12" d="M546,629.8c.7.1,1,.3,1,1l4,53c-2.3-1.1-4.4-2.6-7-3s-.7,0-1,0c-.4-9.5-1-19.1-2-28.5s-2.3-14.4-3-21.5,0-.7,0-1c2.5.3,5.7-.4,8,0Z"/>
      <path class="st22" d="M488.7,665.9c7.2-1.4,13,16.6,11.1,22.2s-17.8,2.1-19.7-4.1,1.9-16.8,8.5-18.1Z"/>
      <path class="st26" d="M683,651.8c11.4-.9,19.2-11.9,28.8-.3s7.8,25.9-.1,33-7.3,3-10,4.5c-11.6,6.6-7.1,16.7-11.9,27.1-5.6,12-19.2,14.2-30.7,9.8,1.5,7.9,1.4,16.8,2,25-.1,2.8-6.7,4.6-8,2l-1-31c.9-1.4,2.7-1.6,5.2-.4l-1-21.4c-1.2-3.7-1.2-6.8-.2-9.2,11-9.9,18.4-24.3,24.6-38.1l2.4-.9Z"/>
      <path class="st16" d="M661,750.8c9.3-.7,26.9,3,33.4,10.1,8.1,8.9,2.3,17.7,16.9,24.1s14.2,1.5,24.7.8,5.3.5,7,1c12,3.8,16.3,19.2,12.7,30.2s-6.1,9.2-10.7,10.8-5.3.7-7,1c-15.1,2.5-36.9-3.1-50.7-9.8-12.5-6.1-11.4-16.5-23.3-21.2s-3.9-1.9-6.6-2-4.1,1-4.4,1c-16.5.3-21.8-.8-19.9-19.4,1.4-13.8,6.8-20.8,19.9-24.6s5.6-1.8,8-2Z"/>
      <path class="st34" d="M647,598.8c1.7-.2,4.2,0,6,0,29.3,1.2,38.2,27.9,30,53-2.6,7.8-9,19-13.6,25.9s-8,13.6-13.4,13.1c-2.7,1.3-6.9-3.1-6-6-17-19.7-40.1-44.8-23-72,4.6-7.3,11.1-12.9,20-14Z"/>
      <path class="st33" d="M754.5,654.8c-.4-.1-4.9-4.1-6.5-4.5,4.6-2.1,2.7-15.8,6.5-16.2s14.5,5.3,14.3-1-2.1-4.5-2.7-4.9-6,3-6.9-1,7.1-2.8,8.3-5.6c3.5-8.7-3.1-5.7-4.4-10.3s2.7,0,2-2c-2.4-6.3-12.1,5.9-12-3.1s3.7-.9,4.5-.8c2.7.3,4.6-4.7,5-4.7,0,2.4,3.8,3.4,4.3,4.2.8,1.3-.4,3.6,1.2,5.3s6.2.8,7.1,2.1c-.4,4,1,8,1,11.9s-2.2,7.5-1.9,8.9,2.3,2,2.6,3.2-1.3,2.8-.3,4.4,5.3,2.5,5.6,3.7c.7,2.7-.5,7.3,0,10.3-7-1.3-21.5,1.8-27.5,0Z"/>
      <path class="st33" d="M776.9,573.9c2,1.4-1.4,8.3,0,10.9-5.4-6.4-7.1.2-11.7.8-6.1.9.4-5-3.3-7.8,2.8-1.7,5.8,0,8.1-.4s3.7-5.7,6.8-3.5Z"/>
      <path class="st33" d="M776,598.8c-4,9.5-6.5-1.2-13,1,2.8-4.1,8.9.1,13-1Z"/>
      <path class="st33" d="M784,597.8c-2,.3-1.6.2-2.3-1.2-1.9-4.4.2-7.6,1.3-11.8,1.7-.2.9,2.3,1,3.5.1,3.2,0,6.4,0,9.5Z"/>
      <path class="st33" d="M770,586.8c0,2.3,4.3,12-1,7.3s-.7-9.5,1-7.3Z"/>
      <path class="st33" d="M742,643.8c0-7.4-.8-15.9,1-23,0,7.4.8,15.9-1,23Z"/>
      <path class="st33" d="M758.5,617.8c2.7-.6,3.4,4.4,1,5s-3.4-4.4-1-5Z"/>
      <path class="st33" d="M745,657.8c-.1-1.9-.3-4.4,2-5,1.4,3.6,3.5,5-2,5Z"/>
      <path class="st33" d="M747,586.8v4c-4,0-3.9-4,0-4Z"/>
      <path class="st26" d="M578.2,807.6c-5.4-5.4,3.1-32,15.8-26.2s-1.4,24.7-9,27-5.3.7-6.8-.8Z"/>
      <path class="st35" d="M650,684.8c1.2,1.4,5.2,4.5,6,6,4.3,8.3,1.1,24.8,4,34-.3.3-7.2-2.5-8-3s-.8-.3-1-1c-.5-2.1.3-6,0-8.5s-1-2.6-1-3v-15c0-2.1-2.6-6.4,0-9.5Z"/>
      <path class="st44" d="M554,701.8c-.6,0-.8-.9-1-1l-1-16c7.9,4.6,18.4,17.4,2,17Z"/>
      <path class="st37" d="M470.7,604c12.8-2.9,17.2,8.4,11.5,18.5-4.2,7.4-12.3,8.9-17.2,13.8-6.7,6.6-6.3,21.8-17.5,22.6-12.7.9-13.7-9.1-12.5-19.6s18.6-13.2,25.4-22.6,4.2-11.3,10.3-12.7Z"/>
      <path class="st39" d="M661,790.8c2.6-4.8.1-9.8,0-14.4s1-13.5-1-19.5c11.9-.9,27.6,1.1,33.2,13.3s1.8,11.5,10.1,16.9c14.6,9.6,25.4,2.8,39,6s12.3,21.1,3.7,27.2c-11.9,8.4-46,.4-57.8-7-9.1-5.7-12.4-22.5-27.1-22.4Z"/>
      <path class="st39" d="M654,758.8c-.9,4.4,2.5,30.4,1,31.9s-13.6,2-15.8-1.6c-4.4-7,3-31.4,14.9-30.4Z"/>
      <path class="st28" d="M658,681.8c-16.7-16.3-40.5-42.1-25-66.5,10.8-17,36-11.8,43.9,5.1,9.4,20.4-8.1,44.8-18.9,61.4Z"/>
      <path class="st30" d="M665.6,644.4c-6.6,8.2-23,7-25.3-4.3-4.1-20.3,18.6-31.2,27.5-12.5s2.6,10.9-2.2,16.8Z"/>
      <path class="st27" d="M650.8,626c12.8-1.8,13.3,15.8,4.5,17.6-10.6,2.2-15.1-16.1-4.5-17.6Z"/>
    </g>
  </g>
  <g id="Calque_2">
    <g>
      <path class="st20" d="M206.8,171c-15.4,3.3-32.6,14.6-37.5,30.1-3.6,11.6.7,26.7,15.1,23.1,10.9-2.7,9.7-21,24.9-24.6,7.2-1.7,16.8,1.1,18.9,9.2,3.7,14.2-25,30.4-18.1,51.5,3.6,10.9,18.3,12.8,24.9,3.4,3.3-4.7,3.4-14.1,6.1-20.2,3-6.9,8.8-11.9,12.5-18,19.4-32-15-61.2-46.8-54.4Z"/>
      <path class="st20" d="M226.7,282.3c-14.1,4.9-10.6,29,4.8,29.3,25.6.6,19.5-37.9-4.8-29.3Z"/>
    </g>
    <g>
      <path class="st20" d="M329.9,113c-10.9-2.5-25.5-.2-33.2,8.4-5.8,6.4-7.5,17.5,2.9,19.5,7.9,1.5,12.5-10.8,23.5-8.5,5.1,1,10.6,5.7,9.5,11.5-1.8,10.3-25.2,12.3-27,28.1-.9,8.1,8.1,13.7,15.1,9.6,3.6-2.1,6.4-8.1,10-11.3,4-3.6,9.2-5.1,13.5-8,22.1-15,8.4-44.1-14.2-49.2Z"/>
      <path class="st20" d="M309.8,191.1c-10.6-1-15.4,15.7-5.6,20.4,16.4,8,23.9-18.8,5.6-20.4Z"/>
    </g>
    <g>
      <path class="st20" d="M340.5,262.3c-7.8.9-16.8,5.8-19.9,13.2-2.3,5.6-.9,13.3,6.5,12.1,5.5-.9,5.7-10,13.4-11.1,3.6-.5,8.3,1.3,8.9,5.4,1.2,7.2-13.7,14-11.2,24.7,1.3,5.5,8.5,7.1,12.2,2.8,1.8-2.2,2.3-6.8,3.9-9.8,1.8-3.3,4.9-5.5,7-8.4,11-15-4.7-30.9-20.8-29Z"/>
      <path class="st20" d="M345.5,318.2c-7.2,1.8-6.5,13.9,1.1,14.7,12.7,1.4,11.3-17.9-1.1-14.7Z"/>
    </g>
  </g>
</svg>