<?xml version="1.0" encoding="UTF-8"?>
<svg id="Calque_1" xmlns="http://www.w3.org/2000/svg" version="1.1" viewBox="0 0 1024 1536">
  <!-- Generator: Adobe Illustrator 29.5.1, SVG Export Plug-In . SVG Version: 2.1.0 Build 141)  -->
  <defs>
    <style>
      .st0 {
        fill: #1c1b73;
      }

      .st1 {
        fill: #f1a552;
      }

      .st2 {
        fill: #f4b949;
      }

      .st3 {
        fill: #3f3b75;
      }

      .st4 {
        fill: #55949e;
      }

      .st5 {
        fill: #2b6179;
      }

      .st6 {
        fill: #131465;
      }

      .st7 {
        fill: #181f8f;
      }

      .st8 {
        fill: #f1ad42;
      }

      .st9 {
        fill: #1c1c74;
      }

      .st10 {
        fill: #212077;
      }

      .st11 {
        fill: #31657d;
      }

      .st12 {
        fill: #ef9f4b;
      }

      .st13 {
        fill: #1c3e57;
      }

      .st14 {
        fill: #0d1a36;
      }

      .st15 {
        fill: #464379;
      }

      .st16 {
        fill: #33697f;
      }

      .st17 {
        fill: #5f598e;
      }

      .st18 {
        fill: #e8874f;
      }

      .st19 {
        fill: #ee9e49;
      }

      .st20 {
        fill: #397084;
      }

      .st21 {
        fill: #1b354e;
      }

      .st22 {
        fill: #19354f;
      }

      .st23 {
        fill: #38366d;
      }

      .st24 {
        fill: #2c637b;
      }

      .st25 {
        fill: #e39032;
      }

      .st26 {
        fill: #434077;
      }

      .st27 {
        fill: #474479;
      }

      .st28 {
        fill: #14324c;
      }

      .st29 {
        fill: #1a25a6;
      }

      .st30 {
        fill: #f2b342;
      }

      .st31 {
        fill: #f2a856;
      }

      .st32 {
        fill: #121254;
      }

      .st33 {
        fill: #605f67;
      }

      .st34 {
        fill: #55949d;
      }

      .st35 {
        fill: #1823a7;
      }

      .st36 {
        fill: #ed9c46;
      }

      .st37 {
        fill: #f2b242;
      }

      .st38 {
        fill: #386d82;
      }

      .st39 {
        fill: #222073;
      }

      .st40 {
        fill: #396f83;
      }

      .st41 {
        fill: #d97329;
      }

      .st42 {
        fill: #30677d;
      }

      .st43 {
        fill: #12314b;
      }

      .st44 {
        fill: #101456;
      }

      .st45 {
        fill: #34677e;
      }

      .st46 {
        fill: #f2b241;
      }

      .st47 {
        fill: #1c3d56;
      }

      .st48 {
        fill: #376d82;
      }

      .st49 {
        fill: #fde5b4;
      }

      .st50 {
        fill: #54949d;
      }

      .st51 {
        fill: #d76f27;
      }

      .st52 {
        fill: #1a1974;
      }

      .st53 {
        fill: #fce5b2;
      }

      .st54 {
        fill: #5b5c67;
      }

      .st55 {
        fill: #f09c62;
      }

      .st56 {
        fill: #30677c;
      }

      .st57 {
        fill: #454278;
      }

      .st58 {
        fill: #15344e;
      }

      .st59 {
        fill: #f09b62;
      }

      .st60 {
        fill: #151469;
      }

      .st61 {
        fill: #e8a035;
      }

      .st62 {
        fill: #2b6178;
      }

      .st63 {
        fill: #fde5b3;
      }

      .st64 {
        fill: #e6844c;
      }
    </style>
  </defs>
  <path class="st63" d="M725,1052l-2.3-.9c-2.1-6.8-4.3-13.6-7.3-20.1-7-15.1-12.2-21.2-28.5-25.5l-.8-2.5-2.3.8c-4.7-4.4-9.4-8.8-14-13.3l.2-2.5c4.5-1.4,8.8-.1,13,2l3.9-1.5c29.7,4.5,56.1-8,81.5-20.9,8.9-4.2,18.3-3.1,26.9,1.5,42.2,29.1,42-32.1,9.8-43.6l-1.1-2.5c-17.2-8-35.7-2.9-52.7,3h-2.3s-1.8,2.9-1.8,2.9c-9,4.6-19.8,9.1-29.6,11.8s-8.5,1.1-12.6.3c-9.2.7-18.9,1.3-28-1-.8,2.9-5.3.7-5-2-5.1,2.2-15.4-1.4-17-7-3.4-1.4-4-11.6-2-14-2.5-13.4-4.8-26.7-7-40-2.6.4-2.8-.1-1-2-.6-.6-1.2-1.2-1.7-1.9-2.2-3.2-5.9-34.3-4.5-37.9s.7-1.5,1.2-2.2c-.8-.2-1.6-.6-2.1-1.3s0-15.3.3-17.3l1.8-1.5c-1-2.4.3-3.3,2.7-2.4,26.6,19.1,54.4,36.4,83.3,51.8l3,3.5c8.2,6.7,14,5,22.9,2.2l4.1.8,3-.4c7.7,5.2,15.8,10.2,25,12l2,2.4c12.1.9,23.4.3,35-3,.6-2.9,6.9-8.8,10-8,3.4-4.1,5.6-8.8,6.7-14.1l2.3-.9-1-1.5c5.1-30-19.8-46.3-43.1-58.4-1.5-1.3-2-2.2-1-4.1-1.6-.6-2.2-2.3-1.8-5-.9-1.9-1.9-3.6-3.2-5-2.7-.8-5.4-1.7-7.7-3.3-44.3-30.8-89.2-60.4-134.6-89.3l-2.7-3.3c-5.7-.3-13.6-6.1-16-11l3.6-3c38.3-10.6,73.9-34.1,95.1-67.9l2.3-1.1c1.3-1.5,3.1-1.4,5.3.4l11.1,10c10.5,6.7-9.5-10.4-12.4-11.9v-2.6c0,0-.8-3.6-.8-3.6,4.4-9.9,7.8-20.1,10.3-30.6l2.5-2.7,2.8-1.1c20.5,9.5,20.1,8.6-1.2-2.4l-.6-2.5c-1.9-2.6-1.5-12.2,0-15.4,35.6-42.7,59.6-97.7,67.4-153.6l2.6-5.1c1.2-16.4.9-32.7-1-49l-2.3-.6c-4.7-10.2-21-9-30.6-7.5-56.2,8.8-102.8,36.1-149.7,67.8-25.4-9.7-51.5-18-78.7-21.1l-5.8-2.6c-6.1.9-11.8.6-17-1,0,1.7-.6,1.7-2,0-8.5.9-17.6,1.5-26.2,1s-4.1-.3-6.2-2.8c-26.2-45.3-58.5-87.6-97.6-121.3l-2,.7c-8.9-6-13.9,4.5-16.4,11.8-8.7,25.1-16.3,49.5-19.2,76.2l-2.5,3.4c-2.1,25.9-3.3,52-3,78l2.4,5.1c1.7,13.8,4.2,27.3,7.5,40.5-4.1,9.3-7.8,18.9-11,28.7l-2.9,2.7c-1.4.4-2.8.4-4.3,0-16.7-4.4-32.5-6.7-49.7-7-7.2-1.3-2.3,3.8,3.5,2.6l.5,1.4c16.3.2,34.1,2.5,49,9,.9,3.4.6,7.3-.9,11.6.1,4.7-.9,8.5-3.1,11.4-2.1,2.2-4.7,2.2-8,0-.2.9-.5.9-1,0-8.9.9-17.9,1.6-27,2l-1,1.8c-4.3.8-8.1,1.4-12,1.2-6.4.6-8.6,2.1-6.5,4.5,17.1-3.6,34.5-4.8,51.9-5.6l3.6,2.1,1.9,3.9c-1,58.6,39.4,104.9,91.9,126.6l3.2,3.6c-.2.9-.6.8-1,0-11.3,1.2-22.9.8-34-1-9.6-1.7-18.9-4.6-28-8l-2.6.2c-18.9-9.5-36.8-20.3-54-32.4-3.9-1.9-4.3-2.1-8.2-1s-1.6-.1-2.3-.7c-.8.2-1.7.2-2.3-.5-15.9-20-38.7-45.7-66-45.1l-1.7-1.4-3.8-3.9c-21.8-38.3-43-76.9-63.6-115.9l-1.6-5.2-1-2.1c12.2-14,8.2-34.6-12-36-29.1-2-29.8,40-2.3,42.1l1.3,1.9c2.8,3.2,5.6,6.5,7.6,10.2,16.7,33.8,33.4,67.6,49.6,101.7s1.6,3.9,2.2,5.9,1.2,4.1,1.6,6.2l-.2,2.4c-5.7,3.4-10.2,8.8-12.5,15l-2.3.6c-1.3,9.9-.3,18,3.6,27.2-.7,1.4-.9,3-.6,4.8l3,2.4c9.6,24.9,30.9,42.5,52.4,57.1l1.6,3.5c.2,1.9-.4,4-1.8,6.4,0,8.8,31.8,31.9,38.9,37,13,9.2,26.6,17.5,40.5,25.1l2.4,3.5c8.6,3.7,17.2,7.5,25.9,11.5,4.1,0,9.3.7,11.6,4.1,3.5.2,6.4,1,8.5,2.4.3,1,.7,1.9.8,2.9.9,5.1-4.2,25.3-5.9,32.1s-1.7,3.5-2.9,5c.9,8.2.4,16.6-1.5,25.4,0,7-1.1,13.6-3.5,19.6l1.3,1.7c-.7,3.3-1.1,6.7-1.3,10.3-.6,3.3-.8,6.6-.5,9.9,2.4.4,1.8,1.4-.5,2.1.5,21,1.2,42,3,63,1,1,2.1,2.1,2.5,3.4,1.9,6.6,4.1,16.4,2.5,22.6,2.4,8.6,4,17.3,5,26,1.4,1.4,2.6,2.9,3.3,4.8,3.5,8.9,7,20,7.7,29.2,4.3,11.3,8.3,22.7,12,34l2.6,1,8.4,19.5-1,2.5c-67.2-14.9-132-42-186.9-83.6C45.8,864.8-6.1,600.4,126.2,393.7c87.9-137.3,231.7-208.8,394.2-206.6,273.7,3.7,477.5,238.2,447.5,510.3-16.4,148.3-110,287-242.9,354.6Z"/>
  <path class="st29" d="M687.6,1039.8l-2.6,2.2c-1.6,16-11.5,30.6-24.4,39.8l-2.6-.8c-1.8,1-4,1.5-6,2-2.6.5-20.5,3.2-19-.7.2-.5.6-.9,1-1.3-17-3.2-35.1-8.2-50-17-.8.1-1.6.2-2.4.1-.8,0-1.5-.1-2-.5-28.7-18.5-46.5-50.3-59.4-81-1.5-.4-2.2-.8-2.3-2.6-.3.9-.7.9-1,0l-3.1,1.4c-19.8-3.5-38.6-10.2-56.6-19.7,17.7,16.8,35.3,33.5,56.6,46.7l2.1,3.5.4,9.1.6-1.1c2.6,6.1,4.2,12.9,4.7,20.3,2.4,7.1,3.5,14,3.3,20.7,1.3,6.4,3.4,12.7,6.4,19,3.5,7,3.4,12.4-.4,16,2.6,0,2.7,1.2,1,3,1.5,3.1-3,4-4,1-18.5,16.1-43.1,25.8-68.1,25.2l-2.9-2.2c-5.6-.5-12.5-2.5-16.6-6.4-3.8-3.5-11.8-16.7-14.4-21.6-3.3-6.3-7.1-16.2-10-23-3.5-11.2-7.5-22.5-12-34-4.2-11.2-8.1-22.4-11-34-1-9.3-2.7-17.9-5-26-1.7-8.7-3.9-17.2-5-26-1.8-20.8-2.5-42.1-3-63,0-3.8.2-5.5,1-12,.3,3.1.5,6,.9,8.8-.6-6-.7-12.9.1-18.8,6.2,1.7,12.6,3.4,19,5l4.4-.9c14.1,4.4,28.3,7.4,42.6,8.8l1,2.1,2-.6c15.7,6.5,34.8,8.9,51.9,7.2,2.1-1.8,3.8-2,5.1-.6,1.1-3.5,7-2.8,6,1,4.4-.2,9.1-.2,13.5,0,1.3,0,2.6,1,3,1h25c.4,0,1.7-1,3-1,4.8-.2,9.8-.1,14.5,0l.9-2.1,36-5.1c5.5-1.8,10.9-2.4,16.2-1.7,5.6-4.2,12.1-5.9,19-5,0,.3.8,1.1,1,2,2.2,13.6,4.5,27,7,40,.8,0,1.9,11.8,2,14l2,2.6.2,27.3c.7,12.6,1.6,18.4,13.1,24.8l-.3,2.3c3.5,3,14,13.8,16,15l2,2.6c1.2,11.5,1,22.9-.5,34.2Z"/>
  <path class="st49" d="M528.8,1260.2c45.4.3,144,2.9,183.8,20.6,30.3,13.4-8,26.1-21.6,29.7-67.8,17.7-160.4,15.1-230.5,12.4-39.5-1.5-99.6-3.4-135.8-18.2-43.7-17.8,12.7-29.6,29.9-32.6,54.3-9.8,119-12.2,174.2-11.9Z"/>
  <path class="st4" d="M532,1099c2.7-1.2,4.9,1.6,3,4,11.1,27.7-14.1,96.1-40,112-1.5-.7-2.3-.6-2,1-8.4,4.2-11.9,4.8-21,3-3.2-1.4-5-3.3-5.8-6.8-.4,2.1-1.5,3-3.2,2.8-5.3-4.4-8.3-10.6-9-17.5-1.9-18.8.4-40,2-58.5,28.5-1.9,52.8-19,72-39,1.3-.4,3.2,0,4-1Z"/>
  <path class="st53" d="M518,980c1.4.3,3.2.4,4.1,1.7,12.7,31.2,32.1,64.8,61.9,82.3,16,7.3,32.8,13.1,50,17,0,.5,0,.8.5,1,5.8,1.3,11.6,1.1,17.5,1-6.8,1.5-10.2,2.7-16.7,4.8-15.3,4.8-31.2,6.9-46.9,10.1l-53.4,5.1c-.4-1-2.5-2.9-3-4s-1.2-2-1-3c3.8-3.6,3.9-8.8.5-15.6-3-6.4-5.2-12.8-6.5-19.4-4.1-13.2-7.2-27.4-8-41-1.1-13.2-.5-26.9,1-40Z"/>
  <path class="st4" d="M725,1052c6.9,24.1,14.8,73.6-23,74-3.3-1.3-6-3.7-8.2-7.2,1.7,2.7,1.8,4.8.2,6.2-14.2-3.5-23-21-30-33l-.5-2.4c6.3-5.2,11-10.9,13.8-18.8s6.1-19,7.7-28.8c3.4-13,1.1-25.8,1-39,4.2,2.6,12.1,3.6,17.3,7.2,10.2,7,18.3,29.9,21.7,41.8Z"/>
  <path class="st40" d="M528,1100c-2.1,4.4-6,8.6-9.5,12-15,14.4-38.3,26.4-59.1,28.9s-3.9,1.1-3.4-1.9c.4-5.3-.3-10.7,1-16,16.4,1.4,34.5-3.2,49-10.5s15.1-10.4,22-12.5Z"/>
  <path class="st20" d="M685,1042c.2,11.3-2.8,24.3-8.1,34.4-1.2,2.3-1.2,2-2.3,4.6s-8,8-10.5,11.1c-2.1-3.6-4.3-7.2-6-11,12.3-6.6,23.5-25.8,27-39Z"/>
  <path class="st8" d="M818.7,1089.4c5.4,3.5,5.1,13.8-2.1,14.7-18.2,2.4-10.6-22.9,2.1-14.7Z"/>
  <path class="st56" d="M495,1215c-.6.4-1.3.7-2,1-6.9-2.6-9.1-15.5-4.5-21,.4,7.4,3.4,13.5,6.5,20Z"/>
  <path class="st45" d="M694,1125l-4.8-12.7.7-5.3c1.9,7.3,7.9,12.9,12,19-3.7,0-4.7-.2-8-1Z"/>
  <path class="st16" d="M463,1215c.5-1.7,1.9-5.2,1.9-6.6s-3.1-1.1-2.6-5.7,1.3-5.5,2.8-5.7c-.7,6.2,2.1,11.8,4.1,17.4l2.9,4.6c-4.9-1-4.9-.6-9-4Z"/>
  <path class="st4" d="M400,246c17.2,13.4,28.4,33,38.3,52.2,12.4,23.9,22.3,49.9,27.4,76.4s0,0,0,0l32.3-7.1s0,0,0,0l2.9,2.3s0,0,0,0c4.3.2,8.6.2,12.9.2s7.9-.4,11.8,0,.3,0,.5,0c1.1.1,2.3.2,3.3-.2.3-.1.6-.4,1-.5,2-.9,4.7-.2,6.7,0l7.6.5c11.9.9,23.7,2.5,35.3,5.1s23,5.8,34.2,9.7,12.7,4.6,19,7.2,0,0,0,0c41.6-28.4,90-58,140.5-66.5,10.1-1.7,21.3-3.9,31.4-1,4.5,1.3,9.1,4.2,10.5,9,2.4,8.3,1.9,18.9,1.9,27.5,0,4.3.3,9.2,0,13.6s-.3,6.9-.7,8.6c-5.4,51.5-28.3,106.3-58.6,148-2.2,3-9,9.5-9.9,12.1-1.5,4.4.4,9.5-1.5,13.9s0,0,0,0l-3.9.5s0,0,0,0c-27.3-11.5-55.3-16.6-84.8-17.2-6.7-.1-23.8,2.6-7.6,2.9,16.5-.4,31.9-.6,48.9,2.9s39.8,9.7,44.9,14.9,1.1,1.3,1.6,2.1,0,0,0,0c-1.8,13.1-7.5,24.7-12,36.9s0,0,0,0l-4.4-.8s0,0,0,0c-24.4-17.7-52.7-32.2-82.3-38-7.3-1.4-.1,3,3.7,3.4,15.5,3.7,29.9,7.9,44.6,15.3s30.2,16,33.4,21.7.7,1.6,1,2.4,0,0,0,0c-.2,2.5-1.9,4.3-3.2,6.3-22.4,32.9-59.4,56.3-97.8,65.7,0,0,0,0,0,0-.5.7-1.1,1.3-1.8,1.8-5,3.9-38.4,5.8-46.9,5.9s0,0,0,0l-4.3-1.7s0,0,0,0c-6.1,2.3-13.2,2.2-19.7,2.1-24.4-.7-56.6-2.8-79.8-9.8-.8-.3-1.6-.7-2.3-1.3s-1.4-1.2-2.1-1.9,0,0,0,0c-.5.7-1.1,1.2-2,1.4-1.3.4-22.8-7.6-24.4-8.4,0-1.1-.7-2.1-1.6-2.5-27.2-11.6-52.9-28.4-70.8-52.2-17.1-22.9-26.7-52.6-25.2-81.3s0,0,0,0l2-1.9s0,0,0,0c8.8,1,55.8,4.4,21.9-.8,0,0,0,0,0,0l-21.4-1.2s0,0,0,0l-2.4-2s0,0,0,0c.3-7.6,1.4-15.9,4-23s0,0,0,0l3-1.2s0,0,0,0c11.6,3.6,22.9,7.6,34,11.9,1.6-1-31.9-14.3-34.3-14.1s0,0,0,0l-1.8-2.6s0,0,0,0c1.7-5.4,3.2-10.9,5.2-16.2s6.6-13.3,6.7-15.3-3.9-14.9-4.7-19.3c-1.5-8.7-2.7-17.4-3.3-26.2s0,0,0,0c-.3-25.9.9-52.2,3-78,3.2-25.1,10.3-58.9,20.5-82,3.7-8.4,6.8-16.2,17.8-11.8s1.4,1.6,1.7,1.8Z"/>
  <path class="st17" d="M382,653c9.1,3.4,18.4,6.3,28,8l5,1c15.8,9.9,31.6,19.9,47.6,29.9,3.5-2.2,7.5-2.4,6.1,2.8,4.4.9,7.1,2.6,8.2,5.3l1.8,1.7c3.9,17.2,8.9,34,15.1,50.5,10.4-15.4,24.2-28.3,38.4-40.6l4.7-1.6c.2-.9.5-.9,1,0l5.9-2.2c24.4-1.5,49.4-6.2,71.6-14.8l25.4-6.9,4.1.9c46.8,30.2,101.4,62.2,145,96,4.4,2.8,3.1,5.3-4,7.7l-3,2.3v2.4c-17.6,16.8-34.4,43.6-37,67.6,1.3,1.3.6,2.6-2,3.9.9.7,1.9,1.9,1.6,3-1,3.7-14.7-1.4-16.6-3.9-27.8-12.2-59.5-35.4-85.3-52.2-.9-.6-3.1-3-3.7-.8h-2.2c-8.1-7.2-16.1-14.4-24.2-21.7-.9,1.1.9,24.6,3.6,27.8-2.3,1.6-.7,11.2,0,13.5,3.1,1.3,2.7,3.3,1.4,6.1-7.9,1.5-15.8,2.7-23.7,3.4-27,3-54,3.7-81,2-18.5-6.4-40.4-7.4-60-8-.7.5-1.3.9-2.1,1.3-7.9,3.5-52.6-10-62.7-14.1l-3.2-3.1c2.1-13.5,5.6-26.6,8-40l-1.9-1.2c-8.5-.7-10.8-2.8-6.9-6.4,2.8,0,7.8-.3,9.7-2.3s8.7-33.9,9.2-37.5c-2.9,9.5-15.5,46.1-30.5,40.9-8.6-4.2-17.2-8.1-25.7-11.5-24.3-12.8-54.5-32.3-74-51.5-6-5.9-15-13-6-20.5,11-8.5,19.9-22.6,27.3-34.9s11.4-20.8,15.9-31.7l3.9-4.4c3.2-2.9,5.7-2.4,9.4-.9,7.9,3.1,21.4,14.3,29.7,19.3s18.5,11,27.9,15.6Z"/>
  <path class="st4" d="M828.7,968.2c-1.8,6.1-5.6,10.4-12.2,10.8-12.6.9-22.7-13-38-12.1-9.9.6-26.9,11.8-37.3,15.8-20,7.7-37.2,10.5-58.2,7.2l-6.2-2.5c-3.6-15.6-6.8-31.3-9.6-47.2,0-2.2,3.1-2.2,4.8-2.2,1.5.4,4.7,2,5,2,.7.1,1.4.2,2.2.3,8.5,1.2,17.3.2,25.8.7,4.1-1.5,8.7-1.4,13-2.5,11-2.7,20.6-8.6,31-12.5,16.9-6.3,38.2-12.5,55-3,18.2,6.1,30.5,26.2,24.7,45.2Z"/>
  <path class="st34" d="M315,619c-10.1,26.5-25.2,51.5-44,72.5-.8.6-2.1-1-3-1.5-23.6-15.6-48.1-35.5-57-63-.8-4.5.1-5.8,2.6-3.8-7-8.3-6.6-18.1-5.6-28.2,1.8-6.9,8.4-15,15-18,1.5.8,2.8,1.8,3.9,3.2,7.6,15.8,15.9,31.2,24.5,46.5s5.2,9.1,8.8,9.3c9.2.4-6.1-11.2-8.6-12.2-7.2-6.5-11.2-21.9-5.3-30.2s5.9-6.6,8.7-3.7c.8-.3.4-.7-1-1h-2.4c-1.8-1.4-8.6-14.7-6.6-17,4.1-2.1,9.5-.4,13.8.7,20.7,5.3,38.7,24.1,52.2,39.8,1.5,1.8,3.5,4.2,4,6.5Z"/>
  <path class="st4" d="M840,857c-2.5,4.1-4.5-1-4.7-4.2l-2.9-4.5c5.1,8.1,6,16.2-1.4,23.7-3.3,3.3-5.4,6-10,8-10.4,4.6-23.9,4.9-35,3-12.7-2.2-20-7.5-30-14-3.8.2-10.6-1.6-10-6-3-2.4-2.4-3.1-1.5-7,3.3-15.8,24.6-54.7,38.5-63,3.7-4.6,8.5-4.4,12,0,1,.5,1.6,2.3,2.6,2.8,24.1,12.7,50.1,29.6,42.4,61.2Z"/>
  <path class="st43" d="M176,447c24.7,40.7,45.3,83.8,69,125s5.7,12.9,9,17c.9-.2,1.2.1,1,1-13.7,3.6-10.7,23.2-3,31.5s20.3,11.5,9.9,16-9-4.5-11.1-7.9c-10-16-19.3-35.9-27.8-52.7-20.9-41-39.6-83.2-61-124,.4-2,2.5-3.4,6.5-4.2,3-2.1,5.6-2.7,7.5-1.8Z"/>
  <path class="st37" d="M454,836c.6.5,1.2,1.3,1,2-4.1,13.8-6.1,27.3-4.4,41.8l-1.6,2.1c-1.3-.4-4.4.2-6.4-.1-15-2.7-27.1-6.1-41.6-9.9-6.2-1.2-12.3-3.1-18.3-5.6-.8,1.7-1.3,1.2-1.7-1.4.6-15.1,2.7-30.3,5-45,22.1,7.1,44.5,15.4,68,16Z"/>
  <path class="st11" d="M530,369c1.5,2.5,1.5,2-1.2,1.7-11-1.2-20.7,1.9-30.8-1.3l-33.9,7.6c-2.6-16.9-8.3-33.9-14.7-49.8-11.7-28.9-27.8-58.7-49.3-81.2,18.6,11,34.1,30,48,46.5,20.1,24,38.1,49.4,53,77,9.7-.2,19.3-.7,29-.5Z"/>
  <path class="st36" d="M825.5,660c5.8,7.2,4.3,17.4,7.7,26.2s9.7,13.2,17.9,17.1c3.7,1.8,22.3,5.8,14.6,9.8-4.3,2.2-10.1,2.6-15.4,5.6-17.6,10-13.5,24.2-19.8,39.2s-3.6,6-5.6,1.6-3.1-16.2-6.4-23.6-8.4-13.8-16.8-17.2-23.2-5.2-14-10.7,11.9-2.3,17-5c11-5.7,16.3-19.3,18.2-30.8.7-4.2-1.3-9.1,2.6-12.4Z"/>
  <path class="st12" d="M262.6,367.4c-5.8-5.8-14.7-5.9-20.6-9.9s11.1-8.5,14.6-10.3c7.5-3.7,11.2-10.7,13.6-18.4s3.8-24,4.8-24.7c2.1-1.4,4.6.7,5.4,2.9,5.2,14.2,2.7,29.8,18.3,39.7,3.3,2.1,16.5,5.4,15.1,9.8s-11.4,4.1-14.3,5.8c-15.4,8.8-12.6,28.5-17.6,42.4-6.5,17.7-9.4-13-10.5-17.6s-4.2-14.9-8.9-19.6Z"/>
  <path class="st19" d="M218,757c2.5,3.6-10.6,7.6-13.3,9.2-8.3,5-11.8,11.6-14.2,20.8s-.8,16.6-6,22c-2.8,0-7.1-23-8.7-27.2-3-7.6-7-12.8-14.2-16.8s-10.4-3.5-11.5-4.5-1.9-3.9.2-4.8c3.8-1.6,9.6-1.2,14.5-3.5,7.7-3.6,10.8-10.5,12.7-18.3s1-14.1,2.7-18.3c4.5-11.1,7.9,12.6,8.5,14.5,3,9.9,8.5,19.4,18.3,23.7,2.2,1,10.9,2.8,11.2,3.3Z"/>
  <path class="st46" d="M176,447c-2,1.9-11.3,5.8-14,6-9.7.9-21.1-8-22.8-17.7-6.9-40.7,56.4-35.5,42.8,2.3s-5.6,9.1-6.1,9.4Z"/>
  <path class="st15" d="M629,676c5.7,3,10.7,7.5,16,11l-29.9,8.1c-.4,6.1-1.1.8-1.7.8-1.9,0-10.5,3.8-13.4,4.6-19.1,5.1-42.4,9.2-62,9.5-.5-.6-1-1.7-.6-2,7-5.8,26.4-21.3,33.5-24.7l5.1-1.3c18.3-1.2,34.9-1.6,53-6Z"/>
  <path class="st1" d="M847.5,533c3-.7,4,7.9,5,10,2.6,5.6,7.1,11.4,12.6,14.4,3.5,1.9,7.4,2,9.9,5.1-7.9,5.7-15.9,6.4-20.5,16.5-1.5,3.3-2.6,14-6,14s-4.7-9.7-6-13c-4.2-10.4-10.6-11.4-19.5-16.5,4-5.8,11-5.5,16-12s7.5-18.3,8.5-18.5Z"/>
  <path class="st27" d="M415,662c9.6.8,19.3.8,29,0,.3,0,.7,0,1,0,6.7,1.1,19.1,6.9,27,9,2.1,5,3.5,10.4,4.3,16.4,1.9,4.6,2.5,8.7,1.7,12.6-.3.9-.7.9-1,0-2.6-1.1-10.4-3.6-12-5s4-1,2-3-3.3,2.3-5.4,2.1-.7-1.7-1.3-2c-14.9-8.4-28.4-16.3-42.4-26.4s-3-1.4-2.9-3.6Z"/>
  <path class="st61" d="M643.8,874.5c-1.1,1.7-3.4,2.6-6.1,3.3-3,.8-6,1.6-9.1,2.1-9.7,1.9-10.7-6.2-11.6-13.4-.6-4.4-1.9-10.2-2.9-15.1-.9-4.2-1-8.8,2.3-11.9,3.7-3.5,10.8-6,16.3-7.1,6.2-1.4,8,2,8.4,7.6.7,7.3,1.5,15,2.6,22.4.4,4.2,2.1,8.9.2,11.9h0Z"/>
  <path class="st57" d="M640.8,813.1c.9,2.5.9,5.5.8,9-.1,2.7,0,5.7-.6,8.3-1,4.4-6.1,5-9.9,6.3-3,.9-6.1,1.8-9,2.7-7.2,2.3-12.9,5.5-20.4,5.5-1.4,0-9.5-1.8-7.5-2.6s9.3-1.3,13-2c3.6-.7,10.1-.6,8.9-4.5-.9-3.3-1.9-6.8-1.8-10.4,0-4.3,0-8.6-1.2-12.8-1.6-6.2-1.4-12.8-1.8-19.1-.7-9.7,4.2-4.9,8.9-.3,3.9,3.9,7.6,6.8,12.3,10.5,3.2,2.6,7.2,6,8.2,9.3v.2Z"/>
  <path class="st38" d="M672,938l-3.1,2.4c4.1,13.9,5,28.7,8.6,42.6s1.4,6,6,5.9l-.5,1c-4.3-.7-8.7-1.3-13-2-4.5-3.8-10.8-6.4-12.8-12.7-3.4-10.7-1.6-32.4-2.2-44.3,5.5,4.1,10.6,5.3,17,7Z"/>
  <path class="st47" d="M747,557c3.9,1.7,11.7,5.9,15.3,8.2s5.1,2.6,4.7,4.3c-.9,4.4-10.5-2.4-12.6-3.3s-5.6-2-8.4-3.1c-22.9-9.2-44.5-16.5-69.5-18-5.3-.3-31.5.9-33.5-.5-3.7-2.5,1.5-5.2,4.5-5.5,30.3-3.5,71.7,5.7,99.5,18Z"/>
  <path class="st13" d="M734,600c3.7,2.8,15.1,11.3,17,14.5s.1,5.5-3.4,3.4-8.9-8.3-12.7-11.3-4-1.9-4.9-2.6c-17.1-12.9-33.5-22.8-54-30.5s-23.6-5.6-31.7-9.3-2-1.3-2.8-2.2c1.1-5.1,7.2-2.5,10.7-1.7,28.5,6.2,58.9,22,81.8,39.7Z"/>
  <path class="st26" d="M348,762c.6-2,3,0,4,.5,7.2,3.5,14.3,7.3,21.7,10.4,8.6-1.7,13.5-6.7,17.5-14.2,8-15.1,13.3-34.4,19.5-50.5s.6-2.9,2.3-3.2l-16.5,67.1c-4.3,1.4-6.7,3.2-11.5,1.9,1.1,1-.1,2.9,0,2.9.3.2,6.8,1.2,7.5,1.1l1-3c2.3,1.6.8,3.1.5,5-16.2-2.7-31.6-10.4-46-18Z"/>
  <path class="st21" d="M299,486c17.8-.9,36.9,2.3,54,7s20.5,6.6,29,10.5,7.6,2.7,10,6c-.8.8-1.6,2.1-2.7,2.4-1.9.5-20.4-8-24.3-9.3s-8.7-2.3-13-3.5c-17.9-5.2-30.5-6.9-49-9-1.1,0-1.9-.4-1.9-1.5-8,.8-8.1-4.5-2.1-2.5Z"/>
  <path class="st31" d="M249.7,840.2c15.9-3.3,18.7,21.6,1.8,21.2s-13.7-18.8-1.8-21.2Z"/>
  <path class="st22" d="M348,522c9.3.2,21.4.5,30.4,2.1s6.7.6,8.6,3.4c0,2.7-2.5,2.4-4.5,2.6-8.9.5-24.4-1.8-34.5-2.1s-19.6-.9-29.5,0-18.3,3.9-26,4-2-2.8-1.4-3.9,6.2-1.2,7.9-1.1c13.5-1.2,27.1-2.3,41-3.2v-1.8c2.7,0,5.4,0,8,0Z"/>
  <path class="st42" d="M831,872c9.7-13.2-2.2-26.2-11-36,7.2,2.4,13.4,9,16.9,15.6s0,5.5,3.1,5.4c-1.8,7.5-3.9,9.8-9,15Z"/>
  <path class="st33" d="M299,486c-1.1,0-3.3-.7-3,1,16.2,0,32.7,1.6,48.5,5.3s.2,1.3,1,1.5c1.9.5,5.5.7,7.5.3.3,1.1-.3,2.5-1.5,2.7-2.6.4-12.7-3.6-16.2-4.3-9.3-1.8-20.3-2.9-29.8-3.5-1.8-.1-2.9-2.4-2.6,1.1-2.5-.3-8.3,0-9.5-2-1.8-2.8,3.9-4.4,5.5-2Z"/>
  <path class="st54" d="M340,522l4,2-1.5,1.6c-16.8.1-33.6,1.5-50,5.4v-1.8c1.7,1.6,1.3-1.1,2.1-1.2,1.6-.2,5.1,1,7.4,0,.3-1.7-1.9-1-3-1,3.6-1.4,9.3-2.8,13-3,9.1-.4,18.1-1.1,27-2,.3,0,.7,0,1,0Z"/>
  <path class="st24" d="M208,595c1.9,3.4-.3,7.3,0,11.5.5,6.8,6.5,14.9,10.6,20.4s5.4,4.2,3.9,6.1c-3.3-4-10.6-3.8-10.5-10l-1,4c-3.5-10.8-6-20.3-3-32Z"/>
  <path class="st3" d="M756,869c-9.6,3.1-19.1,5.2-27-3,3.7,1.6,9.4,4.5,13.1,4.5s2.9-.6,1.4-1.5l-4.5-1,7-5c2.9,2.4,7.1,4.1,10,6Z"/>
  <path class="st9" d="M380,889l3,63c-2.6-20.9-3.1-42-3-63Z"/>
  <path class="st23" d="M795,793c0,0-.6.7-1.7.3-4.8-1.8-5.2-3.4-10.3-.3,1.3-2.1,3.2-3.9,5-5.5,2.8-2.3,5.8-.1,2-4.5,4.2,3.3,6.1,2.2,5,10Z"/>
  <path class="st60" d="M653,917c0,0,.1,1.2-1,1-.3-12.3-4.3-24-6.6-36s-1.3-4.1.6-5c2.3,13.3,6.8,26.4,7,40Z"/>
  <path class="st44" d="M444,662c-5.7,3.5-13.5,1.2-19.5.9s-4.4,1.3-5.9,1.1,0-1.4-3.6-2-2.8-.4-5-1c11,1.1,23.5-.1,34,1Z"/>
  <path class="st7" d="M401,872c-.1,0-.8,1.2-3,.6-5.4-1.5-10.6-4.1-16-5.6v20h-1c0-3.3,0-6.7,0-10s-.1-8,0-12l20,7Z"/>
  <path class="st0" d="M416,1072c-4.6-10.9-9-22.6-12-34,3.6,9.7,8.4,19.6,11.9,29.6s2.3,3.4.1,4.4Z"/>
  <path class="st10" d="M410,661c-11.1-1.1-18-3.1-28-8,9.4,2.4,18.6,5.5,28,8Z"/>
  <path class="st14" d="M339,522c.4,3.6-1,1-2.6,1.1-7.9.4-17.2.4-24.4.9,9-.8,17.9-1.8,27-2Z"/>
  <path class="st52" d="M393,1004c-2.2-8.6-3.3-17.3-5-26l1-.5c.8,7.3,2.9,14.5,4.4,21.7s1.6,3.9-.3,4.8Z"/>
  <path class="st30" d="M617,840c2.6,1.4-1,.1-1,2.4-.1,11,4.3,21.4,4.2,32.5,0,0,1.6-.8,1.8-1,.1,1.3.1,2.5.2,3.8,0,.3,0,.5.1.8.3.6,1.2.6,1.9.6s1.6.2,1.6.9c-5.2,1.3-10.4,2.7-15.7,3.6,0,0-37.2,5.3-37.2,5.3-5.8.6-12,1.3-17.5,1-7.9.8-17,.8-25,0-5.3.1-10.8-.2-16.5-1-.8-1.4-4.6-1.3-6-1l-1.3-2.9c3.9-12,5.4-24.4,5.2-37l2.1-3.1,3-1.1c26.3,1.6,52.7.7,79-.9,7-.8,13.9-2.6,21-3Z"/>
  <path class="st41" d="M514,844c.9.3.9.6,0,1-.4,7.3-.1,15.1-1.1,22.4-.9,6.6-3.2,14.1-4.9,20.6-1.7.4-2.8,2.6-6.5,3-12.5,1.5-39.4-2.3-50.9-7.2-.9-.4-1.5-1.8-1.6-1.8-2.3-8.1-.2-40.2,5-46s4.1-2.1,6.5-2.1c10.7.2,27.9,2.6,38.9,4.2,4.4.6,13,.9,14.6,5.9Z"/>
  <path class="st32" d="M516,1012c-11.1-6.2-20.9-14.9-31.3-22.2l-38.7-35.8c2.7,1.4,5.5,2.7,8.3,4,10.6,5,26.5,13.4,39,16.3s3.4.3,5.8-.4l-1,2c6.2,1.8,12.7,2.5,19,4,.4,10.6-.3,21.4-1,32Z"/>
  <path class="st6" d="M517,1020l-1,5c0-4.3,0-8.7,0-13,0-10.7-.4-21.4,1-32,.3,0,.7,0,1,0,.5,13.4-1.8,26.6-1,40Z"/>
  <path class="st39" d="M531,1096c.1-.7,1.7-1.9,2-3.5,1.4-7.9-5.6-18.9-8-27-.4-1.3-1.9-3.6,0-4.5,2.1,6.9,11.2,26.7,9.6,32s-1.6,3-3.6,3Z"/>
  <path class="st55" d="M679,416c18.5-24.5,80.5-67.3,111.5-68.1,5.9-.1,8.5,1.4,9.4,7.6,2.1,14.2-1.3,34.3-4.4,48.4-8.3,38.4-26.2,76.7-53.5,105-4.2-17.5-12.7-34.7-23.2-49.3-2.4-3.4-6.2-8.7-8.8-11.7-1.2-1.9,0-2.8,1.8-3.6l21.2-8.1c.4-.8-4.3-3.7-5.2-3.9-4.2,1.6-20.6,0-14.5-6.7,3.6-1.1,28.2-11.8,27.7-13.9s-2-4.2-4.9-3.4c-17.7,3.1-35.5,6.6-53.5,10.3-2.4.3-4,0-3.5-2.8Z"/>
  <path class="st59" d="M433.8,364.7c-.3,1.5-3.6-3.1-5-3.5-5-3.4-9.1-5.4-14.7-7.2s-1.2,3.2,0,3.7l12.9,15.1c2.5,4.7-1.6,6.4-5.7,3.7-3.8-3.4-7.9-4.9-12.5-4.5,5.8,6,11.9,11.8,18.4,17.3l6.7,2.6c-22.7,10.3-39.3,26.7-52.9,44.1-5.9-30.2-6.6-61.8-4-92.5,1-12,3.2-25.7,5.5-37.5s5.8-26.4,7-28c2.5-3.2,7.2,3,8.9,5.1,13,15.9,29.9,61.3,35.4,81.6Z"/>
  <path class="st43" d="M503,538c0,8.1-4.1,13,3.7,18.8,13.4,10,32.7,8,47,1.4s13.5-10.5,14.4-.7c1.1,12.1-21,41.1-30.8,48.4-33,24.7-51.6,10.5-64.5-23.1-1.9-5-4.3-17.5-6.3-20.7s-8.3-4.9-11.4-8.6-10.1-18.2,0-17.5c-.4,19.3,21.4,26.7,37.2,18.7,8.3-4.2,4.7-8.5,6.3-16.8-8.6-4.6-21.4-11.6-19.4-23.4s27-7.5,34.9-5c32.1,9.9,10.1,27.4-11,28.5Z"/>
  <path class="st48" d="M576,682l-38,28c-.3,0-.7,0-1,0-9.2,3.4-21.6,1.6-31.3,0-8.6-1.4-17-3.7-25.1-6.8l-2.6-3.1c-2.7-6.7-4.2-14.6-5.7-21.8s-1.7-5-.3-7.2c25.1,6.8,55.4,10.1,81.4,11s15.2-.7,22.6,0Z"/>
  <path class="st18" d="M679,416c1.7,1.4,3.1.8,5,.6,11.5-1.4,22.3-4.7,33.2-6.9s23.3-5.1,24.8-2.7-.9,1.9-.9,2.5,2.7-.1,1.7,2.8c-1.5,4.6-24.4,13.6-29.9,15.7,3.4,3.7,10.5,3,15.1,2.5l8.9,5c-2.3,4.8-22.2,7.9-27,12.5-9.2-10.5-21.9-20.3-33.5-28-.6-.8,1.8-3.1,2.5-4Z"/>
  <path class="st58" d="M592.8,480.3c14.4-2,26.6,8.1,31.3,21.2,1.9,5.3,7.1,24.3.9,27-9.5,4.3-8.5-8.9-10.1-14.9-6.3-23.5-23.4-29.2-36.7-6.9s-3,11.6-8.2,9.9c-9.2-3-2.6-14.2.6-19.5,4.7-7.8,12.7-15.5,22.2-16.8Z"/>
  <path class="st28" d="M455.2,496.8c-1.5-1.5-1.4-8.5-2.1-11.4-3.8-15.5-17.2-20.6-26.3-6-2.4,3.9-7.2,20.5-13.4,13.7-4.3-4.7,1.2-15.3,4-20.1,16.1-27.4,46.6-11.8,46.6,17.5,0,5.2-5,10.1-8.8,6.2Z"/>
  <path class="st64" d="M429.6,392.8c-5.4-.7-9.8-5-13.7-8.6-3.6-3.5-9.4-7.1-9.1-11.2,1.3-2.9,6.2-1.4,8.8-.9,2,.3,6.7,2.6,7.7,1.2.3-.7-.8-2.8-2.7-5.3-2.6-3.5-6.4-7.3-8-11.5-1.6-4.1.2-5.9,3.4-5.8,3,.3,5.4,1.7,8.2,3.2,4.5,2.3,8.5,6.7,10.4,11.7,1.5,3.7,2.2,8,3.1,12,1.7,6.5.5,15.9-7.8,15.1h-.2Z"/>
  <path class="st50" d="M537,710c-10.1,9.3-20.8,18.2-30,28.5-4.3,4.8-7.7,10.2-11.7,15.3s0,1.8-2.3,1.3c-8.3-17.4-11.7-36.3-16-55,.3.1.7-.1,1,0,20.4,8.2,36.6,10,59,10Z"/>
  <path class="st35" d="M595,842l1,1c-27.2,3.2-54.7,1.7-82,2,0-.3.1-.7,0-1,1-1.7,3.7-1.1,5.4-.9,21.9,2.3,53.5,1.4,75.6-1.1Z"/>
  <path class="st62" d="M254,589c4.9-2.5,14-2.1,18,1.5s1.7,1.5.5,1.5c-3.5-2.3-14.9-.6-17.5-2s-.7-.6-1-1Z"/>
  <path class="st5" d="M796,855c-.2-1.8,2.1-.9,3-.5,6.3,2.3,16.3,11.5,16.5,18.5s-2.7,4.8-4.5.5c-3.3-7.7-6.4-15.1-15-18.5Z"/>
  <path class="st2" d="M476.7,850.2c4.9-.9,9.6-.2,12.7,3.8,8.8,11.5-4.6,28.2-18.1,20.1-9.9-5.9-5.1-22.1,5.4-24Z"/>
  <path class="st51" d="M518.8,581.3c9.7-1.1,21.2,1,28.2,8.3-14.2,19.3-44.2,35.3-61.9,10.8,6.7-10.3,21.7-17.7,33.7-19.1Z"/>
  <path class="st25" d="M487.8,863.8c-.2.3-1.7.5-2.2,1.3-2,3-3.6,7-8.9,5.8s-6.6-16.9,5.5-15.3c3.2.4,7,6,5.7,8.3Z"/>
</svg>