<?xml version="1.0" encoding="UTF-8"?>
<svg id="Calque_1" xmlns="http://www.w3.org/2000/svg" version="1.1" viewBox="0 0 386 324">
  <!-- Generator: Adobe Illustrator 29.5.1, SVG Export Plug-In . SVG Version: 2.1.0 Build 141)  -->
  <defs>
    <style>
      .st0 {
        fill: #232d45;
      }

      .st1 {
        fill: #020c32;
      }

      .st2 {
        fill: #010a32;
      }

      .st3 {
        fill: #181e3a;
      }

      .st4 {
        fill: #262f46;
      }

      .st5 {
        fill: #040515;
      }

      .st6 {
        fill: #03092a;
      }

      .st7 {
        fill: #1b1e2c;
      }

      .st8 {
        fill: #020208;
      }

      .st9 {
        fill: #fcd68b;
      }

      .st10 {
        fill: #b4906f;
      }

      .st11 {
        fill: #fce39a;
      }

      .st12 {
        fill: #0e1435;
      }
    </style>
  </defs>
  <path class="st4" d="M347,82v85c0,.3,0,.7,0,1-.2,1.3-.4,2.4-1.1,1.3l-.3,35.3c-.9,3-.8,4.8.4,5.4-.2,3.6-.3,12.7-2.7,15-47.4,26.8-95.8,52-144.8,75.9-8.6-2.4-16.9-6.2-25.1-9.8-38.8-17-84.7-35.6-121.5-55.5-5.6-3-11-4.6-11.8-11.7.4-7.1.7-14.3.4-21.3s.7,7.9.1,8.2c-1.7-1.4-1.5-11.7-1.5-13.9v-79c.1-7.2-.6-15.3.1-22.4s.9-9.4,4.5-11.5c49.6-22,99.9-42.6,151-61.1,3.2-.5,6,1.1,8.9,1.9,39,11.8,83.6,30,121.7,45.3,5,2,20.8,6.8,21.8,11.7Z"/>
  <path class="st8" d="M347,167v-85c-.3,28.3.4,56.7,0,85Z"/>
  <path class="st5" d="M39,197c-.3-26.3-.4-52.7,0-79v79Z"/>
  <path class="st7" d="M347,168c-.2,13.9-.3,28.1-1,42-3.7,3-1-4-1-5.5.3-11-.5-22.1,0-33.1s-1-4,2-3.5Z"/>
  <path class="st4" d="M40,224c-.6-5.7-.2-14.1,0-20s-.8-4.2,1-4c-.6,7.8,1.3,16.5-1,24Z"/>
  <path class="st9" d="M95,148c.2,1.5-.3,2,1,3.5,3.5,4,34.8,18.6,37.9,16.5s.1-8.1,0-10.4c-.2-8.1-.2-16.4.5-24.5,8,3.1,54,25.3,58.9,23.9s1.9-2.3,1.6-3.9l-58-25,144.5-68.6,56.1,21.5c4.5,1.7-1.2,2.3-2.9,3.2-39.8,19.9-84.1,41.5-122.3,63.7-1.8,1-7.1,3.8-7.8,5.2-2.2,3.8.2,4.7,3.5,4,6.1,0-1.3,4.4-5,3-.3,2.4-.6,4.8-1,7-1.8-1.6-.1-10-3.5-10s-2.4,10.5-2.5,13c2.1,18.8,1.6,38,1,57-2.3,9.9-.4,20.9-1,31,1.3,11.8,1.2,24.4,0,36-2.8.9-35.8-15.7-41.3-18.2-20.3-9.1-41.1-17.4-61.4-26.6-12.4-5.7-33.5-13.9-44-21-5-3.4-3.9-4.9-4.3-10.2v-120c-1.4-.6-1.4-3.4,0-4,.3-.1.8-1.3,1.9-.6,16,7.2,31.8,15.2,47.9,21.7.4,1.9,0,3.9.1,5.9.9,8.9.6,18.1,0,27Z"/>
  <path class="st9" d="M340,220c-2,.3-16.9,10.3-20.3,12.2-38.8,21.6-78.8,41.1-118.2,61.8-.8-10.1-.6-20.4-.5-30.5,0-1.7.6-2.8,1-5.5-.2-29.7-1.3-61.5,0-91,.1-2.9-.7-4.4,1-7,1.7-2.6,3-2.1,6-2,0-.5-1-.9-1-1,0-.6,7.6-4.8,9-5.5,40.4-22.3,82.7-41.5,123.1-64,1.6-1.2,1.5.2,1.9.5,1,43.3.5,88.9-2,132Z"/>
  <path class="st9" d="M240,44l-121.4,55.1-21.4,10.7c-16.3-6.3-32.7-13.9-48.2-22.3,48.1-20.9,96.7-40.8,145.9-59l45.1,15.5Z"/>
  <path class="st10" d="M104,113c10.5-6.9,27.5-13.7,39.3-19.2,34.3-15.9,69.2-30.6,103.4-46.6,9.8,1.7,18.3,7.7,28.3,8.8l-144,69.6c-1.1.6-1.9.3-3,0-6.5-1.6-16.7-9.7-24-11.6-.2-.1-.2-.5,0-1Z"/>
  <path class="st10" d="M104,113l1,.5c-.2.5-.8.3-1,.5-1.6,1.4-3.3,3.5-1.8,5.9s23.4,9.2,26.4,12.1c1.7,9.4-1,19.3,1.5,28.5.1,2.2-13.5-3.8-14.7-4.3-3.4-1.5-13.2-5.4-14.6-8.4s-1.3-27.9-.7-31.2,2.4-2.5,4-3.5Z"/>
  <path class="st3" d="M342,88c2.7,2.1.8,5.2.9,8.5,1,32.4.6,66.6-.9,98.9-.4,8.5.1,17.1-1.1,25.5-.6.2-.9-1-1-1l2-132Z"/>
  <path class="st4" d="M45,94c0,1.3.1,2.7,0,4v23c-.6,25.7-.9,52-1,79,.2,4.2.6,8.5,1,13v2l-2,1.5.2-122.4c.6-.4,1.4,0,1.8-.1Z"/>
  <path class="st11" d="M45,218c0-1,0-2,0-3s0-1.3,0-2c-.8-4.3-1-8.8,0-13-1-26.3-.8-52.7,0-79,0-8.1-.8-14.3,0-23v120Z"/>
  <path class="st1" d="M196,170l2-1.5v77c-1.4,1.6-1-1.1-1-2-.2-5.5,0-11,0-16.5,0-19.1-.5-38-1-57Z"/>
  <path class="st2" d="M196,294v-36c1.4,1.3,1.4,4.7,1.4,6.5,0,7.8.4,19.8-.4,27s.4,2.4-1,2.5Z"/>
  <path class="st6" d="M95,148c-.9-8.3.3-18.4,0-27,1.8,6.5,1.1,14.6,1,21.5s.6,4.4-1,5.5Z"/>
  <path class="st0" d="M267,228c-.4-9.7-.7-19.5-.7-29.3l-1.3-.7c-3.5,2.1-13,8-11.6-1s11.2-25,14.4-30.6,5.7-12.3,11.4-11.2,22.7,16.1,24.8,18.3c7,7.3-9.5,8.1-10.9,12.2-2,7.9,2.6,28.7-1.1,34.9-1.7,2.8-17.9,13.7-21,14.1s-2.4-4.9-4.1-6.6Z"/>
  <path class="st12" d="M45,200c-.3.9-.6.9-1,0,0-24.5-.3-49,0-73.5s-.6-4.4,1-5.5c.3,26.3-.2,52.7,0,79Z"/>
  <path class="st4" d="M45,213c-1.8-3.3-1-8.9-1-13h1c0,4.3-.1,8.7,0,13Z"/>
  <path class="st10" d="M273,198.5c-.1-1.6-.7-5.2-1-7-1-5.7-7.9.6-10.5,2.5-.8.1-.6-.9-.5-1.5,1.3-8,12.7-22.9,16-31.1,1.1-1,1.7,0,2.6.5,1.8,1,19.3,14,18.4,15.1-7.7,1.6-9.4,4-10,11.5s1.4,25.7-.5,29.5-14.5,9.9-15.5,9c-.4-1.1,1-2.2,1-2.5,0-8.2.7-18,0-26Z"/>
</svg>