<?xml version="1.0" encoding="UTF-8"?>
<svg id="Calque_1" xmlns="http://www.w3.org/2000/svg" version="1.1" viewBox="0 0 397 406">
  <!-- Generator: Adobe Illustrator 29.5.1, SVG Export Plug-In . SVG Version: 2.1.0 Build 141)  -->
  <defs>
    <style>
      .st0 {
        fill: #67ac75;
      }

      .st1 {
        fill: #fdcd6c;
      }

      .st2 {
        fill: #fde7bc;
      }

      .st3 {
        fill: #fccb6b;
      }

      .st4 {
        fill: #fdf7eb;
      }

      .st5 {
        fill: #273048;
      }

      .st6 {
        fill: #fde9c1;
      }

      .st7 {
        fill: #fde4b6;
      }

      .st8 {
        fill: #fccc6c;
      }

      .st9 {
        fill: #fdcc6c;
      }

      .st10 {
        fill: #fdcc6d;
      }

      .st11 {
        fill: #68ad76;
      }

      .st12 {
        fill: #61a86f;
      }

      .st13 {
        fill: #fccb6a;
      }

      .st14 {
        fill: #fdc395;
      }

      .st15 {
        fill: #fdcc6a;
      }

      .st16 {
        fill: #fdf6ea;
      }

      .st17 {
        fill: #749ad3;
      }

      .st18 {
        fill: #65ab73;
      }

      .st19 {
        fill: #fdf7ec;
      }

      .st20 {
        fill: #fecf73;
      }
    </style>
  </defs>
  <path class="st5" d="M5,347c-1.8-1-5.5.9-3.6-5l30.1-48.9c4.3-5.1,11.3-1.8,12.6-3.6,3.5-11.4,7.8-22.5,10.8-34,6.1-23.1,7.7-50.2,18.7-71.3,11-21,32.3-35,48.2-51.8l-16.4-74.3c-1-7.1-3.4-8.5,4.3-10.7,56.1-11.8,112.3-22.8,168.5-34.5,15.4-3.2,34.5-9.7,49.5-11.5s4.4-.4,6.6.7l60.2,278.1-226.1,50.5c-1,0-2.4-.8-3-1.5-2.7-2.9-6.5-26.8-8.2-32.9s.2-2.5-1.3-2.2c-3.2,7.1-9.5,16.1-15,21.5s-15.9,9.6-19.8,15.2-4,7.3-4,8c-.3,2.9,7.8,5.5,3.3,18.3s-19,39.5-23.5,45.5-4.7-.4-6-1.5v-3.1c7-13.6,13.9-27.1,20.9-40.5,4.8-7.8,2.3-11-4.2-15.8-21.8-16.2-45.7-32.1-69.5-44.4l-30.8,49.8h-2.3Z"/>
  <path class="st17" d="M91,401c-3.8-3.3-20-9.2-26-12.5-17.5-9.5-35.8-21.2-51.4-33.6-2.9-2.3-5.3-6.2-8.5-8l31.5-51c2.2-2.3,5.2.4,7.4,1.6,18.9,10.4,44.1,27.5,61.8,40.2,4.3,3.1,12,7.8,10.6,14s-5,11-6.6,14.5c-5.7,11.8-12.6,23.2-18.7,34.8h-.1Z"/>
  <path class="st4" d="M388.9,275.9l-219.7,48-22.1-98.4c8.8-13.7,27.8-41.2,24.7-57.7-1.7-9.4-12.5-13.3-21-11.5s-9.8,8.7-14.7,11.8l-26-115L330,7.4l58.8,268.5h.1Z"/>
  <path class="st14" d="M130.8,173.8l-32.3,32.2c-1.8,3.5-6.8,6-5.4,10.4,2.5,7.6,11.3-7.9,12.9-9.8,12.9-15,27.9-28.1,42-42,5.2-4.2,16.1-2.9,17.7,4.2,2.9,12.9-13.7,38.8-21,49.6s-6.2,6.6-8,10c-5.1,9.1-2,13.9-2.8,23.2s-4.9,19.8-8.5,26.5-11.3,14.6-4,13,13.5-19.2,15-24c3.7-12,2-16.5,2.5-27.4s2.9-11.1,4.1-6c3.9,17.3,7.8,34.7,11.6,52-5.5,10.2-12.3,20.7-21.1,28.4s-17.6,9.8-21,21l-64.5-41.5c4.2-9.9,8-20.8,10.9-31.1,6-21.3,8.1-45.2,15.4-65.6s31.1-40.2,49.2-57.8c2.3,11.5,5.8,23.2,7.3,34.8h0Z"/>
  <path class="st11" d="M264,182c6.9-2.6,19-1.6,25.3-4.2s7.4-15.5,13.7-12.3c4.9,2.4-.8,7.7,0,8.5,16.1-4.8,16.6,7.4,1,8l10.5,6,.3,2.3c-2.2,8.7-20.2-5.1-23.3-5.2s-12.2,1.6-15.8,2.2-5.6.8-7.8,2.2c4.8,7.1,9.4,15.3,12.9,23.1s9.8,23.4,8,26.2-5,.8-5.8,2.6c4,2.6,10.9,20.6,13.6,21.4s13.7-9.4,17-9.8,3.6,2.9,3.2,5.1c-.9,4.6-19.3,15-24.2,13.8s-13.8-25.5-15.7-29.1c-3.2,1.9-22.2,4.1-22.9,6.6.2,5.7,5.7,25.2,3.4,29.4s-6.2,2.9-8.5,3.5-14.7,3.4-16.1,3.1c-2.6-.6-3.7-4.1-2.1-6.2s15.3-4.4,19.1-4.4l-2.5-23-10.1,2c-1.9-.1-3.5-2.1-4.2-3.7-2.1-4.8-5.1-32-6.3-33.2-8,.4-16.6,2.3-24.4,1.1-3.8,2.1-8.3,18.3-13.6,12.4s3.1-10.1,2-11.5c-14.6,5-21.6-7-3-7,1.4-1.8-5.5-4.4-3.9-9.3s13.6,8.4,16.6,9.2,11.7-1.6,14.8-1.9,6.4.2,9.5,0l-1.1-16c-35.8-4-49.6-52.2-17.9-72.5s36.8-7.4,51.4,5.4c18,15.8,15.3,34.8,6.5,55l.4.2Z"/>
  <path class="st20" d="M280.8,65.3c11.2-.9,21.2,1.8,24.9,13.5s1.1,18.4-2,23.5c-9.5,15.9-47.5,3.7-45.7-16.6,1.1-12.4,11.1-19.4,22.8-20.3h0Z"/>
  <path class="st1" d="M237.8,88.2c2.2,0,11.6.8,12.8,1.7,3,2.3,1.6,4.7-2,5.1s-14.2,1-15.6.5c-8.7-2.7-1.1-7.1,4.9-7.4h0Z"/>
  <path class="st9" d="M309,110c-.7-8.6,15.7-2.3,19,.5s4.6,7.7.7,7.3-14.6-8.1-19.7-7.9h0Z"/>
  <path class="st1" d="M237.5,59.3c.7,0,12.5,4.7,13.4,5.3,3.1,2,6.4,8.2,1.1,7s-15.3-5.5-16-6.1c-2.2-1.8-.5-6.1,1.5-6.2Z"/>
  <path class="st3" d="M294,134c-.3.3-3.1,0-4-.5-2.6-1.5-4-19.2-2-20.5,5.9-3.8,6.9,20.2,6,21Z"/>
  <path class="st10" d="M314.1,77.1c3.7,0,15.3-10,16-2.6s-18,13.8-16,2.6Z"/>
  <path class="st15" d="M307,47c2.7,2-4.4,16.6-6,17.5-7.5,4.4-2.3-8.8-.2-12.2s4.6-6.5,6.2-5.3Z"/>
  <path class="st8" d="M273.5,43c1.1-.3,2.3,0,3,1s2.5,15.4-1.1,16c-5.3.9-5.3-15.9-1.9-16.9h0Z"/>
  <path class="st13" d="M263.7,109.2c10-3-1.8,13.3-7.1,11.8s4.6-11,7.1-11.8Z"/>
  <path class="st19" d="M222.8,123.3c18.2-2.7,40.8,10.5,41.3,30.2s-17.3,38-42.1,33.1c-32-6.4-36.6-57.8.8-63.3Z"/>
  <path class="st16" d="M231,195c.4-.4,10.4-.8,12.3-1.2,3-.7,14.7-6,15.7-5.3,9.4,14,16.2,29.3,22,45.1l-41,11.1c-1.8-6-11.3-47.3-8.9-49.6h-.1Z"/>
  <path class="st6" d="M288,103l9.2-15.3,2.8-2.7c3.2,4.2-9.7,20.4-12,18Z"/>
  <path class="st7" d="M286,78c.7,4-2.6,5.6-3.4,7.1-1.8,3.2-3.2,7.6-6.6,9.9,1.8-4.4,4.2-10.8,6.8-14.7s1.1-2.7,3.2-2.3Z"/>
  <path class="st2" d="M277.8,76.8c0,.2-1.4.3-1.8.9-2.2,3.4-4.1,7.5-7,10.3.2-5.8,5.2-9.8,7-15,1.5-.2,2.1,3.1,1.8,3.8Z"/>
  <path class="st0" d="M213.1,163.1c8.1-.4,11.3,6.8,20.3,5.9,12.2-1.3,10.7-13.5,14.6-15.5,7.7-3.8,5.3,7.2,3.2,11.2-5.1,10-15,12.7-25.6,11.2-5.4-.8-15.3-6.3-12.5-12.8h0Z"/>
  <path class="st18" d="M237.7,132.1c4.3-1.1,9.2,5.9,4.3,8.4-7.8,3.8-10.7-6.7-4.3-8.4Z"/>
  <path class="st12" d="M211.2,141.2c2.4-1.5,10-.5,7.4,4.9s-12.3-1.7-7.4-4.9Z"/>
</svg>