<?xml version="1.0" encoding="UTF-8"?>
<svg id="Calque_1" xmlns="http://www.w3.org/2000/svg" version="1.1" viewBox="0 0 377 418">
  <!-- Generator: Adobe Illustrator 29.5.1, SVG Export Plug-In . SVG Version: 2.1.0 Build 141)  -->
  <defs>
    <style>
      .st0 {
        fill: #242842;
      }

      .st1 {
        fill: #fcc799;
      }

      .st2 {
        fill: #060c2c;
      }

      .st3 {
        fill: #fcc496;
      }

      .st4 {
        fill: #fdb97f;
      }

      .st5 {
        fill: #272d47;
      }

      .st6 {
        fill: #5a5180;
      }

      .st7 {
        fill: #fdcd6d;
      }

      .st8 {
        fill: #5a517f;
      }

      .st9 {
        fill: #f38c50;
      }

      .st10 {
        fill: #f38c51;
      }

      .st11 {
        fill: #242b44;
      }

      .st12 {
        fill: #272d46;
      }

      .st13 {
        fill: #f48b50;
      }

      .st14 {
        fill: #6ea6d2;
      }

      .st15 {
        fill: #212741;
      }

      .st16 {
        fill: #fac797;
      }

      .st17 {
        fill: #fac597;
      }

      .st18 {
        fill: #fdd27c;
      }

      .st19 {
        fill: #fc9fb9;
      }

      .st20 {
        fill: #010314;
      }

      .st21 {
        fill: #00010b;
      }

      .st22 {
        fill: #feda99;
      }

      .st23 {
        fill: #252b45;
      }

      .st24 {
        fill: #fdc395;
      }

      .st25 {
        fill: #2f2768;
      }

      .st26 {
        fill: #fed790;
      }

      .st27 {
        fill: #825b49;
      }

      .st28 {
        fill: #fde5c2;
      }

      .st29 {
        fill: #fcd077;
      }

      .st30 {
        fill: #fdd380;
      }

      .st31 {
        fill: #fdd586;
      }

      .st32 {
        fill: #fdd476;
      }

      .st33 {
        fill: #805a49;
      }

      .st34 {
        fill: #fdcd70;
      }

      .st35 {
        fill: #fecd6e;
      }

      .st36 {
        fill: #fae5af;
      }

      .st37 {
        fill: #89848b;
      }

      .st38 {
        fill: #202641;
      }

      .st39 {
        fill: #f3865d;
      }

      .st40 {
        fill: #252a44;
      }
    </style>
  </defs>
  <path class="st8" d="M136.9,393.9c-1.9-5.3-2-11.3-.1-17.8,5.3-21.4,9.9-42.7,13.6-63.9l-1,.4-5.6,27c-.5,2.3-1.2,3.6-3.4,4.5-4.3,1.9-31.5-.7-35.9-1.4-13.5-2.2-45.7-7.8-53.7-20.1-6.4-9.9-9.2-49.8-2.5-57.1,1.7-1.9,16.8,7.2,13,12.2-2.1,11-3.2,22-3.3,33.2,2.6-23.8,7.1-47.7,13.3-71.8,1.7-7.2,6-3.9,9.8-.7,19.6,17.5,43.5,34.4,70.4,38.2l1.8,1.9c-.6-2.8,13.5-2.3,14.2-1.9s1.1,1.1,1.3,1.9l.9,1.7c.9-3.9,10.1-6.5,14-6,12,1.3,15.4,16.2,17.1,26.1-7.8,30.6-15.7,61.8-15.7,94.2,0,1.3.6,3.8.9.3,3-33.1,7.1-64.5,16.4-96.5,12.5-2.2,21.5-10.4,29.3-19.8,8.6-2.5,16.4-6.5,24.2-10.7,3.5,5,7.8,8.7,12.6,11.3,4.5.5,9.2,1.4,4.5,5.5.4,7.3-9.3,12.3-15.2,15.3-13.9,7-28.7,14.1-44.2,15.6-6.9,2.7,3.8,1.5,6.9.7,17.8-4.2,34-12.2,48.8-22.4.9-.4,2.5-.8,3.3-.4,13.2,7.3,31.6,32.5,39.1,46,5.3,9.4,19.7,41.4,17.4,50.5-.2.8-.5,1.6-.9,2.3-.1,0-1,1.3-2.5,1.6-25.9,6-53.5,9-80,10.6-4.6-.6-12-.7-15,.9h-5.6c-5.7-.4-11.4-.7-16.9-.9-23.6,1-47.8-.7-69.8-8.1l-1.5-2.2Z"/>
  <path class="st5" d="M165,272.8c3.1-.1,6,0,9-.9s2.9-.3,1.4-1.9-5.6-2.6-7.5-4.2c-8.1-6.8-14.7-18.4-17.3-28.6-4.8-18.7.5-34.5,6.9-52.1-21-8.5-47-26.7-44-52.5,2.5-21.7,28.9-25.9,46.4-26.8,6.7-.3,20.5,1.4,25.9-.4,2.8-.9,20.4-15.2,25-18.2,18.5-12.1,58.9-36.8,79.3-41.7,26.3-6.4,48.9,28.1,62.5,46.9,8.4,11.7,21.7,24.8-4,21.8s-21.5-9.3-24.5-9.3-8.4,5.7-10.8,6.2c2.4,17.6,3.6,35.4,4.9,53.1,13.6,15.4,47.5,45.6,32.1,68.2-5.1,7.5-18.5,12.2-27.3,13.1s-19.2-.9-20.1-.4c-2.3,1.4,1.8,4.9,2.4,7,2.2,8.4-1,16.9-9.7,19.5s-9.8-.4-11.3.5-2.3,4.7-3.9,6-5.7,2.3-5.7,2.8c0,1.9,2.8,3.2,2.8,5.6s-2.4,4.1-1.8,5.1,8.1,5.9,9.8,7.6c17.8,17.3,31.2,38.2,39.9,61.5,1.7,4.6,9.1,26.7,8.3,29.8s-4.7,1.5-5.5,1.6c-6-38-26.6-73-56.3-97.2-1.5-.8-11.1,6.7-13.6,8.1-10.9,6.1-32.9,15.6-45.1,16-2.4,0-3.6-.4-5.1-2.4,3.5-4.4,9.7-3.2,15-4.7,9.2-2.6,21.2-7.2,29.7-11.6,2.9-1.5,15.2-8.7,16.7-10.5s.9-5,1.9-6.6,2.6-.4,2.3-1.9c-8.7.8-14.2-5.4-18.3-12.2-3.2,2.2-7.6,5.1-11.1,6.7-3.3,1.5-9.3,2.6-11.9,4.1s-3.7,4.8-5.7,6.5c-6.6,5.9-14.1,12.5-23.4,12.7-2.9,17.3-8.2,34.1-11,51.4-2.5,15.6-3.2,31.4-5,47.1-3.9,1.2-4.4-1.5-4.4-5.1,0-20.8,5-47.8,9.4-68.3,1.7-7.6,7.4-19.9,6.3-27.4s-6.4-16.9-7.1-17.5-8.8-3.6-9.3-3.7c-2.7-.2-7.3,3.2-10.6,2.9-.8,10.9-.4,20.9,8.3,28.6s11.2,6.1,4.2,7.1c-12.5,1.8-23.4-26.3-15.5-35.7h-15.5c-17.9,0-45.4-16.1-59.5-26.8-2.6-2-18.2-16.6-19.8-15.4-4.6,16.6-8.5,33.3-11.2,50.3-.6,3.8-1.6,28.4-5.3,28.5s-1.4-3.2-1.4-4.2c-.9-12.2,2.9-25.2,3.7-37.4l-10.7-7.2c-2.7,14-3.8,30-1,44.1s10,17.8,23.5,22.5,33.6,8.7,48.8,9.3c3.6.2,17.3.7,19.6-.1s1.1-.6,1.4-1.5c3-8.2,3.6-20.6,6.4-29.2,5.9-5.4,4.4,3.8,3.8,7.5-4.2,24.7-14.1,49.4-14.7,74.9-2.6,6.1-8.8.2-7.7-5.6,1.6-13.1,4.4-26,8.4-38.7h-1.5c-3.7-.5-2.8.4-6.6,0-2.4.3-9.6.7-14.3-.6-16.5-1.5-55.1-7.6-66.5-19.5-13.3-14-9.6-47.8-6.6-65.8-1.7-1.9-3.9-3.5-6.2-4.7-12.8,2.6-14.1-5.7-15-15.9-4.1-5.8-7-11.9-8.8-18.1v-4.7c.5-2.3,4.7-6.2,5.1-7.5s-.7-3.6-.2-5.9c.7-3.7,4.7-6,5.3-7.9s0-5.8.6-8.8c2.2-9.5,11.7-10.5,19.3-6.5,7.7-25.9,14.8-52,22.5-77.9-2.5-5.4,5.7-28.5,13.2-24.6,4.3,2.3-1.2,22.8-2.6,27.3l-2.1,1c-5.4,28.6-10.6,57.3-16.8,85.8,4.9,2.7,8.5,2.7,12,7.7,5.3,7.7,4.7,22.2,7.6,26.2,1.3,1.8,15.5,13.1,18.4,15.4,20.4,16.2,34.6,23.5,60.5,28.2,3.5.7,7,.7,10.3,0Z"/>
  <path class="st39" d="M142.5,12.9c2.4,4.9,4.3,10.3,9.9,12.2,1.6,1.9-1.6,2.5-2.7,3.9-3.1,3.5-4.6,8.1-8.1,11.2-.9-2.3-1.7-5.9-3-7.8s-5.5-3.9-5.6-5.8,9.9-9.3,8.5-13.6h.9Z"/>
  <path class="st25" d="M245.8,404.2c-1.7.1-3.5-.2-5.2,0l-2.3,1h-7.5c-.5-2.8,1.4-1.8,3.2-1.9,3.5-.1,8.6-.7,11.8.9Z"/>
  <path class="st37" d="M225.1,405.1h-16.9v-.9c5.4.1,11.9-.9,16.9.9Z"/>
  <path class="st26" d="M72.1,65.4c2.3.5,4.6.3,6.9-.7l1.6,1.6c2.5,0,10.6,10.2,11.9,12.9,1.9,3.9,1.3,8.7,5,9.6-.2,4.3-1.4,6.8-3.8,7.5-3.2,6.6-12.9,14.6-20.6,13.1,1.3-6.8,4.7-17.5,4.7-24s-4.6-.3-7.4,1.1c-2,6.4-3.9,12.7-5.8,19.1-6-1.7-7.4-8.4-11.3-12.2-2.3-1.7-1.9-6.5.9-7.5,1.3-6,4.5-11.7,9.5-15.4,2-1.5,7.8-3.9,8.4-5.2Z"/>
  <path class="st4" d="M103.1,198.7l-7.4-12.5-2.9-1.1c4.8-2.1,6.3-7.3,9.9-10.8,2.7,1.8,3,5.2,4.8,7.4s3.8,2.1,4.1,3.4-10.3,9.5-8.4,13.5Z"/>
  <path class="st35" d="M97.5,88.9c2.8.7,6.9.6,10.3,1.4s13.1,3.1,14.4,4.2.8,2.6.6,2.9c-1.9,2-25,.1-29.1-.9,1.4-2.8.9-8.1,3.8-7.5Z"/>
  <path class="st7" d="M72.1,65.4c1.3-3.4,1.3-11.1,2.1-15.2s3-15.6,5.4-12.9l.9,29.1c-1.4,0-8.8,3.4-8.4-.9Z"/>
  <path class="st22" d="M360.6,155.8l-5,10c-.6-5.5-3.3-12.1-9.4-13.1.9-1.7,3.6-1.4,5.3-3.1s2.1-6,4.5-8.1c2.9,4.2,4,8.3,8.9,10.8l-4.3,3.6Z"/>
  <path class="st34" d="M54.3,86.1c-.5,2.1-.2,5.2-.9,7.5l-26.3.9c.1-1-.2-2.3,0-3.2.5-2.2,23.9-4,27.3-5.3Z"/>
  <path class="st14" d="M198.8,54.1c0,.1-1.8.2-2.8,1.4-1.7,2-2.6,5.1-3.7,6.5-2,2.5-2.5-2.2-3.6-3.8s-4.1-4.3-3.9-5.3,6.2-7.5,7-9c.9,2,7.7,9.3,7,10.3Z"/>
  <path class="st29" d="M112.2,58.1c9.2-1-7,12.6-9.1,11.6-4.8-2.2,4.6-11.1,9.1-11.6Z"/>
  <path class="st30" d="M89,119.9l5.4,12.9c.9,4.5-1.8,7.5-3.7,1.8s-1.9-10-1.7-14.7Z"/>
  <path class="st31" d="M54.3,70.1c-5.3-1.1-10.7-5.6-11.3-11.2,5.9-.1,8.8,6.8,11.3,11.2Z"/>
  <path class="st28" d="M231.4,34.6c4.4-1.2,6.5,3.6,3.1,6.9-5,4.9-8.3-5.5-3.1-6.9Z"/>
  <path class="st18" d="M39.3,125.5c-2.4-2.5,6.1-11,8.4-12.2.4,2.2-5.8,14.9-8.4,12.2Z"/>
  <path class="st32" d="M323.8,302.7c-2.7-4.5,4.2-7.2,6-4.6,3.5,5.1-4.3,7.4-6,4.6Z"/>
  <path class="st19" d="M357.3,268.2c1.8,1.4-.5,7.8-2.7,6.4s-2.3-3.6-1.8-5,3.6-2.1,4.5-1.4Z"/>
  <path class="st20" d="M165,272.8c-2.8,2.4-7.4.5-10.3,0,3.4,0,6.9.1,10.3,0Z"/>
  <path class="st11" d="M254.2,345.1c3.1-.5,4.4,1.9,5.8,4,6.1,9.2,11.1,35.1,11.2,46.2s0,3.2-1.5,4.2c-4.6,1.5-3.9-10.7-4.3-13.5-1-6.3-2.2-13.5-3.9-19.6-2-7.4-6.2-14-7.2-21.4Z"/>
  <path class="st11" d="M333.8,390.4c1.7,3.8-3.8,9-13.3,11.1-34.1,8.9-131.2,7.1-171.4-1-6-1-11.6-1.9-15-4.5-4.3-6.4,39.7,2,50,2.5,23,1.9,49.8,3.1,72.2,2.4,27.3-.7,56-4,77.5-10.5Z"/>
  <path class="st24" d="M232.6,181.8c.3.6-.3,1.2-1.9,1.9.6,3,3.6,4.9,9,5.6,3.5,3.5,5.5,3.8,6.1,1-2.4-4.1-1.7-5.6,1.9-4.7,3.7.7,7.5,1.1,11.3.9-2.5,10,.3,26,7.8,33.4,11.9,11.9,15.2-10.1,29.4-2.7s.1,33.4-14.3,34.9c-4.6.5-12.8-2.1-14.6-1.5s-7.5,7.9-9.9,9.9c-39.1,33.5-108,10.8-102.6-45.4,1.5-15.1,9.8-30.5,12.1-45.6,12.2,1.9,22.9-5.8,31-14.1,5,12.8,22.3,22.2,34.7,26.3Z"/>
  <path class="st6" d="M305.8,240c1.2-3.7,2.6-7.8,2.8-11.8.1-2.9-1-6.3-.8-8.2.2-1.8,3-5.6,3.6-7.7l7,10.9c4.9,2.4,4.6-1.2,3.1-5-20-48.2-114.2-90.8-163.8-75.1s-10.6,3.8-10.5,6.4c0,6,10-1.7,11.3-.5-2,5.6-3.7,8.6-.8,14.4s4.6,4.6,4.6,4.9c0,1.3-3.2,10.7-5.2,10.7-5.5,0-23.6-13.8-27.8-18.3-15.9-17.2-15.3-39.9,10.1-46.2,62.6-15.5,148.9,23.1,190.3,70.1,10.1,11.4,27.6,32.5,14,46.8-2.9,3-13.9,8.5-17.7,8.5h-20.2Z"/>
  <path class="st6" d="M313.9,55.5c6.6,4.7,13,12.7,18.2,18.9,9.1,10.9,16.6,23.1,25.4,34.2-3.2,0-6.3.2-9.4-.4-5.8-1.1-20.4-9.1-23.9-8.9s-7.9,6.2-11.7,5.6c-2-2.3,1.5-21.8-6.6-20.6l6.6,75.1c-34.9-26.9-75.4-45.8-119.2-52.6l38.9-26.3c16.5-8.2,32.1-19.1,49.3-25.7,11.9-4.6,21.1-7.3,32.4.8Z"/>
  <path class="st13" d="M303.9,215.6c-6-5.4-15.1-6.8-22.4-3.2s-4.9,4.6-8,6c-6.7-5.6-12.6-22.6-7.9-30.4s5.8-1.7,4.1-4.4-13.9-2.4-17.6-3c-14.1-2.6-34.9-9.2-44.8-20s-9.8-13.6-1.9-13.2,31.8,9.3,41,13.5c13.4,6.2,52.7,29.2,58.3,42.1s.6,7.7-.8,12.5Z"/>
  <path class="st24" d="M61.8,267.2c-1,1.2-20-12.7-20.3-14.5s1.7-11.9,2-12.7c1-2.8,2.1,1.5,2.7,2,1.2.8,1.9,1.1,3.4.9-.3-6.7-5.3-12.1-1-19.1.8-1.3,4.4-2,4.4-4.9,0-5.3-8.7-1.3-10.5-7-2.9-9.3,14-15.1,21.6-4.6s4.7,13.6,5.1,18.3c1.2,13.6-6.9,28.1-7.4,41.6Z"/>
  <path class="st10" d="M297,250.3c4.1-.9,6.3,13.7-2.4,16.4-6.5,2-11.4-2.8-13.6-2.3s-.9,7.6-5.8,10.2-11.7-4.4-15.3-8.8c3-1,8-8.3,10-8.8s10,1.4,14.6.6c4.9-.9,11-6.9,12.5-7.2Z"/>
  <path class="st9" d="M197,146.1c-5.5,9.5-17,19.1-28.6,17.8s-5.8-14.2-.7-16.7c7.6-3.8,21.1-1.5,29.4-1.1Z"/>
  <path class="st33" d="M51.3,195.6c-.3.2-7,2.4-7.3,2.1l.3-4,25.1-87.1c-3.8,21.9-8.2,43.7-12.9,65.5-.4,2,0,4.1-.5,6.1s-4,16.8-4.7,17.4Z"/>
  <path class="st27" d="M29.6,241.5c1.6-2.4,4-4.2,4.9-5.9s.8-4.2,1.5-5.1,4.7-1.1,6.1-2.8c-2.2,4.2-3.5,20.8-5.6,23-4.5,4.6-10.6,0-9.4-6.6s2-1.8,2.6-2.7Z"/>
  <path class="st3" d="M41.2,222.1c-8.3,5.9-18.4-4.9-18.3-13s2-5.7,4.7-3.9,7.7,6.6,8,7c1.7,2.4,1.8,7.5,5.6,9.9Z"/>
  <path class="st17" d="M205.4,282.2c5-.7,10-.6,15,0,.8,0,2.9-2,3.7-.5-6.2,5.1-12.3,10.4-20.2,12.5-1.4-.2-5.6-12.4-5.1-12.9,2.3.2,4.2.9,6.6.9Z"/>
  <path class="st1" d="M37.4,205.2c-10.2-1.7-14.1-20.6-.7-17.6,6.6,1.5,1.2,12.9.7,17.6Z"/>
  <path class="st16" d="M30.7,227.9c1.8,3.1-1.9,6.5-4,8.2-3.3-3-11.1-12.8-7.5-16.9s1.2-.4,2.2.6c1.5,1.6,2.5,3.3,4.4,5s4.8,2.8,4.9,3Z"/>
  <path class="st36" d="M247.6,185.5l-2.8.9c2.5,2,.9,3.5.9,3.7h-2.2c-2.8-3.3-7.3-4.7-11.6-4.7l-1.2-1.8c0,0-.9-.5-.9-.9l2.8-1c4,1.3,10.8,2.9,15,3.8Z"/>
  <path class="st2" d="M220.4,282.2c-4.7.3-10.3.2-15,0,3.8-1.6,11-1.6,15,0Z"/>
  <path class="st21" d="M137.6,349.5c-2.2.1-7.2.3-12.3.2,3.2-2.1,9.4-2.2,12.3-.2Z"/>
  <path class="st12" d="M212.6,249c-11,11-30.4,9.1-31.5-8,6.2-.8,10.3,2.4,17.3,1.8s15.6-6.5,18.6-5.5c4.3,1.4-2.6,9.9-4.4,11.8Z"/>
  <path class="st38" d="M197,214.6c-1.3,2-17.4-1.6-14.8,9.7.7,2.9,6.8,6.4,3.6,8.7s-6.4-2-7.5-3.8c-7-10.6,4.9-21.2,15.5-19.2s4.4,3,3.3,4.7Z"/>
  <path class="st23" d="M181.7,187.6c9.2-2.5,4.4,18.4-3,17.8s-3-16.1,3-17.8Z"/>
  <path class="st40" d="M234.3,201.7c7.2,7.5-12.4,28.1-10.6,8.6.3-3.6,6.8-12.6,10.6-8.6Z"/>
  <path class="st15" d="M194,175.3c3.3,5.4-6.8,4.3-9.5,4.8s-11.4,4.1-12,1.1c-1.3-6.5,19.6-8.9,21.5-6Z"/>
  <path class="st0" d="M245.8,190.2c.2,1.3,1.5,2.9.9,4.7-3.5.7-5.2-2.8-7.8-3.9s-8.8-2.4-9.6-3.5.9-2.5,1.4-3.8c5.5-.4,12,1.7,15,6.6Z"/>
</svg>