<?xml version="1.0" encoding="UTF-8"?>
<svg id="Calque_1" xmlns="http://www.w3.org/2000/svg" version="1.1" viewBox="0 0 545 580">
  <!-- Generator: Adobe Illustrator 29.5.1, SVG Export Plug-In . SVG Version: 2.1.0 Build 141)  -->
  <defs>
    <style>
      .st0 {
        fill: #452116;
      }

      .st1 {
        fill: #5db38b;
      }

      .st2 {
        fill: #fdf5e0;
      }

      .st3 {
        fill: #834220;
      }

      .st4 {
        fill: #f7f5e0;
      }

      .st5 {
        fill: #5ab288;
      }

      .st6 {
        fill: #36160f;
      }

      .st7 {
        fill: #874421;
      }

      .st8 {
        fill: #ed8132;
      }

      .st9 {
        fill: #3a1710;
      }

      .st10 {
        fill: #814222;
      }

      .st11 {
        fill: #4883a9;
      }

      .st12 {
        fill: #fdf5df;
      }

      .st13 {
        fill: #5bb289;
      }

      .st14 {
        fill: #ce563f;
      }

      .st15 {
        fill: #a25427;
      }

      .st16 {
        fill: #34140e;
      }

      .st17 {
        fill: #33140f;
      }

      .st18 {
        fill: #ee8231;
      }

      .st19 {
        fill: #21608b;
      }

      .st20 {
        fill: #35140f;
      }

      .st21 {
        fill: #5cb389;
      }

      .st22 {
        fill: #884622;
      }

      .st23 {
        fill: #58b186;
      }

      .st24 {
        fill: #57b187;
      }

      .st25 {
        fill: #fae3ac;
      }

      .st26 {
        fill: #fce7b9;
      }

      .st27 {
        fill: #c3783f;
      }

      .st28 {
        fill: #fefefe;
      }

      .st29 {
        fill: #f1f4e4;
      }

      .st30 {
        fill: #834321;
      }

      .st31 {
        fill: #854421;
      }

      .st32 {
        fill: #5cb388;
      }

      .st33 {
        fill: #205f8a;
      }

      .st34 {
        fill: #c37840;
      }

      .st35 {
        fill: #844321;
      }

      .st36 {
        fill: #9a927a;
      }

      .st37 {
        fill: #8e4b25;
      }

      .st38 {
        fill: #ca5039;
      }

      .st39 {
        fill: #9a5228;
      }

      .st40 {
        fill: #9f5226;
      }
    </style>
  </defs>
  <path class="st26" d="M338,580h-3c-8.7-4-17.9-7-26.7-10.8-26.1-11.2-57.1-23.2-82-36-2.1-1.1-3.4-1.8-5.3-3.2l-3.3-2c-8.3-1.8-19.1-11.6-3.7-10.1l6-.9,6.3,1.3c37.4,16.7,74.8,32.9,112.1,48.7,58.8-18.6,124.1-43.4,180.8-67.9-41.1-14.1-83.3-27.6-126.5-40.3l-4.8-2.8-1-2.5c-3.2-.6-4.7-3.5-1-3.5l1.7-1.6c4.6,1.4,9.8,2.7,14.1-.3l2.2.8c40.4,13.8,83.4,23.6,123.5,38,25,9,19.1,13-1.6,21.5-52.5,21.5-108.4,42.8-161.7,62.3-8.7,3.2-17.9,5.2-26.3,9.2Z"/>
  <path class="st27" d="M84,159c-2.5-4.6.4-9.4,3.2-13.3,11-15.2,35-16.4,44.4,1,25-8.2,32.7-35.6,25.8-59.1-.1-2,1-2.9,2.8-3.5,14.6,10.4,45.1,22.8,52.9-1.3l1.3-.2c17.6,10.9,42.8,25.9,60.8,7.6h2.2c9.4,6.7,18.2,8.1,29.5,8.4.8,4.2,1.5,8.5,2.1,12.9,0,0,1.6,1.8,4.9,5.3-4.9,10.1,4.6,47.1,4,61.5-1.3,34.1-29.1,59-61,65.5l-.6,2.1c-3.2.8-24.9,3.5-25.8,2.2s-.4-.9-.6-1.4c-2.2,1.2-5,1.3-8.5.1-20.3-.6-41.5-4.4-59.3-15.1l-3.2-4c-.4.4-.7.7-1.2.8-1.1.3-9.9-7.3-10.8-8.8l-10.5-10c-5.3-11.2-8.7-4.5-17.8-5.1-22.8-1.4-37.4-24.4-34.6-45.9Z"/>
  <path class="st0" d="M314,117c-8.7.1-8-10.7-8-17-5.7,0-10.9.4-16.4-1.1s-11.6-6.6-13.2-6.8-5.5,5.2-8.3,6.4c-13,5.5-30.7.2-42.3-6.7l-11.7-7.8c-4,21.4-31.2,15.1-45.4,7.9-1.7-.9-9-6.4-9.6-5.8,7.8,25.7-.6,55.1-28.4,63-11.1-22.7-43.6-13.5-46.6,9.9-11.1-14-12.5-35-5.8-51.3s6.1-9,6.6-11.5c.7-3.7-1.3-14.3-.9-19.8,2.1-26.4,27.2-58.3,56.3-54.2,2.1.3,6.5,2.4,7.3,2.4,1.2,0,15.2-11.5,19.1-13.5,29.8-15,77.2-12.1,106.4,3.4,3.9,2.1,17.4,13.1,18.7,13.4s3.8-.9,5.8-.9c42,1,39.9,54.5,23.4,81.4-1.8,2.9-5.6,6.1-6.8,8.7Z"/>
  <path class="st18" d="M147,220c4.7,0,8.4,5.6,12,8,3.6,2.9,4.6,5.3,3,7,5.6,9,12.2,17,19.7,24.1,13.7,10.1,41,8.4,47.3-9.1-2.3-1.9-2-2.8,1-3,1.3.5,23.8-2.4,27-3,25.4,15.2,45.4,40.5,57.1,67.4-1.2.7-2.1,1.9-3.1,2.6v2.5c-5.6,4.6-43.1,28-46.8,25.6s-.8-.7-1.2-1.1c-.5,2.9-5.3,2.7-6,0l-1.2-3.8c4.1-15.4,6.4-31.1,7-47-1.4,17.9-4,34.8-7.8,50.7,1.8-.1,2.4.5,1.9,2.2-3.3,11.8-4.9,23.6-4.9,35.6l-2,2.2-1.5,2.1c-7.3,1.5-14.4,3.9-21.3,7.2l-2.3-1.3c-1-1.6-.7-3.9,1-6.8-1-3.2-.6-5.2,1-6.2-4.1-6.7-9-13.6-15.8-17.7l-.2-2.3-2.5-2.2c-3.4-10.8-7.2-21.8-12.8-31.7-1.3.3-9.3,2.7-9.3,3.2.4,5.6,5.5,17.1,8.2,22.8.4,2.9-.6,5-3.6,3.8,0,.5.2,1.1,0,1.6-.4,3.4-26.5,12.2-31.5,8.4-7.2-3.2-13.9-5.9-21.9-6.7l-.8-2.4c-2.9,0-8.4-.5-8-4-3.1-1.5-5-9-2-11,0-1-.3-1.7-1.2-1.9-20-4.8-40.5-8.1-60.8-11.1-.3-.8-2.3,0-1.9-4.3,3.4-41,37.1-79.1,72.9-96.2s9.5-4.5,11-4.5Z"/>
  <path class="st11" d="M76,396c4.8-.6,9.3.7,13.5,4.1,21.4,6.2,46.3,5.4,68.1,1.9,9.1.4,18,2.3,26.7,5.7l.7,2.3c4.2-.3,8.7.9,13.4,3.3,2.7-.6,4.6,0,5.6,1.7,18,10,29,35.4,22.9,55.9s-2.4,7.6-4.9,9.1c4.7,6.7-8.3,12.4-13.8,13.9-44.4,12.1-89.4,7.8-133.1-1.5-4.4-.9-16.1-3.5-10-8.4-.9-.5-1.8-1.1-2.2-2.1-2.9-7.8,9.1-38,13.9-46.4l2.2-.5,2.7-1.1c6,1.2,11.9,2.7,17.6,4.5-3.6,10.4-6.9,20.9-10,31.6,3.8-10.7,8.1-21.1,12.8-31.3,18.1,2,36.1,4,54.1,5.9-26.1-3-51.9-7.2-77.2-12.6-4.2-3.1-8.4-4.2-13.8-4.7l-1.2-2.3c-2-10.1-4.9-20.7-2-31,2.7-1.4,13-1.4,14,2Z"/>
  <path class="st34" d="M127,338l2,11-1.7,1.6c-5.7-2.1-11.6-3.2-17.6-3.2l27.3,5.7c4,1.5,8.1,1.3,11.3,2.2s11.9,5.7,16.2,5.8,22.1-5.3,26.5-9c2-1.1,2.9,0,3,2,.2,1.6.8,2.6,1.8,2.9l16.2,5.2c7,2.4,11.8,7.3,15,13.9,1.7,7.6,1.4,6.6-2,13,0,4.6-2.9,12-8,11-2.4,1.4-2.4,1.7,0,1,3.2,1.1,2.3,4.6-1,4-3.1,3.4-7.3,5.4-12.6,6.1-3.5,2.8-8.3,2.4-14.3-1.2h-4.2c-6.4-1.9-18.2-5.6-24.5-5.9-4.6-.2-11.1,1.9-15.9,2.1-13.5.6-40.8,1-53.1-3s-8.5-5.8-15.4-7.1c-12-14.5-15.5-31.3-14-50,.7-5.3,2.6-12,3-17l1.1-2.9c15,.9,30,3.5,44.8,7.9,6.1.3,11.5,1.7,16.1,4Z"/>
  <path class="st34" d="M407,431c-2.4-.7-2.4.6,0,4-.6,4.5-.9,4.4-2,8-1.9-.8-2.2.5-1,4-.1.6,0,1.4,0,2-5.7,4.7-11.7,2.9-18,1l-2.1,1.4-13.7-5.2-1.2-2.2c-3.5-1.7-3.5-1.3,0,1,3.8,5.3-7.3,12.5-12.4,13-9.5.9-33.4-13.2-34.6-24.5-4.1-4.8-7.1-9.9-9-15.5-9.1-7.2-17.2-18-21-29l-4.2-2.5c-5.5-7.3-25.1-35.9-25.1-42.8s.1-1.7.3-2.6c8.6-1.4,40.5-20.9,48-27,19.2,28.4,33.5,59.8,47.4,91.1,2.6,2.8,21.2,5.4,26.8,7.2,5.9,1.8,22.5,8.4,22.9,15.3s-1.1,3.2-1.1,3.4Z"/>
  <path class="st25" d="M369,445c-.8-.2-.8-.6,0-1,5.8.7,11.7,4.4,17,6l-1,1c3.9.6,5.3,1.1,3,5-1.1,2.7-4.7,1.1-6.6,0-58.9,13.8-117.9,29.8-173.3,54.4-.5.4,9.5,5,11,4.5l.9,2.3c-2.7,4-7.7,3-11.5,2-2,5.5,7.1,6.3,10.1,8s1.8,2.6,2.4,3.1c-8.5-.3-19.7-12-26.6-12.9-4.3-.6-7.1.9-10.9.9-45.2.7-99.6,1.1-143.4-9.7-8-2-32.3-9.1-37.1-14.9s-2.5-17,5.9-14.4l1.7,1.5c-4.3,12.1,11.7,10.9,19.3,10.2s20.4-3.1,28.9-8.1c2.7-1.2,5.6-2.1,6.1,1.4.1,1-.2,2,.5,3,1.9,2.9,34.5,8.1,40.2,8.9,29.8,4,73.5,6.5,101.9-3.8s10.3-4.1,12-6,1.6-4,2.4-6.1c1.5-2.1,2.6-2.9,3.6-.5l8.4.5,1.6-2.1c20.1-2.8,65.4-10.3,75.3-29.6,2.3-9,2.4-18.5.1-28.5l1.9-1.8c3.4,4.7,7.3,9.2,10.4,14.1s2.2,7,5.5,10.5,21.1,13.7,26.6,13.5c5.1-.2,12.8-5.8,13.5-11.1Z"/>
  <path class="st36" d="M79,432c3,0,2.8,2.3,0,3-1.3,5.1-6.7,14-8.7,19.8-3.1,9-6.2,19.7-5.3,29.2-3.7-1.8-8,2.5-11.7,3.8-9.4,3.3-32.2,8-41,3.4s-4.8-6.8-3.3-12.2c3.7-13.1,25.1-32,36.1-40.4s13.3-8.2,18.9-13.6c5.1,1.4,14.5.7,15,7Z"/>
  <path class="st8" d="M62,346c1.6,6.6,1.1,13.5,2.3,20.2s6.7,21.4,13.6,28.1,1.9.7,3.1.7l-5,1c-4.7-.8-8.8.2-14-2s-4.9-2.3-4.9-4.4c1.9-14.5,3.1-29.1,4.9-43.6Z"/>
  <path class="st22" d="M65,325c22.4.2,44.4,5,66,10.5l-4,2.5c-18.5-.6-38.1-8.5-55.6-10.9-2.5-.3-5.2-.9-6.4,1.9,0-.9.2-3.4,0-4Z"/>
  <path class="st30" d="M405,443c-.4,1.3-.8,2.7-1,4-8.5-9-21-11.9-31.3-18.2s-1.3-5.8,2.3-4.4c9.5,7,22.7,8.9,30,18.6Z"/>
  <path class="st35" d="M407,431c0,1.3.2,2.8,0,4l-29-15.5c-1.5-7.5,12,.8,14.7,2.3,5,2.8,9.3,6.5,14.3,9.2Z"/>
  <path class="st2" d="M388,456c39.6,11.6,81.6,23.7,120.5,37,3.7,1.3,9.3,2.5,12.2,4.7s2.6.7,1.2,2.3-17.1,7.7-19.7,8.8c-41,16.9-85.8,33.5-127.7,48.3-9.2,3.2-25.7,10.1-34.3,11.7s-3,.5-4.5,0c-39-16.3-77-35-115.7-51.8s-3-.3-4.5-.9c-2.7-1.1-11.3-3.9-9.4-6.9,55.7-26.2,115.9-40.1,175.3-55.1,2.1,1.2,4.5,1.4,6.6,2Z"/>
  <path class="st39" d="M230,247c-.6.9-.8,1.9-1,3-1.3,3.8-2.9,5-6,7-16.8,10.4-51.5-6-61-22-1-2.4-2.5-4.5-3-7,13.6,9,32.2,14.4,48.4,16.2s14.8,0,22.6,2.8Z"/>
  <path class="st9" d="M211,194c1.9-1.9,9.6,7.4,11.7,8.8,8.4,5.7,18.9,6.8,28.9,6.2s8.8-3.9,9.5.4c-11.6,8.5-29.3,7.1-40.5-1.5s-12.2-11.2-9.5-14Z"/>
  <path class="st16" d="M250,190c-1.3-6,6.4-5.4,9.7-9.3s2-9.4-3.4-11.4-7.3.7-6.1-3.6c1.7-6.5,15.4.9,17.7,5.1,4.2,7.8-8.8,22.2-17.8,19.3Z"/>
  <path class="st6" d="M215,117c-1.7,2.6-8.4-.7-10.6-.9-12.3-1.4-18.5,11.9-21.9,12s-1.6-5.3-.3-7.4c4.4-6.9,15.2-11.6,23.2-10.6s12,3.3,9.6,6.9Z"/>
  <path class="st17" d="M272.2,110.2c1.9-3.3,14.5-3.7,18.1-2.9s22.1,14,12.2,14.8c-3.4.3-3.4-2.9-5.4-4.6-3-2.5-7.9-4.9-11.8-5.3s-9.4,3.4-11.6,2.7-2.2-3.4-1.4-4.8Z"/>
  <path class="st20" d="M201.7,153.2c5-.8,18.9,2.3,14.3,8.3s-5.9-3.1-11.5-2.5-10.2,10.3-14.2,7.1,6.9-12.1,11.3-12.8Z"/>
  <path class="st16" d="M271,162c-1.7-8.3,11.9-11.8,18.3-10.8,3.6.6,13.5,5.3,10.3,9.8-2.8,3.9-7-2.8-9.5-3.6-9.3-2.9-11.2,4.8-19.1,4.5Z"/>
  <path class="st11" d="M250,381l1.1-2c13.6,1.5,28.8,3.7,40.9,10,6.8,9.8,14.1,19.3,21,29,.5,15.8,6.9,28.3-7.5,40s-53.2,21-71.5,22l-9.8-.5c9.5-22.2,5.2-44.9-13.7-60.9-2.4-4,5.8-8.2,8.5-5.6l2.1-.6,7.9,8.4c.3-2,1.3-2.9,3-2.8.5-4.5,2.4-6.3,6.6-7.6,25.3-8.6,6.2-5.3-5.6,0l-2-1.4-2.3-.6c-2.4-5.1-5.5-14.1-3.7-19.4,7.4-2.7,17.1-7.8,25-8Z"/>
  <path class="st28" d="M263,341c7.4,17.2,18.4,32.7,29,48-8.5-1-16.4-4.2-24.8-5.7s-13-2.4-17.2-2.3c.2-4.5-.3-9,0-13.5s5.8-25.5,5-26.5c.6-1.9,1.4-1.9,2,0,1.9-.2,5.6,0,6,0Z"/>
  <path class="st34" d="M229,250c-1.8,8.8-1.7,10.4-10.7,13.8-28.2,10.7-45.9-4.2-56.3-28.8l11.1,9.4c16,10.6,39.9,22,55.9,5.6Z"/>
  <path class="st38" d="M211,356c-1.7,1.3-4,1.5-6.9.5-4.8.6-8.1-.2-10.1-2.5-1.8-.2-2.1-.2-3-2,3.9-3.3.3-4.3-.5-7-2.1-6.8-3.9-13.7-6.4-20.4.3-1.1,11.2-4.8,12.3-4.5,2.8.8,14.2,30.9,14.7,35.9Z"/>
  <path class="st15" d="M255,341c0-.1-1.9.3-2-.6-.2-2.2,4.1-18,4.8-22.2,1.9-12.6,3.4-25.5,3.3-38.2h3c2.7,20.5-2.7,41.1-7,61-.7,0-1.3,0-2,0Z"/>
  <path class="st10" d="M211,356c6.9,2.7,14.4,12.8,16,20-4.5-5.2-7.8-8.4-14.1-11.4s-18.6-4.9-20.4-7.6.5-1.9,1.5-3c5.9.6,11-.3,17,2Z"/>
  <path class="st40" d="M149,288c.4,12.7-1.4,25.7-4.5,38s-1.3,11.6-7.5,12c3.3-12.7,6.6-25.4,8-38.5s-2.2-12.3,4-11.5Z"/>
  <path class="st7" d="M129,349c3,1,5.1,2.9,8,4-2.4,1.7-7.5.3-10.3-.2-6.9-1.1-13.6-3.4-20.7-3.8-1.1-7.7,18.4-1.5,23,0Z"/>
  <path class="st33" d="M79,432c1.4-2.4.8-1.6,2.8-1.4,6.3.7,12.8,3.1,19,4.1,18.1,3,36.4,4.5,54.5,7.5s2.8,5.4-1.8,4.8l-50.4-7-17.1,43.9c-.4-16.3,5.8-30.3,12-45-6.4-.8-13.1-1.4-19-4,.2-.6,0-2.2,0-3Z"/>
  <path class="st33" d="M219,413l-8,3.5c16.3,13.5,25.1,34.7,17.5,55.5s-3.1,4.3-3.5,7l9,1c-4,.2-8-.2-12,0,8.2-20.6,5.3-40.2-10.5-57s-6.9-4-7.5-8c-.8-3.6,7.9-7.5,11-7,3.2-.3,5,1.9,4,5Z"/>
  <path class="st37" d="M215,408c-.4.5-10.4,6.9-11,7-6.8,1.4-12.9-3-19-5,2.5-5.2,12.5,2.2,14.4,1.8s1.9-2.1,3.4-2.6c4.3-1.5,9.2-1.8,13.2-4.3,2.6,1.4,2,3.5-1,3Z"/>
  <path class="st14" d="M231,409c4.4,1.5,2.7,5.6,1,9-.6,1-.8,5.5-3.4,5s-8.2-8.4-9.6-10-2.8-3.3-4-5c.7-.8.7-2.1,1-3,.6-1.5,1.3-1.7,1-4-.9-.3-.9-.6,0-1,3.5-2.9,5.9-7,8-11-.8,1.1,5.3,17.2,6,20Z"/>
  <path class="st3" d="M196.1,378.9c-.6-1.7-.3-5,2.2-4.7l21.6,9.4c3,1.5,2.9,6-1,5-6.7-1.7-15.5-8-22.8-9.7Z"/>
  <path class="st37" d="M217,400c.1.2,0,.6,0,1-1.2.9-.2,3.1-2.5,3.1s-20.3-7.5-20.5-8.6c-.6-3.1,1.9-3.9,4.4-3.5s18.1,7.1,18.6,8Z"/>
  <path class="st31" d="M369,444c0,.3,0,.7,0,1-4.4,2.2-19.2-10.6-11.4-11.9s11,8.2,11.4,10.9Z"/>
  <path class="st1" d="M332,494c-4.3-14.4,4.8-4.5,12-4,0-1.8-2.8-1.3-4-2.5-3.3-3.1.6-4.8,4-4.1s4.3,5.1,9.2,2.4.8-10.8,10.2-11.8,14.8,4.7,23.2,8.8c5.7,2.8,15.4,2.2,17.1,11,3,15.6-31,25.5-42.8,26.3-1.7,1.5,13,12.4,5.5,13.1s-7.9-10.8-11.2-11.9-7.5.2-10.7-.3c-5.7-.8-15-3.7-18-9s-1.4-6.6-1.7-6.8c-.6-.5-12.5-1.7-15.1-2.4-5.7-1.5-11-4.7-16.8-4.7-.4-2.8.3-1.5,1.5-2s4.7-2,5-2h32.5Z"/>
  <path class="st23" d="M332,525c-6.4,1.5-16.9,0-16,9l38-8c-.5,4.5-7.9,3.3-10.9,5.6s-2.3,6-8.1,4.4l2.5-4c-3.1,1.7-25.2,7.2-26.5,6l2-9c-1.7-.8-7.3,1.6-8,1-1.2-1.1,1.3-2.6,2.4-3.1,1.8-.8,21.8-5.1,22.9-4.8s1.9,1.6,1.6,2.9Z"/>
  <path class="st24" d="M408,507c.1-1.2-.6-2.1.6-3.1s18,.6,20.9,1.1,3.1,4.1-.9,4c-6.3,0-14-2.7-20.6-2.1Z"/>
  <path class="st13" d="M411.9,516.1c.2.4.2,2.8,0,2.9-.7.7-17.5-3.2-18.4-3.9s-.4-2-.6-3.1c1-1.1,18.4,3.3,18.9,4.1Z"/>
  <path class="st19" d="M232,418c.1-3-.3-6.1-1-9l18.9-6.5c7.3,1.3,3.2,4.6-1.2,6.7-6.4,3.1-12.5,2-16.7,8.8Z"/>
  <path class="st12" d="M366.8,486.3c8.3-.9,21.4-.9,28.6,3.9,13.4,9-8.1,19.7-16.1,22.6-11.7,4.3-32.4,7-43.7,1.1s-6.4-4.4-5.6-9.3c1.5-9.3,28.5-17.4,36.8-18.3Z"/>
  <path class="st4" d="M330,497c-1.3,7.7-10.7,4.1-16,2.5s-4.8-.9-5-2.5h21Z"/>
  <path class="st29" d="M377,482c-3.1.3-7.1-1.5-9-4,3.3,0,7.4.7,9,4Z"/>
  <path class="st5" d="M379,504c.2.1,1.2,3.8,1,4-3.5,1.3-8.1.4-11.3,1.2s-3,2.5-4.4,2.6c-3.8.4-3.7-5.6-2.3-7.9,1.8-.2,2.6,1.7,4.3,1.7s12.2-2.1,12.7-1.7Z"/>
  <path class="st21" d="M378,491c.5,5.3-5.1,5.6-9,4,.3-4.8,5.4-4.1,9-4Z"/>
  <path class="st32" d="M347.7,499.2c1.9-.6,6.9-.5,6.3,2.3-4.2,5.8-12.7-.3-6.3-2.3Z"/>
</svg>