<?xml version="1.0" encoding="UTF-8"?>
<svg id="Calque_1" xmlns="http://www.w3.org/2000/svg" version="1.1" viewBox="0 0 717 1075">
  <!-- Generator: Adobe Illustrator 29.5.1, SVG Export Plug-In . SVG Version: 2.1.0 Build 141)  -->
  <defs>
    <style>
      .st0 {
        fill: #f57f40;
      }

      .st1 {
        fill: #2d3547;
      }

      .st2 {
        fill: #484b64;
      }

      .st3 {
        fill: #faf8eb;
      }

      .st4 {
        fill: #191e2e;
      }

      .st5 {
        fill: #2b3446;
      }

      .st6 {
        fill: #ba4325;
      }

      .st7 {
        fill: #faf7eb;
      }

      .st8 {
        fill: #191f31;
      }

      .st9 {
        fill: #1a1f2f;
      }

      .st10 {
        fill: #2d3546;
      }

      .st11 {
        fill: #383e51;
      }

      .st12 {
        fill: #faf8ec;
      }

      .st13 {
        fill: #fcb376;
      }

      .st14 {
        fill: #f57e40;
      }

      .st15 {
        fill: #3a4053;
      }

      .st16 {
        fill: #192132;
      }

      .st17 {
        fill: #fcf9e9;
      }

      .st18 {
        fill: #fefaea;
      }

      .st19 {
        fill: #feefc4;
      }

      .st20 {
        fill: #2c3546;
      }

      .st21 {
        fill: #2c3547;
      }
    </style>
  </defs>
  <path class="st4" d="M220.8,86.3c23.5-2.5,46.6,2.5,69.7,4.7,74.3,7.3,148.9,14.1,223,23s81.2,7,104.4,20.6c38.9,22.7,42.7,64.9,39,105.8-6.4,69.7-23.9,141-31,211-26.4,148.9-41.4,300.1-68.1,448.9-6.8,37.7-15,74.6-56.9,87.1-25.9,7.7-77-2.4-105.1-6.4-44.7-6.4-89.5-13.7-134-21-44.7-7.3-95-14-138.6-24.4-64.5-15.3-76.9-47.5-69.9-110.9,16.7-150.7,49.9-302.3,68-453,9.7-56.8,16.6-114.1,26-171,7.9-47.6,12.9-107.9,73.6-114.4Z"/>
  <path class="st2" d="M220.8,98.3c19.7-2.2,47.5,1.8,67.7,3.7,31.4,3,62.7,7.7,94,11,58.7,6.2,128.9,8.5,185.7,21.3,47,10.6,50,48.6,43.7,90.1-32,210.9-61.5,422.2-95.1,632.9-8.4,52.6-10.7,117.9-81.2,114.8-42.8-1.9-96.6-12.5-139.7-19.3-65.3-10.3-131.4-20.8-195.4-36.6-27.4-11.7-38.2-34.8-38.1-63.7,30.1-230.1,68.5-459.1,102.1-688.7,5.2-31.3,22-61.6,56.5-65.5Z"/>
  <path class="st15" d="M472,979l12.9-7.6c34.9-24.8,36.7-76.6,42.9-116.1,32.2-203.5,64.3-407.8,92-612,3.8-28.2,10.8-60.3-3.4-86.4l-10.5-16c10.8,5.4,20.6,13.1,27.2,23.3,18.6,28.7,13.6,61,9.7,93.1-16,130-39,259.8-58.7,389.3-10.1,66.5-18.9,133.3-29.3,199.7-4.8,30.8-10.6,90.9-31.3,113.7-6.5,7.1-27.6,19-37,19h-14.5Z"/>
  <path class="st9" d="M223.8,154.3c18.6-.6,41,3.8,59.7,5.7,77,7.7,154.7,16,231.1,26.9,22,3.1,49.2,1.9,63.8,21.2,11.6,15.3,8.6,30.6,6.5,48.3-7.4,62.4-18.7,125.9-27.7,188.3-16.6,114.9-32,230.2-51.4,344.6-2.8,16.5-5.2,36.1-9,52-10.1,41.7-42,36-76.1,31.6-54.5-7-110.6-16.4-165-25-38.5-6.1-79.9-11.4-117.9-19.1-10.8-2.2-21.8-4.7-30.9-11.1-27.5-19.3-15-50.2-11-77.3,20.3-139.2,40-278.6,61.3-417.7,6.1-39.9,10.8-87.3,20.2-125.8,5.9-24.4,19.7-41.6,46.5-42.5Z"/>
  <path class="st16" d="M243.7,869.2c6.4-1.1,14.2.2,20.6.9,12.1,1.4,39.6,4.9,50,9,24.9,9.7,17.5,46.9-9.9,47-10.9,0-34.1-4.3-45.7-6.4s-27-4.5-32.3-19.7c-4.3-12.5,4-28.5,17.2-30.7Z"/>
  <path class="st8" d="M450.6,144.4c4.3,4.3,2.9,13-3.4,14.4-39.3-1.6-78.3-8.8-117.6-12-5.3-2.3-8.1-6.5-5.6-12.2s7.9-4.8,13.4-4.6c32.9,1,68.6,10,101.9,11,3.7,1,8.2.4,11.2,3.3Z"/>
  <path class="st19" d="M222.8,165.3c18.5-1.7,50.1,3.6,69.7,5.7,43.7,4.6,87.3,10.8,131,16,39.7,4.7,82.6,6.6,121.7,14.3,28.6,5.6,33.7,22.4,30.6,49.1-5.9,50.6-15.5,101.7-22.7,152.3-7.9,55.2-15,110.6-23.3,165.7-12.6,84.2-24.1,172.5-40.1,255.9-4.2,21.9-6.9,39.8-33.2,41.8-7.7.6-18-1.2-25.9-2.2-87.1-10.2-177.8-26.5-264.4-41.6-26.1-4.5-65.4-3.2-66.9-38.9,21.7-145.9,42.1-292.2,64.4-437.9,6.9-44.9,12.7-92.3,21.5-136.6,4.7-23.6,10.1-41.1,37.5-43.5Z"/>
  <path class="st11" d="M249.8,878.3c7.5-1,26.2,2.5,34.6,3.9s24.2,2.9,30.2,8.8c9.7,9.5,2.6,25.1-11,25.1s-30.4-3.5-40.9-5.2-28.4-5.1-26.6-20.4,6.8-11.3,13.8-12.2Z"/>
  <path class="st18" d="M468.1,615.1c-3.2,5,9.9,18.6,3.9,25.4s-11.2-2.4-14.4-4.7c-5.5-4-10.7-9.7-15.1-14.9s-3.9-8.6-8.5-9.5l-233.3-31.7c-28.2-4.2-41.8-19.1-39.7-48.1,11.6-63.6,15.6-130.6,28.2-193.8,4.7-23.7,15.6-39.3,42.2-38.9,35.5.6,74,10.7,109.8,12.2,41.4,6.8,83.4,10,125,16,28.7,4.1,64.9,5.1,64.7,43.3l-30.3,211.8c-3.7,12.1-10.4,24.2-22.4,29.6s-9.9,2.8-10.2,3.3Z"/>
  <path class="st13" d="M299.7,427.2c7.6-1.2,11.3.9,17.9,1.7,23.3,2.7,51.1,4.8,73.6,10.4s22.5,15.6,21.8,32.2-5.1,44.4-8.2,62.8c-3.9,23.4-8,40.8-36.4,39.6-19.2-.8-46.6-5.6-65.9-9.1-28.6-5.2-39.6-9.2-36.6-41.3,6-23.3,4.9-51.8,11.5-74.5,3.1-10.6,10.9-19.9,22.3-21.7Z"/>
  <path class="st5" d="M251.9,343.1c1.4,1.2,6,30.6,7.1,34.9,6.1-4.6,12.9-26.8,17.4-30.1s7.2-.2,10.5.1l-6,42.9c-2.9-.2-7.5,1.3-8-2.5s4.6-19.9,4-26.5l-15.2,25.8c-.7.4-5.3.5-6.2.3-1.5-.4-6.2-27.3-7.6-31.1l-4,30c-.4.4-7.6-.8-7.9-1.1-1.4-1.6,5.6-37.7,6-42.8.4-.3,9.4-.3,9.8,0Z"/>
  <path class="st1" d="M438,383c1.9,0,1.3-4.5,2-5s6.4,1,6.7,2.4c-2.6,8.5-1.5,28.2-5.9,34.9-5.7,8.9-29.6,7.3-27.9-6.4,2,1.4,5.2.4,7,1.5s1.3,3.1,3.9,4c8.4,2.9,11.7-3.3,12.1-10.6-16,13.1-27.1-4.9-19.4-20.9s18.1-9.7,21.4,0Z"/>
  <path class="st21" d="M477.9,400.9l-21.9-2.9c-.1,3.7,1,8.3,4.9,9.5,7.6,2.4,8.6-4.7,16.1-1.5-4.8,13.8-27.8,9.2-28.5-5.5-1.2-27.1,35.4-26,29.4.4Z"/>
  <path class="st20" d="M318,381l-22-3c-.6,4.1.5,9.2,4.9,10.6,5.7,1.8,9.5-4.7,16-2.6-4.4,12.8-25.4,11.3-27.8-1.7-5.5-30.3,32.6-32.1,28.8-3.3Z"/>
  <path class="st1" d="M406.9,405.9c-.9.6-4.8.3-5.9-.3v-4.5c-17.6,14.5-31.6-15.2-5.5-15,2.2,0,6.3,2.7,7.4-.6,1.9-5.8-4.6-7.2-9-5.9s-1.8,2.4-2.6,2.6c-2.4.5-4.9-1-7.3-1,1.7-11.4,21.7-10.6,25.2-1.7s-.9,25.6-2.4,26.6Z"/>
  <path class="st1" d="M349,376c-8.2,1.5-6.2-1.5-9-4.5s-12.3.9-8,5,18.1,3.1,15.9,13.7-27.1,10.2-27.8-3.3c7.4-1.7,6.6,1.9,10,4.5s7.5,2.1,9.9-1.1c1.6-5.7-13.8-6-16.2-11.6-7.2-16.7,23.9-19.1,25.2-2.8Z"/>
  <path class="st10" d="M380,380c-8.4,1.2-5.6-.7-8.5-4-4.2-4.7-12.6-.2-8.5,4.5s18.2,1.5,14.7,14.7-28.2,8.7-26.7-5.3c1.9.7,5.4.6,7,1.5s5.2,8.2,10.4,4.4c8-5.8-11.5-8.4-13.9-14-6.7-15.7,24.5-18.2,25.5-2Z"/>
  <path class="st6" d="M343,470c1.5,2,1.7-.7,2.1-1.4,1.6-3.3,2.3-6,4.9-9.1,16.6-19.2,41.1,2.9,22,19.5,16.7,1,19.6,4.5,18,20.5-.5,4.9-1.5,17.1-8,15.5-1.1,8.9-1.6,20.7-4.3,29.2-3.6,11.1-12.2,10.3-22.2,9.8s-34.4-4.2-47.7-7.3c-15.3-3.5-19.1-3.9-17.8-21.2s4.2-18.2,3.6-22.1-2.2-2.3-2.8-3.7c-1.2-2.6,1.4-19.6,2.5-23,3-8.9,13.2-7.2,20.7-5.8-13.8-21.4,17.1-34,27-10.5s1.7,9.1,2,9.5Z"/>
  <path class="st17" d="M428.7,383.2c11.3-1.8,10.7,19.2.7,19.8-10.2.7-9.6-18.4-.7-19.8Z"/>
  <path class="st12" d="M472,395c-4.3-1.1-20.8.3-12.3-6s12.1-.9,12.3,6Z"/>
  <path class="st3" d="M311,375l-15-1.5c3.7-8.7,15.1-9.4,15,1.5Z"/>
  <path class="st7" d="M402,392c.8,11.1-17.1,8.1-12.1,1.4s7.9-.9,12.1-1.4Z"/>
  <path class="st0" d="M374,514c-1.4,7.9-1.2,18.9-3.2,26.3s-3.2,5.2-6.3,5.7l-22.5-3,5-32,27,3Z"/>
  <path class="st14" d="M328,508l-4,33c-4.7-1.4-22.8-3.2-25.1-6.4-3.3-4.6,3.2-23.1,2.1-29.6l27,3Z"/>
  <path class="st0" d="M379.9,505.9l-30.9-3.9,2-17c4.9,1,27.4,1.6,30.1,3.4s-.5,14.5-1.2,17.4Z"/>
  <path class="st0" d="M332,482l-2,16.9-30.9-3.9c1.9-3.5.2-15.8,4.7-16.8s22.2,4.7,28.3,3.9Z"/>
  <path class="st13" d="M351,475c1.5-5.5,8.5-16.6,15-14.6s5.6,9.4-.1,13c-5.4,3.4-9,2.3-14.9,1.6Z"/>
  <path class="st13" d="M336,473c-4.3-.3-9.4-.9-12.9-3.6-12.6-9.3,4.2-22.6,11.1-4.1s1.2,5.2,1.8,7.7Z"/>
</svg>