<?xml version="1.0" encoding="UTF-8"?>
<svg id="Calque_1" xmlns="http://www.w3.org/2000/svg" version="1.1" viewBox="0 0 770.7 794.3">
  <!-- Generator: Adobe Illustrator 29.6.0, SVG Export Plug-In . SVG Version: 2.1.1 Build 207)  -->
  <defs>
    <style>
      .st0 {
        fill: #1d2c4a;
      }

      .st1 {
        fill: #facc15;
      }

      .st2 {
        fill: #e0aa50;
      }

      .st3 {
        fill: #bfaeff;
      }

      .st4 {
        fill: #845022;
      }

      .st5 {
        fill: #212c4e;
      }

      .st6 {
        fill: #1c2a42;
      }

      .st7 {
        fill: #dad7e2;
      }

      .st8 {
        fill: #b87a2e;
      }

      .st9 {
        fill: #cef7ff;
      }

      .st10 {
        fill: #4a82db;
      }

      .st11 {
        fill: #7f5dc9;
      }

      .st12 {
        fill: #f3feff;
      }

      .st13 {
        fill: #1f2d4e;
      }

      .st14 {
        fill: #b194ff;
      }

      .st15 {
        fill: #02010f;
      }

      .st16 {
        fill: #202e4e;
      }

      .st17 {
        fill: #a985e8;
      }
    </style>
  </defs>
  <path class="st5" d="M237.4,670.1c-31.8-24.9-58.2-56.9-70.5-96-26.1-83,9.5-160.9,70.5-216.5,12.6-11.5,45.2-32.4,52-45s3.8-36.6,4.8-53.9c-9-4.8-17.3-9.2-22.7-18.3-11.9-20-5.1-45.3,16.1-55.5s14.7-4.6,21.5-7.3c-5.2-27.1-23.6-62.8,14.4-72.8,31-8.1,95.1-8.4,125.8.8,35.2,10.5,16.8,47.4,12,72.5,18.9,3.2,38.2,11.2,42.8,31.8,4.9,22.4-6.9,40.6-27.7,48.2-.8,14-.7,29.7-.5,44.3s-.1-1.1.5-1.3c1.8,3.9,2.6,7.9,4.8,11.7,7.4,13,41.9,35.4,55.2,47.8,57.3,53.2,89,123.3,70.5,202.5-10.3,44-38.5,79.7-73.5,107l-.2,2.2c-71.6,50.1-167.7,59-250,24.9s-38.2-16.7-44.1-24.4-1.2-1.8-1.7-2.8h0Z"/>
  <path class="st7" d="M237.4,670.1c76.7,53.2,183.9,60.6,267,17.5,7.9-4.1,22.3-15.3,29-17.5s4.8-1.2,7.5-1c13.3.8,50.2,8.9,60.9,16.2,15.7,10.7-5.3,19.3-15.1,22.6-43.7,14.5-112.1,15.8-158.8,17.2-70.7,2.1-156.6,3.3-225.6-12.3s-62.3-17.5-23.3-32.7,13.7-4.1,20.3-5.7,29.6-6.9,38.2-4.3h-.1Z"/>
  <path class="st1" d="M158.1,114.9c1.1.7,1.4,1.9,2.1,3.9.8,2.5,1.5,5.6,2.4,8.5,1.3,5,2.8,9.7,5.5,14.5,4,7.9,11.2,14,19.2,17.8,4.2,2.1,9.4,3.7,13.5,5.6,4.9,2.2,5,4.7.2,7.2-6.4,3.1-13.6,5.4-19.4,9.5-4.7,3.1-9,6.9-11.8,11.3-3.6,5.7-5.6,12.5-7.7,18.9-2.8,9.4-5.5,14.1-8.7,1.4-4.2-19.9-18.9-34.8-38.4-40.6-2.4-.8-4.8-1.4-7.1-2-1.3-.4-3.7-1.1-3.6-2.3,0-.9,2.1-1.8,4.9-2.8,3.2-1.1,7.2-2.2,10.7-3.2,9.3-2.6,18.3-8.2,24.1-15.8,3-4.1,5.2-9.3,7.1-13.9,1.6-4.3,2.4-8.5,3.5-12.7.5-1.7,1.2-6,3.4-5.3h0Z"/>
  <path class="st1" d="M272.8,14.5c.5.3.7.9,1,1.9.4,1.2.7,2.7,1.1,4.1.6,2.4,1.3,4.7,2.6,6.9,1.9,3.8,5.4,6.7,9.2,8.5,2,1,4.5,1.8,6.5,2.7,2.3,1.1,2.4,2.2,0,3.4-3.1,1.5-6.5,2.6-9.3,4.5-2.2,1.5-4.3,3.3-5.7,5.4-1.7,2.8-2.7,6-3.7,9.1-1.4,4.5-2.6,6.8-4.2.7-2-9.5-9.1-16.7-18.4-19.5-1.2-.4-2.3-.7-3.4-1-.6-.2-1.8-.5-1.7-1.1,0-.4,1-.9,2.3-1.3,1.5-.5,3.5-1.1,5.2-1.5,4.5-1.2,8.8-3.9,11.6-7.6,1.4-2,2.5-4.5,3.4-6.7.8-2.1,1.2-4.1,1.7-6.1.3-.8.6-2.9,1.6-2.5h0Z"/>
  <path class="st1" d="M500.2,52c.7.4.9,1.2,1.3,2.3.5,1.5.9,3.4,1.4,5.1.8,3,1.7,5.9,3.3,8.7,2.4,4.8,6.8,8.4,11.6,10.7,2.5,1.3,5.7,2.3,8.1,3.4,2.9,1.3,3,2.8.1,4.3-3.8,1.9-8.2,3.2-11.7,5.7-2.8,1.8-5.4,4.2-7.1,6.8-2.2,3.5-3.4,7.6-4.6,11.4-1.7,5.7-3.3,8.5-5.3.9-2.6-12-11.4-21-23.2-24.5-1.5-.5-2.9-.8-4.3-1.2-.8-.2-2.2-.7-2.2-1.4,0-.5,1.3-1.1,3-1.7,1.9-.7,4.4-1.3,6.5-1.9,5.6-1.6,11-4.9,14.5-9.5,1.8-2.5,3.2-5.6,4.3-8.4.9-2.6,1.5-5.1,2.1-7.7.3-1,.7-3.6,2.1-3.2h0Z"/>
  <path class="st1" d="M597,164.1c2.1,1.6,2.6,6.2,3.6,9.2,1.3,4.7,2.5,9.6,4.8,13.9,4,7.8,11.3,14.6,19.2,18.9,4.9,2.8,10.9,4.7,15.9,6.7,4.3,1.7,6.9,3.8.9,6.4-5.2,2.3-11.7,3.9-16.8,6.9-9.4,5.2-17.1,14.3-21.7,23.7-2.6,5.1-3.1,11.6-6.4,16.2-.4.4-.7.8-1.2.8-.4,0-.4-.2-.7-.3-.8-.8-1.1-1.7-1.7-3.1-2.4-6.1-4-13.5-7.6-19.3-6-10.7-14.8-17.6-25.8-21.5-4-1.8-9.4-2.7-12.2-6-2-3.6,13.6-6.5,16.4-8.3,13.2-5.2,23.7-16.2,27.3-29.8,1.3-3.1,3.1-14.1,5.9-14.4h0Z"/>
  <path class="st1" d="M117.6,317.7c1.7,1.3,2.2,3.9,2.9,5.9,1.1,3.6,2.2,7.2,4.2,10.5,3.2,5.2,8.4,8.4,14.2,10.9,2.1,1.2,11.6,3.5,5.9,5.8-10.1,3.1-18.5,8-23.2,17.8-1.7,2.9-2,7.8-4.1,9.7-.4,0-.7-.3-.9-.6-.7-1.1-1.1-2.2-1.6-3.6-1.4-4.8-4.5-9.1-7.2-13.2-3.9-5.2-12.2-6.9-17.3-9.7-7.8-3.7,5.3-6.4,8.2-8,4.6-1.9,8.4-4.1,11.1-7.7,3.1-4.1,4.3-9.9,6.1-15.1.4-1,.8-2.9,1.7-2.7h0Z"/>
  <path class="st1" d="M234.1,247.6c1.1.8,1.4,2.5,1.9,3.8.7,2.3,1.4,4.6,2.7,6.7,2,3.3,5.4,5.3,9.1,6.9,1.4.8,7.4,2.2,3.8,3.7-6.4,2-11.8,5.1-14.8,11.3-1.1,1.9-1.3,5-2.6,6.2-.3,0-.4-.2-.6-.4-.4-.7-.7-1.4-1-2.3-.9-3.1-2.9-5.8-4.6-8.4-2.5-3.3-7.8-4.4-11.1-6.2-5-2.4,3.4-4.1,5.3-5.1,2.9-1.2,5.4-2.6,7.1-4.9,2-2.6,2.8-6.3,3.9-9.6.2-.6.5-1.9,1.1-1.7h0Z"/>
  <path class="st1" d="M670.7,276.7c1,1,1.5,2.6,2.1,4,1.1,3.4,2.7,7.1,5,10.4,1.9,2.6,4.5,4.5,7.3,5.9,2.5,1.5,12.1,3.6,6.2,7.1-8,3.4-15.1,7.2-18.1,15.9-.9,2.2-1.2,6-2.8,7.4-.3,0-.5-.3-.9-1-1.3-2.6-1.7-5.9-2.9-8.6-2.2-6-7.9-9.3-13.8-11.8-13.9-5.1-1.1-5.1,4.5-8.6,3.5-1.8,6-5,8.2-8.3,2.2-3.4,3-8,4.2-11.6.3-.8.5-1.2.9-.9h0Z"/>
  <path class="st1" d="M651.1,90.1c1,1,1.5,2.6,2.1,4,1.1,3.4,2.7,7.1,5,10.4,1.9,2.6,4.5,4.5,7.3,5.9,2.5,1.5,12.1,3.6,6.2,7.1-8,3.4-15.1,7.2-18.1,15.9-.9,2.2-1.2,6-2.8,7.4-.3,0-.5-.3-.9-1-1.3-2.6-1.7-5.9-2.9-8.6-2.2-6-7.9-9.3-13.8-11.8-13.9-5.1-1.1-5.1,4.5-8.6,3.5-1.8,6-5,8.2-8.3,2.2-3.4,3-8,4.2-11.6.3-.8.5-1.2.9-.9h0Z"/>
  <path class="st15" d="M476.4,258.1c-.4,14.3.6,28.7,0,43s.3,3.1-1,1.5v-45c.3-1.4,1,.5,1,.5Z"/>
  <path class="st9" d="M315.4,264.1c7.5.9,32.1,9.1,32.1-4.5s-3-7.1-6-8.1c-15.5-4.9-47.6-2.8-56.5-21.5-10-21.3,10.3-34.4,29.4-34.9,1.6,15.5,16.6,20.1,29.8,22.7,25.9,5.2,70,5.3,95-3.4s14.1-9.2,18.9-19.2c23.3-.5,42.8,23.4,21.9,41.9-14,12.5-64.5,15.8-84,17-6.3.4-13.9-.8-19.9,0-11.1,1.6-9.7,16.9,2.9,16.9s10.4,0,12.6,0c25.4-.1,44.1-2.9,68.9-8v42.5c0,21.6,54.3,56.6,70.5,72.5,116.1,113.6,69,277.8-87.7,314.3-63.7,14.9-133.6,4.7-188.3-31.3-88.3-58.1-104.6-166.3-42.5-251,15.8-19.8,37.6-42.5,60-59,2-1.8,3-2.5,5-4l15.3-12.2c20-14.9,19.7-44.1,19-61.5-1-6.2.3-9.3,3.8-9.4l-.2.3Z"/>
  <path class="st8" d="M318.4,126.1c25.5,13.7,60.7,14.4,89.8,12.6,14.8-.9,33-2.5,45.2-10.6,1.2,3.3.4,8.4-.2,12.3-1.3,7.9-4,18-6,26s-7.6,29.1-8.7,30.3c-2.9,3.1-27.1,6.9-32.5,7.5-18.9,2-42,1.5-60.5-2.5-8.3-1.8-12.5-2-15.4-10.6-4.3-12.2-10.8-38.1-12.3-50.7s-1-11.6.8-14.3h-.2Z"/>
  <path class="st2" d="M453.4,128.1c.9,3.2-2.2,4-4.5,5-26.2,11.4-99.5,10.9-125.2-1.8-2-1-5.2-2.6-5.3-5.2.8-1.1,3-2.6,4.3-3.2,21-10.3,97.8-8.5,120.9-1.5,4.5,1.4,8,2,9.8,6.7Z"/>
  <path class="st9" d="M315.4,264.1c-1.2,1.2-2.8.2-3.1,2.4-1.3,9.8.9,22.7,0,33.1-1.9,24.8-16.9,34.4-35,47.5,6.7-7.2,15.7-11.9,22-19.5,9.1-10.9,11.3-22,12-36s-.4-18.4,0-27.5c1.3.1,2.7-.2,4,0h.1Z"/>
  <path class="st9" d="M272.4,351.1c-20.1,17.8-41.6,35-57.2,57.3s-2.3,3.8-2.8,1.7c13.9-19,29.5-34.8,47.5-50,3.7-3.1,8.2-6.8,12.5-9Z"/>
  <path class="st13" d="M328.4,401.1c18.1-16.7,50.1-7,53,18,38.9,0,77.8,2.3,116.5,6,2,.4,3,2.7,3.6,5.1s2.5,1.8,3.3.4l1.2-2.3c.7-1.3,2.1-2,3.5-1.7,12,2.1,28.7,2.4,38,9.9,19,15.3,28.4,68.8,27,92.1-10.5,180.3-313.9,203.6-370.3,37.2-12.8-37.8-9.7-100.6,19.3-130.8,15.6-9,34.5-13.5,52.3-12.1l41.6-3.4c2-6.9,4.7-14.6,11.1-18.5h-.1Z"/>
  <path class="st12" d="M223.4,435.1c4.4-4.6,8-3.7,10.5-6,4.6-4.4,11.5-17.2,17.5-23.5,22.7-23.9,73.3-57.9,83.3-87.7,1.7-5,2.2-10.3,3.5-15.4s2.9-7.5,6.4-9.1c3.3-1.5,7-.7,10.4.4,4.2,1.3,8.2,3,12.1,5,.9.4,1.8,1,2,1.9.2.8-.2,1.7-.6,2.4-2.4,5.2-1.9,10.4-2.9,15.8s-2.4,9.1-4.3,13.5c-4.1,9.3-10.2,17.7-16.9,25.4-13.2,15.2-29,27.7-44.1,40.9-7.5,6.5-15.9,15.7-23.4,21.6s-2.3.9-3.5,1c-.2,1.7,3.5,1.1,4.5,1,13.1-.9,26.2-3,39.4-3.1.6-6.7,3.5-11.8,8-16.5s2.6-3.5,3-1.5c-5.8,5.4-8.3,11.7-10.7,19-31.5,3.7-64.7,2.2-94.3,15h0Z"/>
  <path class="st0" d="M406.1,336.4c34.9-3.8,45.3,47.1,12.2,57.2-41.8,12.8-55-52.6-12.2-57.2Z"/>
  <path class="st4" d="M343.1,153.3c13.3-2.7,15.8,25.7,4.7,26.8s-14.3-24.8-4.7-26.8Z"/>
  <path class="st17" d="M536.4,466.1c.8,1.9-.7,3.7-4.7,5.5,7,22.5,5.3,46.7-.7,69.3-1.2,4.6-11.1,33.4-16.3,35.8-8.1,3.6-21.8-8.4-21.2-17.2-1.8,9.1-8.2,15.7-17.2,17.8,11,.2,20.3,16,17.9,25.7-2.1,8.3-42.9,27.8-49.2,30.1-56.9,20.9-130.7,14.1-182.9-15.6l-.5,1.5c-2,0-2.8-1.4-4-2.5-40.1-36.4-55.6-89.4-37.3-141.3,1.6-4.5,4.1-8.6,5.3-13.2,5.4,2.9,9.3,5.3,15.2,7.3,52.8,17.3,141.2,14,197.3,11.7,26.3-1.1,75.2-3.5,98.5-15h-.2Z"/>
  <path class="st11" d="M532.6,467.9c5.9-3.6,7.5-3.5,12.7,11.1,53.4,150.3-169.6,223.5-282.9,142.1-8.6-6.4-13.8-11.8-1.6-7.9,9.5,3.1,20.3,8,30.2,11,53.6,16.4,116.8,19.4,166.1-10.1,7.7-5.2,15.1-13.2,14.2-22.4-.1-6.8-4.9-12.4-4.8-19.1.5-6.9,7.3-13,13.6-13.9,6.8-.9,13,3.6,19.9,2.3,13.1-2.9,18.3-22.8,21.5-34.9,1.3-5.6,2.3-11.2,2.9-16.9,1.6-12,.3-33.9,8.1-41.4h0Z"/>
  <path class="st17" d="M536.4,445.2c2.1,1.7-8,6-9,6.5-27.6,11.8-69.5,12.4-99.5,13.5-43.5,1.6-90.7,2.7-133.9-2s-62.5-9.1-62.5-16.5c7.8-3.4,17.9-4.5,26.5-5.5,16-1.8,34.9-3.3,51-4s7.2,0,10.8,0c10.5,29,51.1,28.1,61.3-1,52-.6,103.8,2.5,155.3,9.1h0Z"/>
  <path class="st11" d="M361.1,438.8c-6.2,5.3-17.8,4.7-23.2-1.7-12.3-14.3,3.3-34.7,19.8-26.8s12,21.1,3.5,28.4h0Z"/>
  <path class="st11" d="M399.7,356.5c12.5-12.6,31.8,7.6,18.6,19.1s-30.9-6.6-18.6-19.1Z"/>
  <path class="st16" d="M342.9,533.6c33.6,29.6-6.1,85.5-46.9,60.4-45.8-28.2,4.1-98,46.9-60.4Z"/>
  <path class="st13" d="M397.8,502.6c32.3-34.5,85.9,17.5,51.1,51.6-32.6,32-84.9-15.5-51.1-51.6Z"/>
  <path class="st6" d="M411,613.8c-7.4,7.9-21.6,8.7-30.2,2.3-19.8-14.9-3.2-47.2,21.5-38.5s19.1,24.9,8.7,36.1h0Z"/>
  <path class="st3" d="M259.1,489.4c22.7-4.7,28,28.1,7.5,31.5-22.4,3.8-27.1-27.5-7.5-31.5h0Z"/>
  <path class="st14" d="M344.1,413.4c12.7-3.8,9.2,13.9-.2,13.9s-4.9-12.3.2-13.9Z"/>
  <path class="st14" d="M401.6,366.9c-3.2-3.3-.2-11,4.4-11.5s7,2.3,6.4,7.3-8.7,6.5-10.8,4.2Z"/>
  <path class="st11" d="M301.8,578.7c-20.9-16.9,3.8-52,27.5-36,25.5,17.2-1.9,56.8-27.5,36Z"/>
  <path class="st11" d="M418.1,508.4c23.3-4.8,34.7,24,17.2,36.2-15.5,10.9-34.8-2.4-31.9-20.9s8.5-14.1,14.7-15.3h0Z"/>
  <path class="st14" d="M392.1,591.3c14.5-3.2,10.7,18.8-.5,14.1s-5.8-12.7.5-14.1Z"/>
  <path class="st14" d="M309.1,544.3c9.7-2,14.4,14,5.6,16.6s-16.6-14.3-5.6-16.6Z"/>
  <path class="st14" d="M421.2,516.3c1.8,1.2,2.3,9.8,1.2,12.4-4.8,12-20.8.4-12.1-10.1,2.5-2.9,7.7-4.4,10.8-2.3h.1Z"/>
  <rect class="st10" x="-796.5" y="-330.1" width="52.9" height="52.9"/>
  <rect class="st10" x="-715.2" y="-332" width="58.6" height="58.6"/>
</svg>