<?xml version="1.0" encoding="UTF-8"?><svg id="Calque_1" xmlns="http://www.w3.org/2000/svg" viewBox="0 0 391.58 417.35"><defs><style>.cls-1{fill:#212121;}.cls-2{fill:#161616;}</style></defs><path class="cls-1" d="M254.45,80.13c1.01,1.55,5.13.83,7.47.76,5.07-.29,11.96-.7,17.2-1,3.77.04,7.74-1.02,9.89.21,1.67,1,1.82,3.25.67,4.77-4.67,5.14-14.56,10.14-20.39,14.19-2.59,1.69-3.27,3.54-3.09,6.38.63,6.01-1.54,8-7.77,9.71-4.59,1.46-9.39,2.49-13.64,3.93-10.31,3.97,15.41,2.58,16.49,3.35,8.29.36,3.14,10.1,2.94,14.35-.13,2.62,3,2.86,5.16,3.11,15.4,1.57,31,4.11,45.8,8.62,2.9.93,6.77,2.41,8.68,3.92,2.34,1.93.51,3.02-1.89,2.91-1.94-.03-4.22-.64-6.17-1.24-16.21-5.08-33.13-8.08-50.12-8.67-2.17-.06-4.4.01-6.3.94-2.41,1.09-4.27,3.66-7.17,6.14-1.88,1.62-3.94,3.14-6.03,4.46-8.92,5.74-11.11.58-2.65-4.2,18.04-12.12-9.75-6.6-16.47-7.19-6.56.27-14.94,3.37-21.76,4.89-1.86.48-3.61.94-5.12,1.33-2.69.69-6.68,1.45-3.17,3.12,2.17,1.11,6.92,2.44,8.21,4,2.26,3.41-5.28,3.05-7.07,2.3-5.53-1.46-10.08-5.67-15.77-4.34-21.01,5.96-52.45,23.17-68.9,35.85-9.46,7.89-18.85,21.07-19.33,33.29-.13,5,2.4,11.55,7.63,12.8,2.77.14,6.09-3.89,8.75-6.12,4.22-4.14,7.32-4.86,1.72-9.59-5.33-5.02-4.58-13.7-.73-19.31,7.54-10.62,23.94-14.44,35.75-17.55,30.41-7.99,56.45-10.77,87.3-10.8,29.76.07,68.36-3,102.04,3.72,17.34,3.9,32.76,8.78,42.61,23.49,3.48,5.19,5.21,11.68,3.05,17.7-5.06,14.23-15.05,19.83-28.59,24.6-4.57,1.86-1.15,3.88,1.4,5.34,8.31,4.78,13.77,11.34,11.36,21.1-1.75,7.37-6.63,13.41-13.14,17-13.24,7.54-31.92,8.36-45.84,11.15-7.42,1.4-14.86,4.11-22.08,6.85-43.95,17.33-101.34,24.46-148.31,17.99-10.05-1.71-19.56-6.81-22.1-17.21-1.75-5.27.27-12.52-5.66-15.52-5.3-2.6-10.12-5.48-13.67-10.58-4.9-5.78-7.18-13.19-4.95-20.69.94-3.68,2.69-7.14,4.66-10.37.88-1.5,1.51-2.88,1.52-4.16.05-2.25-1.78-3.98-3.12-5.65-4.21-5.2-6.52-11.5-5.04-17.74,2.21-8.4,7.26-18.73,13.06-25.6,15.11-16.64,46.62-32.68,67.87-40.82,3.48-1.51,9.36-2.3,10.62-5.27.44-1.74-2.07-4.24-3.82-7.1-26.48-41.25,6.07-89.08,54.35-82.07,11.17.97,19.03,8.88,23.59,18.43l.07.08ZM281.7,84.47c-.33-.23-.86-.18-1.43-.16-3.88.2-15.92,1.01-21.73,1.34-2.65.25-4.97-.51-6.78-2.51-6.54-7.31-12.21-14.43-22.13-16.23-36.5-7.89-62.58,24.83-55.98,58.53,1.33,6.01,3.96,12.45,7.69,17.94,3.66,5.52,7.72,6.69,13.67,4.61,12.18-3.86,24.62-7.25,37.43-8.23,6.87-.57,14.4.52,21.39-.34,3.95-.64,6.89-5.28,7-9.19-.06-1.84-3.03-2.14-4.98-2.3-7.24-.68-14.6-1.17-21.62-2.55-15.88-3.61,17.01-14.01,21.2-15.54,1.91-.72,4.15-1.6,4.76-3.52,1.1-2.75-.74-6.54,2.09-8.52,4.56-3.26,14.73-9.79,18.3-12.27.48-.38.98-.61,1.1-1.03v-.03ZM371.13,230.16c4.61-5.15,7.22-11.31,6.21-17.82-.84-5.07-3.62-10.27-7.29-13.71-15.3-12.33-44.16-16.81-63.95-18.28-3.42-.16-7.43-.32-8.27-.25-.87.07,1.01.4,2.96.79,11.8,2.4,30.97,6.02,39.26,7.84,2.9.88,5.41,2.45,8.31,4.09,4.13,2.34,8.49,5.33,8.35,10.42.15,7.45-8.51,14.34-16.64,17.02-2.47.81-4.92,1.14-5.57,2.02-.47.64-.25,1.23.24,2.11,2.74,3.77,5.51,7.5,6.46,12.21.59,1.97.69,4.86,2.91,5.59,3.55.43,7.47-2.22,10.79-3.46,5.47-2.65,11.85-3.55,16.1-8.41l.15-.16ZM212.4,180.88c-12.19-.14-24.83,2.81-36.7,4.9-18.89,4.08-42.76,8.14-56.32,17.01-2.23,1.71-4.67,4.42-5.8,7.27-2.33,5.17.99,11.65,6.52,12.57,2.54.38,4.9-.94,6.89-2.45,12.73-9.72,27.08-16.6,41.39-23.5,4.24-2.16,7.54-3.39,11.99-4.77,7.89-2.6,21.71-7.16,28.7-9.47,2.47-.85,4.46-1.34,3.4-1.55h-.07ZM128.75,225.36c1.4,1.17,6.19,1.64,9.38,2.3,8.29,2.14,15.48-2.96,22.82-5.98,38.29-14.01,106.86-22.7,145.92-13.32,6.1,1.46,12.69,5.77,18.32,7.87,3.19,1.28,6.41.64,9.62-.5,6.71-2.71,18.4-5.77,15.3-13.97-1.97-4.26-6.52-6.23-10.68-7.51-13.66-4.23-39.85-8.34-58.41-10.53-43.53-6.47-98.49,8.88-137.05,29.89-4.19,2.71-9.14,6.31-13.11,9.07-.87.6-2.69,2.03-2.14,2.62l.04.06ZM317.15,218.28c.1-.63-2.55-1.5-3.72-1.91-6.35-2.4-12.95-4.79-19.82-5.18-43.95-3.37-90.72,2.47-131.88,15.55-9,3.17,8.64,3.12,10.48,3.4,44.61.21,90.54-2.23,134.74-8.53,2.27-.39,4.97-1,7.38-1.71,1.65-.5,2.79-1.05,2.82-1.56v-.06ZM329.51,225.91c-2.28-1.62-5.05-2.14-8.24-1.88-55.97,10.8-112.92,13.13-169.89,10.7-4.33-.34-8.46-.16-12.01,2.38-4.02,2.6-10.09,7.11-12.9,10.37-3.82,4.08,2,4.61,4.94,5.77,5.72,2.28,11.07,4.71,17.32,5.34,5.21.79,9.59,1.58,14.67-.7,45.65-20.15,95.95-25.04,145.37-20.74,7.15.83,14.23,2.1,21.26,3.65,2,.41,4.49.93,5.83-.39,2.82-3.75-2.69-11.93-6.21-14.41l-.15-.1ZM137.3,232.03c-.91-.8-3.77-1.05-5.44-1.47-3.51-.55-7.38-2.2-10.51-.1-3.02,2.54-14.37,10.17-13.93,13.83.5,1.53,3.15,2.29,4.83,2.99,1.98.69,3.93,1.77,5.98,1.97,2.7.14,3-2.97,5.01-4.69,3.9-3.47,8.66-7.26,12.57-10.6,1.09-.93,1.71-1.51,1.52-1.9l-.03-.05ZM326.12,245.99c-.57-.73-3.56-1.33-5.11-1.48-44.96-5.48-91.09-3.63-134.66,9.32-4.64,1.34-9.06,2.82-13.11,4.25-1.89.7-3.27,1.53-3.17,2.14,0,.05.02.16.17.31.07.07.15.13.25.19,1.2.59,2.97.65,4.48.7,6.54.02,13.08-.1,19.65-.08,38.36.83,70.66-3.92,108.21-10.87,6.09-1.19,12.29-1.65,18.37-2.31,1.45-.17,5.62-.74,4.97-2.12l-.04-.06ZM117.58,254.54c-.72-1.91-4.79-3.15-6.99-4.16-2.36-1.02-6.14-2.84-7.75-1.43-2.35,1.83-4.26,5.98-5.49,8.91-2.5,6.07-2.44,13.21,1.22,18.8,3.45,5.45,8.78,9.55,14.58,12.18,3.96,1.83,5.63-.87,8.31-4.22,1.42-1.88,3.84-4.45,4.16-6.57.18-3.01-2.64-4.83-4.15-7.83-.73-1.28-1.31-2.63-1.81-4.03-.88-2.41-1.48-5.03-1.58-7.45-.1-1.37.04-2.81-.45-4.08l-.05-.12ZM326.48,289.92c.58.34,3.05-.05,4.19-.21,14.32-1.74,35.63-9.35,30.28-26.21-2.04-4.68-7.45-9.2-12.07-11.74-4.68-2.41-7.79-3.58-11.99-.16-33.04,28.29-80.9,33.13-121.46,43.35-2.59.69-4.01,1.78-1.14,2.33,25.24,1.14,50.58-1.19,75.81-2.28,2.88-.17,5.79-.22,8.64-.72,4.17-.67,8.16-2.58,12.12-4.27,3.94-1.69,7.13-3.44,11.21-6.17,4.66-2.72,9.14-7.09,14.46-8.07,3.48-.2,5.63,1.68,2.16,4.3-3.01,2.39-7.38,5.41-10.28,7.61-.75.62-1.66,1.16-2.06,1.94-.04.12-.01.21.07.28l.04.03ZM326.1,253.06c-.29-.64-3.25-.22-4.5,0-12.93,2.27-25.88,5.97-38.91,7.79-37.68,5.15-81.96,12.07-118.56,4.33-2.44-.32-4.31-.39-6.32.05-4.03,1-7.66,2.88-11.82,4.67-3.04,1.47-9.56,4.02-9.83,6.76-.23,1.36,2.45,2.63,4.12,3.19,11.64,4.31,23.95,9.21,36.03,11.64,20.58,4.2,45.12-2.31,67.42-7.39,21.01-5.16,43.15-11.05,63.04-19.44,5.61-2.39,11.18-5.1,16.29-8.51,1.15-.75,3.57-2.6,3.06-3.06l-.02-.05ZM149.05,263.46c.06-.42-1.45-.68-3.84-1.36-2.87-.78-5.8-1.57-9.21-2.5-3.46-.94-6.99-1.89-10.2-2.76-1.07-.25-2.05-.69-3.05-.49-1.55.72-.2,4.11.67,6.62,1.34,3.37,4.22,7.56,6.8,9.54,1.68,1.2,3.2.4,4.98-.63,1.29-.75,2.91-1.7,4.58-2.68,2.67-1.71,7.73-4.18,9.27-5.7v-.04ZM169.9,294.52c-11.99-2.66-23.98-6.73-34.95-12.49-1.91-.95-4.02-1.77-6.01-.75-2.79,1.54-6.59,5.75-7.16,7.92-.24,1.24.67,1.95,1.72,2.44,9.33,3.15,18.31,4.1,28.09,4.69,5.35.48,11.95-.5,17.06-1.28.96-.17,1.4-.33,1.29-.49l-.02-.03ZM280.2,301.88c-.41-.67-3.02-.85-4.3-.85-18.58-.52-37.06,2.2-55.82,1.33-9.79-.22-19.27-3.51-29.08-3.54-15.51-.26-31.52,3.45-47.03,1.97-7.3-.48-14.76-2.65-21.87-3.75-3.75-.29-4.27,3.82-3.71,6.66,1.08,9.92,10.26,13.14,18.56,15.09,37.18,8.2,100.34-.79,137.05-13.4,1.55-.54,3.28-1.13,4.68-1.85,1.14-.59,1.77-1.17,1.55-1.6l-.03-.05Z"/><path class="cls-2" d="M133.76,101.52c-5.3,6.23-11.6,14.57-17.71,19.73-1.13.92-2.36,1.74-3.69,2.29-5.36,2.49-10.86-1.11-10.01-7.13.57-3.9,3.95-6.35,6.04-9.47,3.03-4.84,7.49-9.35,11.79-13.76,4.09-4.16,4.69-6.26-.13-9.92-4.66-3.81-9.7-7.61-14.22-11.52-6.37-5.37-12.62-11.21-8.47-19.9,3.42-6.68,11.71-8.89,18.03-11.95,15.76-6.03,6.65-19.8,14.53-30.73,3.15-4.38,8.82-6.96,14.14-5.57,3.55.86,6.45,3.07,9.54,5.65,5.2,4.35,9.61,8.77,14.63,12.61,3.14,1.99,7.69,7.03,10.82,3.71,5.79-7.29,12.76-19.93,20.13-24.84,2.48-1.65,5.54-.3,6.82,2.3,3.97,6.65-3.81,16.39-8.25,21.14-3.7,3.48-7.5,6.66-10.69,10.59-18.42,21.65-34.72,45.09-53.17,66.63l-.12.14Z"/><path class="cls-1" d="M361.59,369.4c-.71,2.09.52,4.74-.43,6.88-.74,2.11-3.49,4.19-5.62,5.87-2.91,2.3-6.28,4.11-8.97,2.24-7.37-7.14-52.3-53.03-58.8-59.5-1.23-1.18-2.62-3.27-1.98-5,1.3-2.27,5.56.63,7.12,1.99,9.62,8.61,18.86,20.06,27.87,29.74,7.25,7.75,15.4,16.07,22.96,23.48,1.76,1.66,3.01,2.97,4.2,3.62,2.87,1.6,8.75-2.4,7.45-6.15-.8-2.87-3.46-6.05.02-7.71,8.77-3.63,23.87-7.67,29.56-14.78,1.39-1.96,1.47-5.04-.69-6.39-1.61-1.05-4.18.28-6.05,1.6-6.71,4.49-19.4,12.45-25.55,14.21-1.53.43-2.91.23-4.31-.74-2.9-2.12-5.87-5.74-8.37-8.62-8.58-10.27-20.22-25.62-27.52-36.73-.78-1.22-1.59-2.51-2.12-3.76-1.35-2.85.34-4.99,2.55-3.45,6.63,7.5,31.8,41.48,37.36,47.4.4.21.87.23,1.57.06,1.18-.28,3.12-1.12,5.46-2.36,3.88-2.03,8.88-5.04,13.62-7.61,5.21-2.58,8.61-5.09,13.59-5,6.56.37,9.23,9.63,5.12,14.3-4.69,6.02-17.38,11.51-25.04,14.29-1.11.44-2.49.98-2.95,2l-.05.1Z"/><path class="cls-1" d="M127.88,328.21c1.22.22.52.99-.45,2.3-10.38,14.04-32.95,44.57-38.58,52.2-.69.81-.7,1.67.21,2.35,1.25,1.07,4.05,2.84,6.38,2.77,4.47-.49,6.42-5.46,10.67-.13,3.69,5.46,5.84,10.07,11.35,14.86,3.34,2.87,12.16,11.3,16.46,8.34,2.85-3.08-2.21-8.27-5-10.25-4.24-3.2-7.23-5.92-10.88-9.86-3.19-3.58-6.46-6.57-8.23-10.32-1.48-3.79,1.97-7.22,4.22-10.01,9.04-10.26,21.61-19.91,31.3-30.23,1.43-1.43,4.51-4.39,6.12-3.18,1.27,1-.01,3.31-1.03,4.34-5.45,5.54-28.7,28.84-34.49,34.69-1.63,1.51-1.25,2.73.05,4.76,2.03,3.19,4.93,6.99,8.02,9.5,5.26,4.63,14.44,9.18,16.39,16.17,1.03,4.29-1.78,9.71-6.34,10.66-10.29,2.01-23.17-13.29-28.59-20.98-3.72-5.56-5.81-.61-10.22-2.12-3.1-1.19-8.02-4.93-10.34-7.34-1.35-1.34-2.54-3.13-1.43-4.96,4.5-8.74,30.49-39.67,38.84-50.53,1.15-1.7,4.11-3.23,5.51-3.03h.07Z"/><path class="cls-1" d="M44.27,349.39c.06,1.25,1.85,2.35,3.16,2.82,6.68,2.55,15.84-1.09,21.24-6.22,2.54-2.37,4.13-5.51,5.88-8.45,1.05-1.95,4.05-4.53,5.04-1.49.65,2.88-1.19,6.12-2.79,8.53-4.89,7.09-13.91,12.46-22.26,13.32-5.79.89-11.06-3.05-16.49-4.12-4.37-.37-9.18,1.68-13.65.92-12.38-1.61-23.8-13.34-24.37-25.87-.3-7.3,2.83-14.22,6.61-20.36,1.79-2.61,3.53-5.62,6.26-6.52,1.54-.44,2.35.61,1.75,2.56-2.75,6.49-8.94,12.89-9.11,20.47-.8,9.13,3.06,19.19,12.09,22.55,3.67,1.36,9.77,3.44,13.13.94,1.13-1.15.54-3.27-.27-5.74-4.14-12.88,1.55-33.09,14.45-38.81,5.61-2.1,12.44.37,15.61,5.42,3.58,5.43.86,13.51-1.71,19.39-2.48,5.44-5.63,10.48-9.62,14.76-2.21,2.49-4.84,3.72-4.94,5.81v.1ZM47.26,308.55c-4.66,1.32-10.91,11.9-12.62,16.89-1.46,4.36-2.03,22.55,5.79,19.61,7.66-2.48,27.7-37.35,6.99-36.53l-.16.04Z"/><path d="M212.75,138.28c-1.79-.8-2.34-3.14-3.7-5.41-2.49-4.71-4.89-9.27-7.67-14.55-3.95-7.68-6.81-12.51-8.75-16.86-1.73-4.93,1.78-4.67,4.12-1.12,3.56,6.35,7.13,12.87,10.94,19.1,2.43,4.29,4.69,8.72,6.67,13.28.98,2.01,1.46,6-1.52,5.58l-.09-.03Z"/><path d="M199.69,93.57c2.15-.7,4.16,2.85,5.18,4.58,5.64,10.69,12.45,21.14,16.18,32.64.49,2.71-1.89,3.41-3.85,1.65-1.09-.94-1.98-2.42-2.64-3.76-3.02-6.51-5.84-13.25-8.83-19.79-1.06-3.37-8.33-12.64-6.13-15.27l.07-.05Z"/><path d="M206.67,138.82c-2.16.52-5.01-3.12-5.94-5.22-3.58-6.98-7.77-13.71-11.47-20.61-1.56-3.18-5.54-9.14-2.52-12.18,1.06-.27,1.84,1.13,2.42,1.95,3.24,5.61,8.06,12.37,10.56,18.48,1.61,3.98,5.86,11.95,7.22,15.51.26.73.49,1.67-.2,2.04l-.08.03Z"/><path d="M197.54,139.84c-2.26.4-4.52-3.12-5.44-5.29-1.15-2.27-2.68-5.37-4.22-8.57-2.06-4.35-4.7-9.69-6.22-13.58-.86-1.86-.34-4.9,2.44-2.87,1.07.82,1.93,2.04,2.67,3.16,2.03,3,14.47,26.25,10.86,27.13l-.09.02Z"/><path d="M210.83,96.15c1.91.51,3.2,3.36,4.74,5.8,2.65,4.54,5.83,10.57,7.77,15.66,3.73,9.2-1.41,7.63-4.59,1.64-2.41-4.04-5.8-10.48-7.99-14.86-1.01-2.11-4.82-8.76-.05-8.27l.12.03Z"/><path d="M222.79,92.61c-5.31-5.31,1.38-15.45,8.35-12.94,4.05,1.48,6.99,6.99,4.46,10.86-2.48,4.13-9.01,5.81-12.64,2.25l-.17-.17Z"/></svg>