<?xml version="1.0" encoding="UTF-8"?>
<svg id="Calque_1" xmlns="http://www.w3.org/2000/svg" version="1.1" viewBox="0 0 512 512">
  <!-- Generator: Adobe Illustrator 29.5.1, SVG Export Plug-In . SVG Version: 2.1.0 Build 141)  -->
  <defs>
    <style>
      .st0 {
        fill: #d6a55a;
      }

      .st1 {
        fill: #9a6334;
      }

      .st2 {
        fill: #fbae6c;
      }

      .st3 {
        fill: #2a2622;
      }

      .st4 {
        fill: #2a2621;
      }

      .st5 {
        fill: #733918;
      }

      .st6 {
        fill: #d7a65d;
      }

      .st7 {
        fill: #fde5b2;
      }

      .st8 {
        fill: #723716;
      }

      .st9 {
        fill: #d7883d;
      }

      .st10 {
        fill: #dbac6f;
      }

      .st11 {
        fill: #d07b2e;
      }

      .st12 {
        fill: #c08e47;
      }

      .st13 {
        fill: #f7b76f;
      }

      .st14 {
        fill: #d17c2f;
      }

      .st15 {
        fill: #d28033;
      }

      .st16 {
        fill: #fbc179;
      }

      .st17 {
        fill: #d7893e;
      }

      .st18 {
        fill: #d17e31;
      }

      .st19 {
        fill: #bc8c45;
      }

      .st20 {
        fill: #bc8d47;
      }

      .st21 {
        fill: #f5b063;
      }
    </style>
  </defs>
  <path class="st7" d="M400,423l2.2,1.6c5.4,23.8,10,55.9,6.3,80.4-.4,2.5-1.3,4.8-2.5,7h-67c-1.1-2.8-1.8-5.7-2.1-8.7l.2-65.7-1,73.3-2,1.2h-185c-1.9-4.1-3.3-4.1-4,0h-24c-.6-.7-1.1-1.4-1.5-2.1-3.4-6.4-1-41.1,0-50.5,4.5-40.9,18.2-77.6,49.4-105.4s17.7-15.1,20-14.8,2.1.7,2.5,2c-1.7,14-1.9,29,5,41.7s4,2.1,6.7.2l18.9-14c9.5-8.6,21.5-2.6,18.6,9.3,7-12.8,13.2-16.5,25.8-8.1,7.5,7.3,15.5,13.2,23.9,17.8,5.7-.4,16.2-17.4,18.8-21.9,7.4-12.9,11-25.1,14.3-39.4,25.7,9.1,47.7,31.2,61.5,54.5,7.3,12.4,14.9,27.6,15,41.8Z"/>
  <path class="st12" d="M307,306c3.8.8,7.5,3.7,10,6.5s4.7,8.7,6.2,10.3,11.2,5.7,14,7.5c34.2,21.7,54.6,49.7,65.7,88.8-.5,2.9-1.5,4.2-3,4-10.4-41.3-37.1-76.9-76-95-1.3,19-11,38.1-22.6,52.9s-6.5,8.8-11,9.1c-7.1.4-21.3-18-30.6-21.3s-8.9-1.4-13.8,4.8c-12.9,16.3-10.7,48-14,68s-4.3,2.8-4.1-3c.5-14.7,3.5-37.6,7.4-51.7s4.9-11.9,4.6-13.1-4.7-6.4-5.3-6.8c-2.9-2-8.6,2-11.5,3.7-5.8,3.4-17.6,14.2-22.1,15.9-5,1.8-6.5-3-8.1-6.8-5.1-11.7-4.9-24.6-3.5-36.9s1.9-2-.8-1.8c-16.7,11.7-32,25.7-42.9,43.1-23.5,37.3-27.7,84.8-24.6,127.9h-4c-4.7-58.3,6.6-122,52.5-162,6.3-5.5,18.5-11.8,23.1-16.4s6.9-11,13.3-13.7c2.9,0,4.4,3,2,5l-.8,2.6c-18.1,9.9-13.4,36.6-7.6,52.8,8.6-7.1,17.5-13.8,27.7-18.4-3.2-3.1-4.3-5.7-3.2-7.9l-1.8-2.4c-2.3-2-7.4-6.8-2.2-6.6,2.3-1.6,6.4,2.8,8.1,4.7,5.2,5.7,10.2,11.8,14.9,18,13.3-9.9,27-19.4,41.1-28.5,2.3-3,4.9-4.7,7.8-5.2,7.4-4,2.7,3.9-1.1,6.5-3.2,2.3-6.1,4.8-8.9,7.5l1.1,1.8c-6.3,4.9-13.2,9.2-20.9,13,9.1,6.1,17.9,12.9,26.3,20.2.7.4,1.4.7,2.2.8,1.5.2,11.8-15.3,13.3-17.9,9.1-15.6,23-40.6,2.8-53.5l-.9-2.4c-5.2.7-1.9-9.3,1-4Z"/>
  <path class="st19" d="M339,512h-5l1.5-107c1.6-.3,2.2,1.1,2.5,2.5,1.1,6-.3,16.3,0,23s1,4.6,1.1,6.9c.7,24.8-.6,49.7,0,74.5Z"/>
  <path class="st20" d="M149,512h-4c-1.1-8.7-1.2-17.9,0-26.5.5-25,.8-54.4,7.3-78.7,1.3-4.9,5-10.7,4.7-2.3s-3.9,18.4-4.9,26.2c-2.4,18.9-3.8,38.9-4.2,57.8s-.2,15.8,1,23.5Z"/>
  <path class="st0" d="M403,419c8.4,29.6,9,57.1,8,87.5,0,1.9,0,3.8-1,5.5h-4c1.9-23.8,1.2-47.8-2.1-71.4-.8-5.7-3.5-11.7-3.9-17.6s1.6-3,0-5l3,1Z"/>
  <path class="st14" d="M372,136c-1.5,2.5-5.4.8-5-2-16-37-44.3-62.8-84.1-72.2-74.4-17.6-148.1,30.4-148.3,109.6,1.1,19.5,0,38.9-2.7,58.2-9.6,72.7,73.1,88.4,128.4,82.7l2.6,1.7c1.4.1,3.9.6,3,2.2-4.4,6.9-43,4.9-52,3.2-2.3.4,3.1,20.5,6.4,22.8l-.3,2.8c-2.6,3.2,1.8,4.4,3.1,6.5s.7,2.1.9,2.5c-5,.9-9.7-6.7-12-10.9s-6.6-13.8-4-18.1c-.4-1.6-1.7-3.5-2-5s2.4-2.7-.7-3.8-12.5-2.1-17.5-3.5c-38.5-10.7-58.4-29.8-62.7-70.3s1.2-3.2.5-4.4-3.7-1.8-5.1-3c-19.8-16.8-20.7-49.5,7.4-57.1-.2-85.8,68.2-137.9,151.4-122.6,42.5,7.8,82.3,37.6,92.7,80.7Z"/>
  <path class="st18" d="M381,182c1-2.8,3.8-1.9,4,1,5.2,1.9,10,7.2,12.5,12,15.2,28.5-14.8,71.8-47.5,58-5.1,23.1-23.1,41.5-43,53s-1.4-.2-2,0c-.7,1.4.9,3.1,1,4,5.4,8-2.3,20.6-8.2,27.2-3.6,4.1-10.7,11.5-15.8,10.8,1.1-3.9,4-3.6,6-5.4s11.4-9.8,4-8.6l-.4-2.6c6.1-6.8,10.8-14.7,8-24.1l1.4-2.3-.3-1.3c18.7-12.2,37.8-28.2,43.8-51.2-2.2-5.2-1.5-7.9,2.1-8.2,25,15,49-7.3,48.6-33.9-.4-26.7-30.5-30.3-42.6-9.4-2,2.9-7.1,4.7-5.6,0,0-1.6,0-3.3,0-5,3.6-8.1,12.4-13.9,21.4-15.8s10.8-2.1,12.6,1.8Z"/>
  <path class="st1" d="M367,134c1,.2,4,1.5,5,2,17.1,8.4,19,30.7,13,47-.6-.2-3.2-.9-4-1l-1.5-2c12.8-65.4-64.9-42.8-36.8,10.1,2.8,1.9,4.2,3.9,4.3,5.9,2.8,2.3,5.1,3.9,0,5-6.8,3.2-13.2-8.5-15.3-14.4-7.3-20.3-2.7-48.4,21.1-54.5,4-1,12.6-2.5,14.2,1.9Z"/>
  <path class="st6" d="M243.3,416.7c-5.7-4.6,0-15.7,7.7-12.2s0,18.5-7.7,12.2Z"/>
  <path class="st21" d="M301,305c4,12.8-1.4,20-9,29-11.9,14-24.9,18-39.3,28.2s-6.3,5.3-9.2,7.8l-1.5-.4c-4.5-6.1-9.5-11.8-14.5-17.5s-5.8-4.9-7.5-7c-6.5-7.9-8.2-18.1-9-28,17.9,2.2,36.5,3.9,54-1.5l-2-1.5.9-2.1c11.9-2,23.9-4.4,35.3-8.3l1.8,1.4Z"/>
  <path class="st7" d="M306,310c23.7,11.3,10.4,39.3.4,55.9-2,3.3-11.9,18.5-14.5,19.6-4.7,2.1-16.9-11.9-21-14.9s-11.6-6.5-11.9-7.1c-.8-1.5.8-1.4,1.3-1.7,5.8-4.2,13.7-7.2,19.7-11.3s1.6-2.1,2-2.4c13.2-9.5,25.1-20.1,24-38Z"/>
  <path class="st7" d="M208,325c3,12.3,5.4,20.7,16,29,1,1.4,6.4,8.4,6,9-11.1,4.4-21.3,12.4-30.5,20-2.9,0-6.2-17.5-6.5-20.5-1.5-14.5-.4-31.4,15-37.5Z"/>
  <path class="st16" d="M367,134c-14.4-3.7-29.7,5.1-34.3,19.2s-2.3,42.7,14.3,47.8.6,1.1,1.5,1.1c4-2.6,5.7-7.8,10-11,14.8-11.1,35.9-4.7,38.4,14.6,3,23.3-13.8,48.9-39.3,45.3s-7.9-4.2-12.6-4.9c0,3.5,2.1,4.2,1.4,7.8-2.5,11.8-15.6,29.4-24.9,37.2s-16.7,12.4-20.5,14c-7.7,3.3-29.4,7.9-38,9-43.7,5.6-121-4-131.7-56.8s1.7-40.8,1.8-62.7-1.6-26.9,1.2-42.7c20.8-118.8,189.8-127.6,232.3-21.8.4,1.1,2.4,3.5.5,4Z"/>
  <path class="st13" d="M126,233c-6.6-2.3-11.9-10.2-13.9-16.6-5-15.3.1-29.4,15.9-34.4,2.8,17-2.4,34-2,51Z"/>
  <path class="st10" d="M381,182c-10-1.8-19.9,1.2-27.5,8s-2.9,5.8-6.5,6c-1.8-1.5-3.5-1.5-5.4-4.1-13.2-17.4-7.2-55.6,20-54,22.3,1.3,24.4,27.1,19.5,44.1Z"/>
  <path class="st2" d="M146.3,231.7c-13.3-13.3,5.8-33.2,22.4-26.9s11.1,35-11.3,32.2c-2.7-.3-9.2-3.4-11.1-5.4Z"/>
  <path class="st4" d="M274.7,167.2c20.1-4.6,21.7,29.1,4.7,30.7-17,1.6-19-27.4-4.7-30.7Z"/>
  <path class="st3" d="M181.8,164.2c15-2.8,21.2,22.7,7.3,29.4-18.6,9-25.7-25.9-7.3-29.4Z"/>
  <path class="st8" d="M269.1,249c-.4-.3-2.6-8-4.6-8.9-14.1,19.2-41.6,27.4-62.8,14.8s-18.3-13.8-11.2-15.8,8.6,7,11.1,8.8c16.3,11.8,38.4,8.1,52.8-4.9s6.1-6,6.4-7.7-4.4-3.6-3.9-6.3c7.2-3.1,18.6,14.7,15.5,19s-2.7,1.4-3.5.9Z"/>
  <path class="st11" d="M214.7,187.2c3.8-.6,7.9-.3,11.5,1s5.3,4.8-.4,4.5-6.6-1.3-11.1-.5c-12.2,2.1-20.4,17.6-10.8,27.3s14.6,5.6,21.3,4.2,9.3-6.3,11.2-5.8c5.1,1.3-3.8,7.4-5.8,8.2-17.6,7.5-41.7-2.8-34.2-24.2s11.4-13.7,18.2-14.8Z"/>
  <path class="st5" d="M161.4,136.4c5.3-5.9,18-9.8,25.7-7.9s7.2,5.1,2.2,6.4-5-1-7.7-.9-7.2,1.6-9.5,2.6-9.5,7.3-10.5,7.3c-3.8-.3-2-5.3-.1-7.4Z"/>
  <path class="st5" d="M270.7,129.2c7.9-2.3,23.1,3,27.3,10.2,1.6,2.7,1.2,6.4-2.4,5.4s-7.6-8-14.6-9.4-10.4.2-12.1-.9-.5-4.7,1.7-5.3Z"/>
  <path class="st15" d="M172,237c7.9-2.1,11.6-10.4,16-16.4s4,.6,1.9,4.8-15.9,20.7-17.8,11.7Z"/>
  <path class="st9" d="M142,193c-.3-5,15.2-9.5,16-5.5s-1.2,2.1-2.5,2.4c-4.5,1-8.9,2.2-13.4,3Z"/>
  <path class="st17" d="M309.6,194.1c3.2-.9,15,4.3,14.4,7.4s-1.5,1.1-2.7.7c-1.6-.6-12.5-5.6-12.9-6.2-.6-.9.5-1.8,1.1-1.9Z"/>
</svg>