<?xml version="1.0" encoding="UTF-8"?>
<svg id="Calque_1" xmlns="http://www.w3.org/2000/svg" version="1.1" viewBox="0 0 512 512">
  <!-- Generator: Adobe Illustrator 29.5.1, SVG Export Plug-In . SVG Version: 2.1.0 Build 141)  -->
  <defs>
    <style>
      .st0 {
        fill: #5c2e25;
      }

      .st1 {
        fill: #3d2c29;
      }

      .st2 {
        fill: #e36b38;
      }

      .st3 {
        fill: #5d2e25;
      }

      .st4 {
        fill: #e36f3d;
      }

      .st5 {
        fill: #f59c6b;
      }

      .st6 {
        fill: #5f3026;
      }

      .st7 {
        fill: #f59c6a;
      }

      .st8 {
        fill: #612f25;
      }

      .st9 {
        fill: #944634;
      }

      .st10 {
        fill: #e36c38;
      }

      .st11 {
        fill: #d54450;
      }

      .st12 {
        fill: #934534;
      }

      .st13 {
        fill: #f1c187;
      }

      .st14 {
        fill: #6c3426;
      }

      .st15 {
        fill: #6c3326;
      }

      .st16 {
        fill: #3d2c2a;
      }

      .st17 {
        fill: #f1c288;
      }

      .st18 {
        fill: #d64450;
      }

      .st19 {
        fill: #6a3226;
      }

      .st20 {
        fill: #5d2f25;
      }

      .st21 {
        fill: #f56974;
      }
    </style>
  </defs>
  <path class="st21" d="M367,356c-1.6,1.6-2.7.2-1,2.5,2.8,3.7,7.8,7.3,11,11,16.8,19.7,25.5,44.2,30.7,69.3,5,24.1,6.3,48.7,6.3,73.2h-81l-2-.6-1.9-73.7c0,23.5,0,47,.2,70.6l-1.3,3.7h-168c-2.2-1.3-2.9-8.6-2.8-11.5,1.1-26.2,2.3-46.6,7.3-72.6s4.2-16,7.2-23.5c-13.4,32.2-14.9,68.2-14.7,102.8-.3,1.7-.9,3.3-2,4.7h-38c-1.3-1.7-.9-3.3-.8-5.2,3.9-46.7,13.5-106.5,49.8-139.8,0-.7.1-1.4.4-2.1,1.8-5.5,29-19.2,35.9-22.2l3.8.3,2.4.9c11.8,53.9,89.8,30.8,106.5-9.1l3.1-1.8,3.8-.5c14.4,5.2,27.8,11.2,39.6,20.4,2.5.6,4.3,1.7,5.5,3.1Z"/>
  <path class="st11" d="M155,512c-.3-34,.6-71.5,13-103.5,1-2.6,3.7-10.4,6.5-10.5s-3.8,14.5-4.2,15.8c-8.3,28-11.4,57.6-11.1,86.7s1.6,7.7.8,11.5h-5Z"/>
  <path class="st18" d="M333,512h-5c-.2-21.8-1.6-43.7-1-65.5.2-8.4.1-21.1,1-29,.2-1.7.2-3.4,2.5-3.4l2.5,98Z"/>
  <path class="st9" d="M386,189c0,3.6-2.6,3.3-7.7-1.1-9.7-5.7-21.1-4.6-29.4,3.1h-2.9c-2.6,2.2-8.7,1.4-10-1.9-1.3-.5-2.3-1.2-2.9-2.1v-14.2c-20.5-13.9-36.4-36.9-45.4-60.1-2.3-5.8-5.4-13.9-4.7-19.6l-.8-2.3c1.8-2.2,3-4.6,3.5-7.1-12.9,19.5-31.3,34.6-51.5,46.1-13,7.5-29.2,16.2-44.2,16.3l-2.6,1.4c-26.7-5.5-49.8,11.4-53.5,38.1l-1.4,1.2c-1.7-1.3-5.3-.6-6.5,1.3l-2.5-13.7c-13.7-104.7,95-157.6,183.2-117.5,10.9,5,22.5,17.3,29.6,20.4,13.8,6.2,19.8,2.8,32.2,16.8,24,26.9,20.6,62.6,17.5,95Z"/>
  <path class="st12" d="M299,303c.2-1.2.8-2.2,1.8-3,18.7-13.1,31.3-25.3,39.4-47.4,20.2,3.2,36.9-6.8,45.7-24.9,1.8-1.1,2.6-.8,3.1,1.3,6.1,15.5,25.7,16.2,37.5,26,27.7,23.1,8.8,77.5-28.5,75-1.1-2.7-1.5-2.1-1,2-3.3,11.7-17.7,23.8-30,24s-3.2.2-4.9-.5c-3.5-1.5-10.6-7.5-15-10-9.4-5.2-19.3-8.2-29-12.5-1.9,2.3-5.4,1.1-5-2-4.9,2.1-10.9-5.3-13.1-9.6-2.3-4.5-4.7-14.9-.9-18.4Z"/>
  <path class="st12" d="M142,239c.9.3.9.7,0,1-2,4.4,1.4,12.7,3.4,17.4,14.6,34.7,42.2,49.1,78,55.8-.2,7.3-.6,14.3-1.4,20.9,1.9,3.4-7,8.2-10,6-1,3.3-2.8,4.2-6,3-14,7.1-28.2,13.1-40,24-6.7,1.7-12.5-9-15.7-9.9s-10.5,1.2-14.7.8c-23.5-2.7-37.8-22.2-34.6-45.4,3.9-28.3,34.9-40.8,37-73.5,0-2.9,3.3-2.8,4,0Z"/>
  <path class="st8" d="M346,191c11.3-11.5,26.5-11.5,38.5-1l1.5-1c-.5,4.8,6.2,16.3,4.9,28.4s-3.2,8.3-1.9,11.6h-2c-7.2,17.3-27,29.4-46,25-6.7,20.9-22.5,39.1-42,49-1.9-1.2-1.9-2.7,0-4l.2-2.4c18.5-11.5,30.7-28.2,37.9-48.9l2.6-1c20.9,9.1,40.1-8.7,44.6-28.7,7.5-33.8-28.7-38.8-41.8-12.4-5,5-10.2-5.2-6.4-8.5.5-1.6,2.2-2.5,5.1-2.5,1-2.7,2.6-3.8,4.9-3.5Z"/>
  <path class="st17" d="M137,210c1.8,3.6,3.7,24.9,2.4,26.7s-.8.9-1.4,1.3c-8.1-.2-17.1-8.2-20.2-15.3s-3.5-11.2-3.6-12.4,2.6-11.6,3.3-13.1c2.3-4.4,5.5-5.9,8.4-9.1,1.2-2,7.2-3.4,8.2-1.6-.8,7.3,1.1,14.3,3.8,21.1l-1,2.5Z"/>
  <path class="st0" d="M398,330c0,.6-.8,1.3-1,2-4.5-4.4-2.2-12.5-3.1-18.4-1.7-11.3-8.3-20.1-16.4-27.6s-8.2-4-5.5-7,8.7,4.4,10,5.5c12.2,10.4,18.1,29.8,16,45.5Z"/>
  <path class="st4" d="M141,215c2.9,6.6,3.3,17.3,1,24h-4c0-.3,0-.7,0-1,.3-9.3-1.9-18.6-1-28,2.5-1.4,5.9,2.8,4,5Z"/>
  <path class="st11" d="M318,333c-11.4,25.1-35.8,42.1-63.5,44s-29.8-1.4-40-14c-5.4-6.7-5.7-12.3-8.5-20,2-1,4-2,6-3l2.2,2.2c8.9,48.9,81.9,24.3,95.8-9.7l3-1.5c1.6.8,3.4,1.3,5,2Z"/>
  <path class="st16" d="M190,146c5.2-.9,7.9,0,8,3,5.5-.8,10.3,5.1,13.6,9.3,4.7,6,8,12.8,9.4,20.2,4.5-.9,9.2-.9,13.6.7,10.8-52,86.9-47.2,90.3,6,5-.3,8.7,1,11.2,3.9,3.3.6,6.8,1,10,2-4.3,4.4-1.1,6.2-10,6,0,.9-.4,1.5-1.2,1.9l-10.1-1.8c-3.9,11.2-10.1,25-22.7,27.9l-1,2.3-11.3,3.8c-1.5,0-3-.4-4.6-1.1l-2.2,2.2c-24.6,1.9-48.5-15.2-49.1-40.8-8.8-5.8-13.9-1.9-15.2,11.7l-2.6,1.9c2,3.6-2.8,11.3-7,11,.2,5.1-7,8.7-11.4,10.8s-12,5.5-15.6,2.2c-4.9,4-18,3-22-2-7,1.7-17.3-4.9-19-12-1-1.1-3.4-4-4-5-1.9-3.6-4.5-12.5-4.9-16.6-.6-6.1,3.6-9-6.1-5.4.1-.2-.4-1.4.1-1.8.9-.7,5.1,0,6.4-2.2s1.8-8.9,3-12c8.2-21.4,32.9-32,54.5-26Z"/>
  <path class="st17" d="M283,93c3.6,7.7,5.2,16.1,8.5,24,8.1,19.1,23.9,40,40.1,52.9s2.9.8,3.2,1.3c1.5,2.4-1.5,14.3,1.2,17.8-4.3-.8-8.6-1.9-13-2-1.9-53.5-78.5-58-87-5-5.2-2.8-11.4-2.6-17-1-.6-12-10.5-26.4-21-32l4.5-3.6c29.6-10.9,57.7-27.6,77.6-51.7l2.9-.6Z"/>
  <path class="st6" d="M283,93c-8.3,12.3-25.9,25.9-38.5,34s-30.2,16.6-46.5,22c-1.4-.7-6.4-2.5-8-3,21.4-5.6,43-16.5,60.9-29.6,13.6-10,25.7-22,34.6-36.4,5.1,3.1,0,9.3-2.5,13Z"/>
  <path class="st20" d="M320,99l3.5,1c5.8,19.2,17.1,33.5,34,44s9.8,3.6,6.5,5.5-14.8-5.3-18-8c-12.3-10-23.1-26.9-26-42.5Z"/>
  <path class="st13" d="M313,331c-7.3,15.6-21.4,28.9-37.5,35-26,10-61.1,8.4-63.5-26,2.9-1.5,8.1-3.5,10-6-.5-.4-.8-.7-.8-1,.5-4.7,1.6-13.4,2.5-17.9s.6-.7,1.3-1c1.3-.8,2.7-1.5,4.2-1.5,27.1.4,39.5.3,65.5-9.4,1.4-.5,2.9-.7,4.4-.2,0,13.3,1.5,21.7,14,28Z"/>
  <path class="st3" d="M359,342c-.6-.6,1.3-13,1-16.5-.7-6.5-5.2-11.3-5.8-15.2s1.8-4.4,4-1c4.8,7.4,6.7,16.4,5.8,25.2s-1.9,10.8-5,7.5Z"/>
  <path class="st13" d="M299,299c-.3,1.3-1,2.5-2.2,3.1-14.4,6.9-29.1,10-45.1,10.9-5.1.3-23.2.9-26.3-1.5s-1-1-1.5-1.5c-8.1,2.7-20-1.7-28.3-4.9-20.5-7.8-36.9-20.6-46.9-40.3s-8.2-17-6.8-24.8c0-.3,0-.7,0-1-1.2-7.7-.9-16.2-1-24,5,5.7,11.7,9.8,19,12l-.3,2.4c-25,23.5,26.4,44.6,22.9,6.8-1.5-2.9-1.7-5.4-.6-7.3,10-.9,20.2-5.5,27-13,2.2.5,3.6,2.7,4.1,6.8,4.1,7.8,12.7,7.9,12,7.6-7.1-2.9-15.4-6.8-11.7-16.7s5.7-7.1,10.1-8.4c-3.4,1-5.8.9-7.5-.3,1.7-4.1,3.2-14.4,4.5-16,2.2-2.6,6.5-2.3,9.5-1.6,8,2,5.1,4.1,6.2,9.8,4.7,22.8,26.3,35.1,48.7,32.8h3.3c-5.3,10.5-4.2,23.4,8.7,27.4,22.8,7.1,31.4-30.3,6.6-30.6l-1.6-1.8c11.4-7.3,17.3-16.6,21-29.6,1.7-1.2,9.8,1.5,13,1.6,3.2,15.8,5.2,5.1,10.5-1,12.6-14.4,37.1-12.2,40.3,7.8,3.6,23-15.9,50.5-40.2,47.2s-6.7-3.3-8.1-2c-3.9,10.4-8.3,20.9-15.5,29.6s-16.6,16.5-24,20.5Z"/>
  <path class="st15" d="M142,240c7.6,42,41.8,64.9,82,70,3.1,1,4,2.1,1,4,.3,5.2.2,15.8-3,20-2.4-.8-1.9-2.2-1.8-4.2s3-14.4,1.7-15.8c-22.6-3.2-45.9-11.7-61.5-29-9.2-10.3-18.2-26.9-20.4-40.6s-1.2-5.1,1.9-4.4Z"/>
  <path class="st20" d="M154,309c.7.7-5.6,15.8-6,19.5s-.3,9.3.2,12.8,4.3,10,4.8,13.2-1.9,1.9-3.4,1.5-5.1-12.5-5.4-14.8c-1-8.1.2-20.3,3.9-27.6s3.8-6.7,5.9-4.6Z"/>
  <path class="st2" d="M299,299c0,1.3,0,2.7,0,4-22.8,11.5-48.8,14.2-74,11,0-1.4-.2-2.8-1-4,23.7,3,53.7.8,75-11Z"/>
  <path class="st17" d="M275.5,152.6c47.4-4.8,54.8,64.6,8.9,69.3-52.2,5.3-53.3-64.9-8.9-69.3Z"/>
  <path class="st17" d="M178.8,152.2c14.2-1.1,28,12.1,31.5,25,14.2,52.2-67.2,59.6-70.3,14.3-.8-12.1,6-28.4,17.7-33.3s17.9-5.7,21.1-6Z"/>
  <path class="st5" d="M302,225c14.8-2.8,24,14.6,15.4,26.9-12.8,18.4-42.9,3.4-31.9-19.9s3.1-2.2-.6-2.1c5.6-.6,11.7-4,17-5Z"/>
  <path class="st7" d="M182,229c5.2,9,4.2,22.4-5.6,27.9-19.4,10.8-36.8-19.5-16.4-29.9,7.2,2.2,14.5,2.7,22,2Z"/>
  <path class="st19" d="M209,216c3-3.3,5.3-6.9,7-11l6.5-2.1c10.6,2.2.9,4.2-2.2,5.8-7.7,4.1-7.1,13.9.3,18.1s7.5.8,6.4,4.6-10.2-1.3-12-3c-4.4-4-4.4-7.2-6-12.5Z"/>
  <path class="st14" d="M263,242c3.8,2.6-6.8,12.7-9.1,14.4-13.5,10.2-35.1,10.4-47.9-.9-2.2-1.9-7.8-7.1-4.6-9.6s5.6,3.4,9.1,6.1c11.9,9,32.8,8.1,43.5-2.5s5.3-10,8.9-7.5Z"/>
  <path class="st10" d="M352.9,219.9c-1.9,1-4.4-.6-3.7-3.2s6.3-8,7.9-9.1c2.7-1.9,14.5-6.5,15.9-2.1s-4.9,2.2-7.2,2.7-5.6,2.6-6.7,3.4c-2.4,1.8-5.7,8.1-6.2,8.3Z"/>
  <path class="st1" d="M274.7,177.2c12.9-2.9,14.6,20.1,6.2,25.2-13.6,8.2-18.2-22.5-6.2-25.2Z"/>
  <path class="st16" d="M184.5,175.4c9.7-.3,12.5,22.4,2.2,26.8s-15.9-26.4-2.2-26.8Z"/>
</svg>