<?xml version="1.0" encoding="UTF-8"?>
<svg id="Calque_1" xmlns="http://www.w3.org/2000/svg" version="1.1" viewBox="0 0 807.7 755.5">
  <!-- Generator: Adobe Illustrator 29.4.0, SVG Export Plug-In . SVG Version: 2.1.0 Build 152)  -->
  <defs>
    <style>
      .st0 {
        fill: #68b2b5;
      }

      .st1 {
        fill: #1e3f6b;
      }

      .st2 {
        fill: #f9ac6a;
      }

      .st3 {
        fill: #328394;
      }

      .st4 {
        fill: #a1cdcc;
      }

      .st5 {
        fill: #1f3e6a;
      }

      .st6 {
        fill: #297b8d;
      }

      .st7 {
        fill: #23798f;
      }

      .st8 {
        fill: #297c8f;
      }

      .st9 {
        fill: #3d8f9d;
      }

      .st10 {
        fill: #6b75b4;
      }

      .st11 {
        fill: #328393;
      }

      .st12 {
        fill: #2c7e90;
      }

      .st13 {
        fill: #5fa5aa;
      }

      .st14 {
        fill: #24788e;
      }

      .st15 {
        fill: #267a8e;
      }

      .st16 {
        fill: #1e3e6a;
      }

      .st17 {
        fill: #3d8e9c;
      }
    </style>
  </defs>
  <path class="st17" d="M494.5,613c11.4,7.6,21.8,16,35,21,11.5,31.3,45.7,81,13.5,110-3.5,3.1-10.1,7.4-14.5,9-8.2-.2-15.8-3.3-22.7-9.4-17-17.1-7.3-2.9,2.5,3.9,7.3,3.3,9.2,5.8,5.7,7.5l-14.5-.9c-28.7-7.4-43.8-39.8-51-66-40.9,7.8-83.6-8-106.4-43.1-6.7-10.3-12.5-22.4-16.6-33.9,54.8,27.8,110.8,36.4,169,11,.2-1.3.3-1.3-.6-2.1s-4-2.2-5.9-3.9c-4.4-4-7-7.6-10.5-12-1.9-3.2-.8-4.3,2.7-3.2l14.3,12.2Z"/>
  <path class="st10" d="M391.5,248c14.4-.9,51,.8,53.9,19.6s-6.6,37.5-9.9,54.4c8.5-3.9,16.2-9.7,24.6-13.9,11.1-5.5,32.9-15,44.3-7.6s19.3,40.6,22.1,54.4c1.5.4,1.7-.4,2.5-1,10.7-7.3,20.3-21.5,33.2-29.8,21.7-14.1,28.9-8.6,44.8,8.8s19.1,24.8,22,25.1,2.3-.3,3.3-1.7c2.9-3.7,6.6-15.9,9.6-21.4,4.4-8.2,14.2-23.4,22.8-27.2,13.6-5.9,30,7.3,41.7,13.2-55.4,44.6-115.3,51-184,36.5-61-12.8-123.4-39.8-131-109.5Z"/>
  <path class="st10" d="M293.5,27c15.4-8.1,32.7-14.2,50.4-11.9,26.3,3.4,20.6,40.9,15.6,58.9,12.8-.5,24.4-3.1,37.2-.7,41.8,7.8,22.6,45.3,4.3,66.8-1.3,1.5-9.7,8.6-8.5,10,12.9,2.5,28.3,9.5,36.4,20.1,20.7,27.2-16.2,51.2-37.4,61.9-2-49.2,3.9-84.8-19.3-131.2-15.1-30.2-47.5-61.1-78.7-73.8Z"/>
  <path class="st11" d="M201.5,317c11.6-1.3,24.7-4.4,36-7.5,12.7-3.4,25-8.4,36.7-14.3l3.3,1.3c-16,26.9-48.1,45-77.9,52.6-.8.9.4,19,0,22.5s0,1.1-1,1.4c-.3-18.7-.4-37.6,3-56Z"/>
  <path class="st13" d="M354.5,499v1c-31.1,24.1-68.7,47.8-110,41-3.4-4.9-6.7-9.6-9.8-14.7-1.8-3-3.3-7.8-5.2-10.3,8-4.2,7.8,3.4,13,7.5,19.2,15.5,63.8-5.8,82.3-16.7s14.6-9.3,21.2-14.8l8.5,7Z"/>
  <path class="st15" d="M528.5,753c-9.8,3.6-19,3.6-29,1,3.7-1.7,8.1.2,12.5,0s2.7.7,2.5-1c-4.2-1.6-8-4.2-11.5-7s-14.3-13.1-6-13c.8,0,8.2,7.7,10,9,6.3,4.8,14,8.7,21.5,11Z"/>
  <path class="st4" d="M259.5,418l-1.5,3.2c-16.4,7.8-31.5,17.5-45,29.1l-3.4.7c-6-13.8-7.4-29.2-9-44,19.5-4.9,41.8,1.5,59,11Z"/>
  <path class="st0" d="M293.5,27l3.8-.5c36.9,17.4,67.7,49.1,82.9,87.2,13.8,34.8,13.8,77,13.2,114.1l-1.8,4.3c.2,4.8-.6,10.8,0,16l2.5,3.7c3.7,28.1,18.4,51.3,40.7,68.2.5.3.5,1.2.5,2.1.9-.2,1.7-.3,2.1,0,50.8,36.3,134.8,46.4,194.9,35.7.6-.8,1.3-1.4,2.1-1.6,24.4-6.8,46.6-17.7,66.7-33.3l5.5-1.8c10.1-8.1,21.1-18.1,30-27.5,8.7-9.2,21.4-30,34.5-30.6,23-1,17.3,32.7,15.2,47.3-7.1,47.7-31.1,99-58.9,138.1-25.1,35.2-57.8,67.3-94.8,89.7l-3.1-2.7c-8-21.3-22.9-45.3-44-53.9,26.2,15.1,41,41.8,47.9,70.2,1.3-.5,2.8-1,4.2-1.6,26.7,1.9,53.4-7.9,70.8,17.7,15.5,22.8,35.9,63.3,26.2,90.3-2.5,1.1-5.5.6-9-1.4-28-19.6-7.4,2.6,5.6,6.2l.5,2.2c-4.2,7.5-10.3,14-18,18-3.9,0-9.6-3.4-13.2-5.7l-13.6-10.9c.1,4.1,2.5,7.4,7.3,10.1l10.2,6.8.3,2.7c-38.6,10-55.7-19.9-74-47l-.6-1.8c9.5-6.5,3.8-8.4-3.4-3.2-1.1,3.4-38,8.9-43.5,9-16.3.5-38.4-3.3-53.5-9-.7.3-1.3.5-2,.6s-1.3.2-1.8,0c-4-1.8-7.7-3.8-11.4-6-6.7-3.9-16.1-9.3-19.8-15.7-23.3-17.4-35.9-51.4-30.5-79.6-2.8-13.6-5,20.4-3.6,23.2l-1.9,1.3c-1.1.2-2.3.3-3.4.2s-2.2,0-3.2-.4c-31.5-10.2-70.1-31.2-94.7-53.4-1.3-1.2-2-2.9-2.6-4.5-.9-.3-.9-.6,0-1l2.4-4.8c17-15.7,31.6-34.9,41.1-55.5-24,29.1-51.8,55.2-86.7,72.8-13.9,7-53.1,23.6-67.4,9.5-2.6-2.5-6-6-2.3-9,13-6.6,24.1-21,1.8-3.5-18.3,10.6-35.1-4.5-20.6-21,3.8-2.8,21.3-18.2,5.5-8.6l-11.7,9.8c-2.2,1.2-4.9,2.3-7.2,1.4-8.7-4.9-11.1-7.4-9.9-18.4s4-7.2,0-6.6c-.9-.3-.9-.6,0-1l4-1.1c9.3-12.9,21.1-23.3,35.8-30.8,32.3-17,66.9-35.4,89.2-64.7-17.5,20.7-39.6,37-64.2,50.1l-4.8.5-3.3.5c-16.1-8.3-34.5-13.5-52.6-10.1l-3.1-1.4c-4.3-9.7-5.1-23.8-2-34,.5-8.1.6-16.3.6-24.5l1.5-1.7c26.2-7.2,50.8-20.5,68.4-41.5,1.3-1.5,6-8.5,5.5-8.3-13.3,6.1-24,10.6-38.2,14.9s-29,7.8-32.9,6.2-1.3-.7-1.9-1.1c-51.6,5.8-132-8.8-167-50.5-49.6-59.3-6.3-158.1,72.9-153.6C126.7,54.8,187.5,13,249,16.9c11.9.7,33.4,5.6,44.5,10Z"/>
  <path class="st2" d="M308.1,184.3c40.2,30.8-23.3,80.4-49.5,39.8-17.6-29.6,22.5-59.1,49.5-39.8Z"/>
  <path class="st12" d="M354.5,499c-2.4.8-5.2-.6-8.3-4.2-17.9,13.2-37.6,24.6-58.9,31.3-18.1,5.7-41.4,10.3-52.6-8.9-2.3,0-4-.3-5.2-1.1-2.4-3.1-5.7-2.5-9-4.5s-7.7-8.8-8-13.1,3.4-4.8-3-8.4c1.8-2.1,4.7-2,7-3.5s20.2-20.1,20.1-10c0,6.2-19.2,11.4-16.8,24.8,2.2,11.9,16.3,9.9,24.1,4.6s15.3-13.8,14.5-5.5-13.1,11.4-16.8,14.1c7.6,14.1,25.2,10.2,38,7,34.3-8.6,64.5-31.6,90.5-54.5,4.3-2.8,25.9-31.5,27.9-31s2.4,1.9,2.1,3c-.7,2.9-6.8,13-8.8,16.3-9.8,16.4-22.4,31.1-36.8,43.7Z"/>
  <path class="st14" d="M632.5,538c1.2,3.4,2.1,6.9,3.2,10.3s1.7,1.6,1.8,1.7c.5,1.9-3.6,5.2-5.8,2.8s-6.2-20.2-8.1-24.5c-5.6-12.6-16.5-28.1-27.2-36.8s-12.5-7.9-12.9-9.1-.2-2.1.9-2.9c3-2.1,13.4,6.8,16,9,15.9,13.7,25.1,30,32,49.5Z"/>
  <path class="st3" d="M713.5,683c-3.5,1.8-5.4,2.1-9,3-5.1-4-20.1-11.4-20.1-18.5s.4-3.3,1.6-3.5c1.9-.4,11.9,9.3,14.8,11.2,4.2,2.8,9.3,4.2,12.7,7.8Z"/>
  <path class="st11" d="M734.5,658c-.9,2.6-1.7,4.6-3,7-4.6-1.1-23.2-11.3-21.9-16.3s11.2,3.3,14.6,5.1,7.1,2.4,10.3,4.2Z"/>
  <path class="st6" d="M626.5,634c.3-.8-.7-2.2.6-3.1s7.7-2.8,9-1c3.4,5-3.6,6.1-5.6,9.1-1.2-1.8-2-3.9-4-5Z"/>
  <path class="st7" d="M259.5,418c18.4-10.7,35-20,51-34.5,3.1-2.8,17.4-18.9,18.6-19.4,6.1-2-.4,6.8-2.1,8.9-12.9,16-37.5,33.2-55.2,43.8-18.3,11-41,19.6-56.3,34.7s-9.3,12.4-11.9,13-2.9-.3-4.1-.5-3.1.4-1.5-1c5.6,1.6,5-3.7,7.7-7.3s2.6-3.3,3.8-4.7c12.5-14,33.8-23.6,50-33Z"/>
  <path class="st8" d="M494.5,613c-3.1-2.1-7-3.8-10.3-6.2s-7-7.9-6.7-2.8c-11.2-14.2-17.5-27.3-19-46-.4-4.9-1.4-28.9,3.6-29.9,7.3-1.4,2.3,10.7,2.3,14.3s.6,10.4,1.1,14c2.9,22.1,13.6,40.8,29,56.5Z"/>
  <path class="st5" d="M110.7,279.2c2.4-2.3,30.1.2,36.2-.3,26-1.9,59.1-17.1,69.7-42.3,2.8-6.8,1.7-18.6,11.2-17.7,16.4,1.6-2.2,31.2-7.4,37.5-21.9,25.8-58.6,35.8-91.5,33.6s-26-3.1-18.2-10.8Z"/>
  <path class="st16" d="M236.2,120.2c15.7-2.7,28.3,6.1,34.4,20.1s9.2,27.6-2.7,27.6c-8.3,0-6.7-9.7-8-15-5.1-20.8-25.3-27-35.1-5s-2.2,16.1-10.9,15c-11.7-1.5-1.1-22.5,2.6-28.3s11.8-13.1,19.5-14.5Z"/>
  <path class="st16" d="M100.2,177.2c15.1-1.5,6.9,24.4-6,20.6s-3.1-19.7,6-20.6Z"/>
  <path class="st1" d="M49.7,172.2c.8-.7,4.1-1.8,5.2-1.8,10.9-.2,11.3,19.6-.2,21.3s-9.4-15.5-5-19.6Z"/>
  <path class="st4" d="M458.5,558l2.3,3c1.5,14.5,7.4,27.8,16.4,39.3l2.3,2.2h0c2,1.5,3.8,3.3,5.2,5.4l5,5.1c2.1,1.2,9.9,7.6,6.1,10.3-6.4,4.6-21.5,8.5-29.7,10.6-46.8,11.9-94.2,2.4-136.9-18.8l-3.7-4.1c-34.7-17.6-58.8-38-81-70l3.8-1.5c38.3,4.6,73-16.7,102.2-39l3.9-.5c8.3,6.1,16.2,12.9,24.7,18.8,24.2,17,51.3,29.8,79.3,39.2Z"/>
  <path class="st9" d="M198.5,373c.2,11.7.8,22.6,2,34l2.3,3.1c1.3,12.6,2.8,25.2,7.3,37.1l-.6,3.8.7,2.3c-1.6,4-8,12-10.7,10.7v1c-39.4,4.7-86.8,1.2-122-18.5-12.2-6.8-44-28.5-17-38-7.4-7.1-22.5-22.5-16.4-33.4s16.8-7.8,24.4-5.1c-10.2-21.7,3.3-26.8,22.3-19.8,31.9,11.8,47.6,24.4,85.2,24.8,4.7,0,18.6-.8,22.5-2Z"/>
</svg>